<?xml version="1.0" encoding="UTF-8" standalone="no"?>
<!DOCTYPE svg PUBLIC "-//W3C//DTD SVG 1.1//EN" "http://www.w3.org/Graphics/SVG/1.1/DTD/svg11.dtd">
<!-- Gegenereerd door Microsoft Visio, SVG Export inf_MB_load.svg Pagina-1 -->
<svg xmlns="http://www.w3.org/2000/svg" xmlns:xlink="http://www.w3.org/1999/xlink" xmlns:ev="http://www.w3.org/2001/xml-events"
		xmlns:v="http://schemas.microsoft.com/visio/2003/SVGExtensions/" width="6.08209in" height="0.73926in"
		viewBox="0 0 437.91 53.2267" xml:space="preserve" color-interpolation-filters="sRGB" class="st9">
	<v:documentProperties v:langID="1043" v:metric="true" v:viewMarkup="false"/>

	<style type="text/css">
	<![CDATA[
		.st1 {fill:#00cc99;stroke:#000000;stroke-linecap:round;stroke-linejoin:round;stroke-width:0.75}
		.st2 {stroke:#000000;stroke-linecap:round;stroke-linejoin:round;stroke-width:0.75}
		.st3 {stroke:#000000;stroke-linecap:round;stroke-linejoin:round;stroke-width:4.5}
		.st4 {stroke:#000000;stroke-linecap:round;stroke-linejoin:round;stroke-width:2}
		.st5 {stroke:#000000;stroke-linecap:round;stroke-linejoin:round;stroke-width:1.2}
		.st6 {fill:#ffffff;stroke:#000000;stroke-linecap:round;stroke-linejoin:round;stroke-width:0.75}
		.st7 {marker-start:url(#mrkr5-85);stroke:#800000;stroke-linecap:round;stroke-linejoin:round;stroke-width:2}
		.st8 {fill:#800000;fill-opacity:1;stroke:#800000;stroke-opacity:1;stroke-width:0.44247787610619}
		.st9 {fill:none;fill-rule:evenodd;font-size:12px;overflow:visible;stroke-linecap:square;stroke-miterlimit:3}
	]]>
	</style>

	<defs id="Markers">
		<g id="lend5">
			<path d="M 2 1 L 0 0 L 1.98117 -0.993387 C 1.67173 -0.364515 1.67301 0.372641 1.98465 1.00043 " style="stroke:none"/>
		</g>
		<marker id="mrkr5-85" class="st8" v:arrowType="5" v:arrowSize="2" v:setback="3.775" refX="3.775" orient="auto"
				markerUnits="strokeWidth" overflow="visible">
			<use xlink:href="#lend5" transform="scale(2.26) "/>
		</marker>
	</defs>
	<g v:mID="0" v:index="1" v:groupContext="foregroundPage">
		<title>Pagina-1</title>
		<v:pageProperties v:drawingScale="0.0393701" v:pageScale="0.0393701" v:drawingUnits="24" v:shadowOffsetX="8.50394"
				v:shadowOffsetY="-8.50394"/>
		<g id="group4162-1" transform="translate(47.7716,-0.6)" v:mID="4162" v:groupContext="group">
			<title>Rol.4162</title>
			<g id="group4163-2" transform="translate(0.261477,-2.83465)" v:mID="4163" v:groupContext="group">
				<title>Scharnier</title>
				<g id="shape4164-3" v:mID="4164" v:groupContext="shape" transform="translate(2.79729,0)">
					<title>Blad.4164</title>
					<path d="M0 53.23 L13.99 53.23 L6.99 41.89 L0 53.23 Z" class="st1"/>
				</g>
				<g id="shape4165-5" v:mID="4165" v:groupContext="shape" transform="translate(2.79729,106.453) rotate(180)">
					<title>Blad.4165</title>
					<path d="M0 53.23 L2.8 53.23" class="st2"/>
				</g>
				<g id="shape4166-8" v:mID="4166" v:groupContext="shape" transform="translate(16.7838,-7.10543E-15)">
					<title>Blad.4166</title>
					<path d="M0 53.23 L2.8 53.23" class="st2"/>
				</g>
			</g>
			<g id="shape4167-11" v:mID="4167" v:groupContext="shape">
				<title>Blad.4167</title>
				<path d="M0 53.23 L19.84 53.23" class="st2"/>
			</g>
		</g>
		<g id="group4168-14" transform="translate(161.157,-0.6)" v:mID="4168" v:groupContext="group">
			<title>Rol.4168</title>
			<g id="group4169-15" transform="translate(0.261477,-2.83465)" v:mID="4169" v:groupContext="group">
				<title>Scharnier</title>
				<g id="shape4170-16" v:mID="4170" v:groupContext="shape" transform="translate(2.79729,0)">
					<title>Blad.4170</title>
					<path d="M0 53.23 L13.99 53.23 L6.99 41.89 L0 53.23 Z" class="st1"/>
				</g>
				<g id="shape4171-18" v:mID="4171" v:groupContext="shape" transform="translate(2.79729,106.453) rotate(180)">
					<title>Blad.4171</title>
					<path d="M0 53.23 L2.8 53.23" class="st2"/>
				</g>
				<g id="shape4172-21" v:mID="4172" v:groupContext="shape" transform="translate(16.7838,-7.10543E-15)">
					<title>Blad.4172</title>
					<path d="M0 53.23 L2.8 53.23" class="st2"/>
				</g>
			</g>
			<g id="shape4173-24" v:mID="4173" v:groupContext="shape">
				<title>Blad.4173</title>
				<path d="M0 53.23 L19.84 53.23" class="st2"/>
			</g>
		</g>
		<g id="shape4174-27" v:mID="4174" v:groupContext="shape" transform="translate(171.079,-14.7732)">
			<title>Ligger, 2 pt.4174</title>
			<path d="M0 53.23 L56.69 53.23" class="st3"/>
		</g>
		<g id="shape4175-30" v:mID="4175" v:groupContext="shape" transform="translate(1,-14.7732)">
			<title>Ligger, 2 pt.4175</title>
			<path d="M0 53.23 L425.2 53.23" class="st4"/>
		</g>
		<g id="group4176-33" transform="translate(437.535,77.507) rotate(180)" v:mID="4176" v:groupContext="group">
			<title>Inklemming.4176</title>
			<g id="shape4177-34" v:mID="4177" v:groupContext="shape" transform="translate(64.5653,24.8803) rotate(90)">
				<title>Blad.4177</title>
				<path d="M0 53.23 L28.35 53.23" class="st5"/>
			</g>
			<g id="shape4178-37" v:mID="4178" v:groupContext="shape" transform="translate(46.1409,-12.7567) rotate(45)">
				<title>Blad.4178</title>
				<path d="M0 53.23 L4.01 53.23" class="st2"/>
			</g>
			<g id="shape4179-40" v:mID="4179" v:groupContext="shape" transform="translate(43.3063,-12.7567) rotate(45)">
				<title>Blad.4179</title>
				<path d="M0 53.23 L8.02 53.23" class="st2"/>
			</g>
			<g id="shape4180-43" v:mID="4180" v:groupContext="shape" transform="translate(40.4716,-12.7567) rotate(45)">
				<title>Blad.4180</title>
				<path d="M0 53.23 L12.03 53.23" class="st2"/>
			</g>
			<g id="shape4181-46" v:mID="4181" v:groupContext="shape" transform="translate(37.637,-12.7567) rotate(45)">
				<title>Blad.4181</title>
				<path d="M0 53.23 L16.04 53.23" class="st2"/>
			</g>
			<g id="shape4182-49" v:mID="4182" v:groupContext="shape" transform="translate(37.637,-9.92207) rotate(45)">
				<title>Blad.4182</title>
				<path d="M0 53.23 L16.04 53.23" class="st2"/>
			</g>
			<g id="shape4183-52" v:mID="4183" v:groupContext="shape" transform="translate(37.637,-7.08742) rotate(45)">
				<title>Blad.4183</title>
				<path d="M0 53.23 L16.04 53.23" class="st2"/>
			</g>
			<g id="shape4184-55" v:mID="4184" v:groupContext="shape" transform="translate(37.637,-4.25278) rotate(45)">
				<title>Blad.4184</title>
				<path d="M0 53.23 L16.04 53.23" class="st2"/>
			</g>
			<g id="shape4185-58" v:mID="4185" v:groupContext="shape" transform="translate(37.637,-1.41813) rotate(45)">
				<title>Blad.4185</title>
				<path d="M0 53.23 L16.04 53.23" class="st2"/>
			</g>
			<g id="shape4186-61" v:mID="4186" v:groupContext="shape" transform="translate(37.637,1.41651) rotate(45)">
				<title>Blad.4186</title>
				<path d="M0 53.23 L16.04 53.23" class="st2"/>
			</g>
			<g id="shape4187-64" v:mID="4187" v:groupContext="shape" transform="translate(37.637,4.25116) rotate(45)">
				<title>Blad.4187</title>
				<path d="M0 53.23 L16.04 53.23" class="st2"/>
			</g>
			<g id="shape4188-67" v:mID="4188" v:groupContext="shape" transform="translate(37.637,7.0858) rotate(45)">
				<title>Blad.4188</title>
				<path d="M0 53.23 L12.03 53.23" class="st2"/>
			</g>
			<g id="shape4189-70" v:mID="4189" v:groupContext="shape" transform="translate(37.637,9.92045) rotate(45)">
				<title>Blad.4189</title>
				<path d="M0 53.23 L8.02 53.23" class="st2"/>
			</g>
			<g id="shape4190-73" v:mID="4190" v:groupContext="shape" transform="translate(37.637,12.7551) rotate(45)">
				<title>Blad.4190</title>
				<path d="M0 53.23 L4.01 53.23" class="st2"/>
			</g>
		</g>
		<g id="shape4191-76" v:mID="4191" v:groupContext="shape" transform="translate(339.031,-12.6472)">
			<title>Scharnier.4191</title>
			<ellipse cx="2.12598" cy="51.1007" rx="2.12598" ry="2.12598" class="st6"/>
		</g>
		<g id="shape4192-78" v:mID="4192" v:groupContext="shape" transform="translate(225.646,-12.6472)">
			<title>Scharnier.4192</title>
			<ellipse cx="2.12598" cy="51.1007" rx="2.12598" ry="2.12598" class="st6"/>
		</g>
		<g id="shape4232-80" v:mID="4232" v:groupContext="shape" transform="translate(174.545,38.4535) rotate(-90)">
			<title>Kracht</title>
			<path d="M7.55 53.23 L7.91 53.23 L28.35 53.23" class="st7"/>
		</g>
		<g id="shape4233-86" v:mID="4233" v:groupContext="shape" transform="translate(146.199,38.4535) rotate(-90)">
			<title>Kracht.4233</title>
			<path d="M7.55 53.23 L7.91 53.23 L28.35 53.23" class="st7"/>
		</g>
	</g>
</svg>
