<?xml version="1.0" encoding="UTF-8" standalone="no"?>
<!DOCTYPE svg PUBLIC "-//W3C//DTD SVG 1.1//EN" "http://www.w3.org/Graphics/SVG/1.1/DTD/svg11.dtd">
<!-- Gegenereerd door Microsoft Visio, SVG Export mechanism2.svg Pagina-1 -->
<svg xmlns="http://www.w3.org/2000/svg" xmlns:xlink="http://www.w3.org/1999/xlink" xmlns:ev="http://www.w3.org/2001/xml-events"
		xmlns:v="http://schemas.microsoft.com/visio/2003/SVGExtensions/" width="3.23876in" height="1.91724in"
		viewBox="0 0 233.191 138.041" xml:space="preserve" color-interpolation-filters="sRGB" class="st14">
	<v:documentProperties v:langID="1043" v:metric="true" v:viewMarkup="false"/>

	<style type="text/css">
	<![CDATA[
		.st1 {stroke:#000000;stroke-linecap:round;stroke-linejoin:round;stroke-width:2}
		.st2 {fill:#00cc99;stroke:#000000;stroke-linecap:round;stroke-linejoin:round;stroke-width:0.75}
		.st3 {stroke:#000000;stroke-linecap:round;stroke-linejoin:round;stroke-width:0.75}
		.st4 {fill:#ffffff;stroke:#000000;stroke-linecap:round;stroke-linejoin:round;stroke-width:0.75}
		.st5 {marker-start:url(#mrkr5-23);stroke:#800000;stroke-linecap:round;stroke-linejoin:round;stroke-width:2}
		.st6 {fill:#800000;fill-opacity:1;stroke:#800000;stroke-opacity:1;stroke-width:0.44247787610619}
		.st7 {stroke:#000000;stroke-linecap:round;stroke-linejoin:round;stroke-width:1}
		.st8 {stroke:#000000;stroke-linecap:round;stroke-linejoin:round;stroke-width:0.25}
		.st9 {marker-end:url(#mrkr4-58);marker-start:url(#mrkr4-56);stroke:#000000;stroke-linecap:round;stroke-linejoin:round;stroke-width:0.25}
		.st10 {fill:#000000;fill-opacity:1;stroke:#000000;stroke-opacity:1;stroke-width:0.1219512195122}
		.st11 {fill:none;stroke:none;stroke-linecap:round;stroke-linejoin:round;stroke-width:0.75}
		.st12 {fill:#000000;font-family:Times New Roman;font-size:1.00001em}
		.st13 {fill:none;stroke:none;stroke-linecap:round;stroke-linejoin:round;stroke-width:0.24}
		.st14 {fill:none;fill-rule:evenodd;font-size:12px;overflow:visible;stroke-linecap:square;stroke-miterlimit:3}
	]]>
	</style>

	<defs id="Markers">
		<g id="lend5">
			<path d="M 2 1 L 0 0 L 1.98117 -0.993387 C 1.67173 -0.364515 1.67301 0.372641 1.98465 1.00043 " style="stroke:none"/>
		</g>
		<marker id="mrkr5-23" class="st6" v:arrowType="5" v:arrowSize="2" v:setback="3.775" refX="3.775" orient="auto"
				markerUnits="strokeWidth" overflow="visible">
			<use xlink:href="#lend5" transform="scale(2.26) "/>
		</marker>
		<g id="lend4">
			<path d="M 2 1 L 0 0 L 2 -1 L 2 1 " style="stroke:none"/>
		</g>
		<marker id="mrkr4-56" class="st10" v:arrowType="4" v:arrowSize="1" v:setback="14.96" refX="14.96" orient="auto"
				markerUnits="strokeWidth" overflow="visible">
			<use xlink:href="#lend4" transform="scale(8.2) "/>
		</marker>
		<marker id="mrkr4-58" class="st10" v:arrowType="4" v:arrowSize="1" v:setback="16.4" refX="-16.4" orient="auto"
				markerUnits="strokeWidth" overflow="visible">
			<use xlink:href="#lend4" transform="scale(-8.2,-8.2) "/>
		</marker>
	</defs>
	<g v:mID="0" v:index="1" v:groupContext="foregroundPage">
		<title>Pagina-1</title>
		<v:pageProperties v:drawingScale="0.0393701" v:pageScale="0.0393701" v:drawingUnits="24" v:shadowOffsetX="8.50394"
				v:shadowOffsetY="-8.50394"/>
		<g id="shape548-1" v:mID="548" v:groupContext="shape" transform="translate(123.682,-42.8947)">
			<title>Ligger, 2 pt.548</title>
			<path d="M0 138.04 L99.21 138.04" class="st1"/>
		</g>
		<g id="group549-4" transform="translate(0.375,-31.5561)" v:mID="549" v:groupContext="group">
			<title>Scharnieroplegging.549</title>
			<g id="shape550-5" v:mID="550" v:groupContext="shape" transform="translate(2.83465,0)">
				<title>Blad.550</title>
				<path d="M0 138.04 L14.17 138.04 L7.09 126.7 L0 138.04 Z" class="st2"/>
			</g>
			<g id="shape551-7" v:mID="551" v:groupContext="shape" transform="translate(2.83465,276.082) rotate(180)">
				<title>Blad.551</title>
				<path d="M0 138.04 L2.83 138.04" class="st3"/>
			</g>
			<g id="shape552-10" v:mID="552" v:groupContext="shape" transform="translate(17.0079,0)">
				<title>Blad.552</title>
				<path d="M0 138.04 L2.83 138.04" class="st3"/>
			</g>
		</g>
		<g id="shape553-13" v:mID="553" v:groupContext="shape" transform="translate(10.2963,-42.8947)">
			<title>Ligger, 2 pt.553</title>
			<path d="M0 138.04 L113.39 138.04" class="st1"/>
		</g>
		<g id="shape554-16" v:mID="554" v:groupContext="shape" transform="translate(121.556,-40.7687)">
			<title>Scharnier.554</title>
			<ellipse cx="2.12598" cy="135.915" rx="2.12598" ry="2.12598" class="st4"/>
		</g>
		<g id="shape555-18" v:mID="555" v:groupContext="shape" transform="translate(-14.359,93.0204) rotate(-90)">
			<title>Kracht.555</title>
			<path d="M7.55 138.04 L7.91 138.04 L31.89 138.04" class="st5"/>
		</g>
		<g id="group556-24" transform="translate(212.973,-28.7215)" v:mID="556" v:groupContext="group">
			<title>Rol.556</title>
			<g id="group557-25" transform="translate(0.261477,-2.83465)" v:mID="557" v:groupContext="group">
				<title>Scharnier</title>
				<g id="shape558-26" v:mID="558" v:groupContext="shape" transform="translate(2.79729,0)">
					<title>Blad.558</title>
					<path d="M0 138.04 L13.99 138.04 L6.99 126.7 L0 138.04 Z" class="st2"/>
				</g>
				<g id="shape559-28" v:mID="559" v:groupContext="shape" transform="translate(2.79729,276.082) rotate(180)">
					<title>Blad.559</title>
					<path d="M0 138.04 L2.8 138.04" class="st3"/>
				</g>
				<g id="shape560-31" v:mID="560" v:groupContext="shape" transform="translate(16.7838,0)">
					<title>Blad.560</title>
					<path d="M0 138.04 L2.8 138.04" class="st3"/>
				</g>
			</g>
			<g id="shape561-34" v:mID="561" v:groupContext="shape">
				<title>Blad.561</title>
				<path d="M0 138.04 L19.84 138.04" class="st3"/>
			</g>
		</g>
		<g id="shape562-37" v:mID="562" v:groupContext="shape" transform="translate(219.204,38.4535) rotate(90)">
			<title>Vakwerk, 1 pt.562</title>
			<path d="M0 138.04 L56.69 138.04" class="st7"/>
		</g>
		<g id="shape563-40" v:mID="563" v:groupContext="shape" transform="translate(79.0364,-42.8947)">
			<title>Scharnier.563</title>
			<ellipse cx="2.12598" cy="135.915" rx="2.12598" ry="2.12598" class="st4"/>
		</g>
		<g id="group565-42" transform="translate(10.2963,-0.375)" v:mID="565" v:groupContext="group">
			<title>Maatlijn.565</title>
			<g id="group566-43" transform="translate(0,-9.92126)" v:mID="566" v:groupContext="group">
				<title>Maatlijn.31</title>
				<g id="shape567-44" v:mID="567" v:groupContext="shape" transform="translate(138.041,129.537) rotate(90)">
					<title>Blad.567</title>
					<path d="M0 138.04 L8.5 138.04" class="st8"/>
				</g>
				<g id="shape568-47" v:mID="568" v:groupContext="shape" transform="translate(208.907,129.537) rotate(90)">
					<title>Blad.568</title>
					<path d="M0 138.04 L8.5 138.04" class="st8"/>
				</g>
				<g id="shape569-50" v:mID="569" v:groupContext="shape" transform="translate(0,-4.25197)">
					<title>Blad.569</title>
					<path d="M3.74 138.04 L4.1 138.04 L66.77 138.04" class="st9"/>
				</g>
			</g>
			<g id="shape570-59" v:mID="570" v:groupContext="shape">
				<title>Blad.570</title>
				<desc>5 m</desc>
				<v:textBlock v:margins="rect(4,4,4,4)" v:tabSpace="42.5197"/>
				<v:textRect cx="35.4331" cy="130.954" width="70.87" height="14.1732"/>
				<rect x="0" y="123.868" width="70.8661" height="14.1732" class="st11"/>
				<text x="26.27" y="134.55" class="st12" v:langID="1043"><v:paragraph v:horizAlign="1"/><v:tabList/>5 m</text>			</g>
		</g>
		<g id="group571-62" transform="translate(81.1624,-0.375)" v:mID="571" v:groupContext="group">
			<title>Maatlijn.571</title>
			<g id="group572-63" transform="translate(0,-9.92126)" v:mID="572" v:groupContext="group">
				<title>Maatlijn.31</title>
				<g id="shape573-64" v:mID="573" v:groupContext="shape" transform="translate(138.041,129.537) rotate(90)">
					<title>Blad.573</title>
					<path d="M0 138.04 L8.5 138.04" class="st8"/>
				</g>
				<g id="shape574-67" v:mID="574" v:groupContext="shape" transform="translate(180.561,129.537) rotate(90)">
					<title>Blad.574</title>
					<path d="M0 138.04 L8.5 138.04" class="st8"/>
				</g>
				<g id="shape575-70" v:mID="575" v:groupContext="shape" transform="translate(0,-4.25197)">
					<title>Blad.575</title>
					<path d="M3.74 138.04 L4.1 138.04 L38.42 138.04" class="st9"/>
				</g>
			</g>
			<g id="shape576-77" v:mID="576" v:groupContext="shape">
				<title>Blad.576</title>
				<desc>3 m</desc>
				<v:textBlock v:margins="rect(4,4,4,4)" v:tabSpace="42.5197"/>
				<v:textRect cx="21.2599" cy="130.954" width="42.52" height="14.1732"/>
				<rect x="0" y="123.868" width="42.5197" height="14.1732" class="st11"/>
				<text x="12.09" y="134.55" class="st12" v:langID="1043"><v:paragraph v:horizAlign="1"/><v:tabList/>3 m</text>			</g>
		</g>
		<g id="group577-80" transform="translate(123.682,-0.375)" v:mID="577" v:groupContext="group">
			<title>Maatlijn.577</title>
			<g id="group578-81" transform="translate(0,-9.92126)" v:mID="578" v:groupContext="group">
				<title>Maatlijn.31</title>
				<g id="shape579-82" v:mID="579" v:groupContext="shape" transform="translate(138.041,129.537) rotate(90)">
					<title>Blad.579</title>
					<path d="M0 138.04 L8.5 138.04" class="st8"/>
				</g>
				<g id="shape580-85" v:mID="580" v:groupContext="shape" transform="translate(187.647,129.537) rotate(90)">
					<title>Blad.580</title>
					<path d="M0 138.04 L8.5 138.04" class="st8"/>
				</g>
				<g id="shape581-88" v:mID="581" v:groupContext="shape" transform="translate(0,-4.25197)">
					<title>Blad.581</title>
					<path d="M3.74 138.04 L4.1 138.04 L45.51 138.04" class="st9"/>
				</g>
			</g>
			<g id="shape582-95" v:mID="582" v:groupContext="shape">
				<title>Blad.582</title>
				<desc>3.5 m</desc>
				<v:textBlock v:margins="rect(4,4,4,4)" v:tabSpace="42.5197"/>
				<v:textRect cx="24.8031" cy="130.954" width="49.61" height="14.1732"/>
				<rect x="0" y="123.868" width="49.6063" height="14.1732" class="st11"/>
				<text x="11.14" y="134.55" class="st12" v:langID="1043"><v:paragraph v:horizAlign="1"/><v:tabList/>3.5 m</text>			</g>
		</g>
		<g id="group583-98" transform="translate(173.288,-0.375)" v:mID="583" v:groupContext="group">
			<title>Maatlijn.583</title>
			<g id="group584-99" transform="translate(0,-9.92126)" v:mID="584" v:groupContext="group">
				<title>Maatlijn.31</title>
				<g id="shape585-100" v:mID="585" v:groupContext="shape" transform="translate(138.041,129.537) rotate(90)">
					<title>Blad.585</title>
					<path d="M0 138.04 L8.5 138.04" class="st8"/>
				</g>
				<g id="shape586-103" v:mID="586" v:groupContext="shape" transform="translate(187.647,129.537) rotate(90)">
					<title>Blad.586</title>
					<path d="M0 138.04 L8.5 138.04" class="st8"/>
				</g>
				<g id="shape587-106" v:mID="587" v:groupContext="shape" transform="translate(0,-4.25197)">
					<title>Blad.587</title>
					<path d="M3.74 138.04 L4.1 138.04 L45.51 138.04" class="st9"/>
				</g>
			</g>
			<g id="shape588-113" v:mID="588" v:groupContext="shape">
				<title>Blad.588</title>
				<desc>3.5 m</desc>
				<v:textBlock v:margins="rect(4,4,4,4)" v:tabSpace="42.5197"/>
				<v:textRect cx="24.8031" cy="130.954" width="49.61" height="14.1732"/>
				<rect x="0" y="123.868" width="49.6063" height="14.1732" class="st11"/>
				<text x="11.14" y="134.55" class="st12" v:langID="1043"><v:paragraph v:horizAlign="1"/><v:tabList/>3.5 m</text>			</g>
		</g>
		<g id="shape589-116" v:mID="589" v:groupContext="shape" transform="translate(3.20965,-42.8947)">
			<title>Punt A.589</title>
			<desc>A</desc>
			<v:textBlock v:margins="rect(4,4,4,4)" v:tabSpace="42.5197"/>
			<v:textRect cx="7.08661" cy="130.954" width="14.18" height="14.1732"/>
			<rect x="0" y="123.868" width="14.1732" height="14.1732" class="st13"/>
			<text x="4" y="134.55" class="st12" v:langID="1043"><v:paragraph v:horizAlign="1"/><v:tabList/>A</text>		</g>
		<g id="shape590-119" v:mID="590" v:groupContext="shape" transform="translate(74.0758,-28.7215)">
			<title>Punt A.590</title>
			<desc>B</desc>
			<v:textBlock v:margins="rect(4,4,4,4)" v:tabSpace="42.5197"/>
			<v:textRect cx="7.08661" cy="130.954" width="14.18" height="14.1732"/>
			<rect x="0" y="123.868" width="14.1732" height="14.1732" class="st13"/>
			<text x="4" y="134.55" class="st12" v:langID="1043"><v:paragraph v:horizAlign="1"/><v:tabList/>B</text>		</g>
		<g id="shape591-122" v:mID="591" v:groupContext="shape" transform="translate(166.202,-28.7215)">
			<title>Punt A.591</title>
			<desc>C</desc>
			<v:textBlock v:margins="rect(4,4,4,4)" v:tabSpace="42.5197"/>
			<v:textRect cx="7.08661" cy="130.954" width="14.18" height="14.1732"/>
			<rect x="0" y="123.868" width="14.1732" height="14.1732" class="st13"/>
			<text x="4" y="134.55" class="st12" v:langID="1043"><v:paragraph v:horizAlign="1"/><v:tabList/>C</text>		</g>
		<g id="shape592-125" v:mID="592" v:groupContext="shape" transform="translate(215.808,-42.8947)">
			<title>Punt A.592</title>
			<desc>D</desc>
			<v:textBlock v:margins="rect(4,4,4,4)" v:tabSpace="42.5197"/>
			<v:textRect cx="7.08661" cy="130.954" width="14.18" height="14.1732"/>
			<rect x="0" y="123.868" width="14.1732" height="14.1732" class="st13"/>
			<text x="4" y="134.55" class="st12" v:langID="1043"><v:paragraph v:horizAlign="1"/><v:tabList/>D</text>		</g>
		<g id="shape593-128" v:mID="593" v:groupContext="shape" transform="translate(116.595,-25.8868)">
			<title>Punt A.593</title>
			<desc>S</desc>
			<v:textBlock v:margins="rect(4,4,4,4)" v:tabSpace="42.5197"/>
			<v:textRect cx="7.08661" cy="130.954" width="14.18" height="14.1732"/>
			<rect x="0" y="123.868" width="14.1732" height="14.1732" class="st13"/>
			<text x="4" y="134.55" class="st12" v:langID="1043"><v:paragraph v:horizAlign="1"/><v:tabList/>S</text>		</g>
		<g id="shape597-131" v:mID="597" v:groupContext="shape" transform="translate(109.509,-64.1545)">
			<title>Punt A.597</title>
			<desc>F</desc>
			<v:textBlock v:margins="rect(4,4,4,4)" v:tabSpace="42.5197"/>
			<v:textRect cx="7.08661" cy="130.954" width="14.18" height="14.1732"/>
			<rect x="0" y="123.868" width="14.1732" height="14.1732" class="st13"/>
			<text x="4" y="134.55" class="st12" v:langID="1043"><v:paragraph v:horizAlign="1"/><v:tabList/>F</text>		</g>
		<g id="shape598-134" v:mID="598" v:groupContext="shape" transform="translate(219.204,10.107) rotate(90)">
			<title>Kracht.598</title>
			<path d="M7.55 138.04 L7.91 138.04 L28.35 138.04" class="st5"/>
		</g>
		<g id="shape599-139" v:mID="599" v:groupContext="shape" transform="translate(171.871,-57.0679)">
			<title>Punt A.599</title>
			<desc>5000 N</desc>
			<v:textBlock v:margins="rect(4,4,4,4)" v:tabSpace="42.5197"/>
			<v:textRect cx="28.3465" cy="130.954" width="56.7" height="14.1732"/>
			<rect x="0" y="123.868" width="56.6929" height="14.1732" class="st13"/>
			<text x="10.51" y="134.55" class="st12" v:langID="1043"><v:paragraph v:horizAlign="1"/><v:tabList/>5000 N</text>		</g>
		<g id="shape600-142" v:mID="600" v:groupContext="shape" transform="translate(81.1624,-113.761)">
			<title>Punt A.600</title>
			<desc>5000 N</desc>
			<v:textBlock v:margins="rect(4,4,4,4)" v:tabSpace="42.5197"/>
			<v:textRect cx="28.3465" cy="130.954" width="56.7" height="14.1732"/>
			<rect x="0" y="123.868" width="56.6929" height="14.1732" class="st13"/>
			<text x="10.51" y="134.55" class="st12" v:langID="1043"><v:paragraph v:horizAlign="1"/><v:tabList/>5000 N</text>		</g>
		<g id="shape765-145" v:mID="765" v:groupContext="shape" transform="translate(81.1624,-99.5876)">
			<title>Blad.765</title>
			<path d="M0 138.04 L2.83 138.04 L2.83 123.87" class="st3"/>
		</g>
		<g id="shape766-148" v:mID="766" v:groupContext="shape" transform="translate(78.3277,-99.5876)">
			<title>Blad.766</title>
			<path d="M2.83 138.04 L0 138.04 L0 123.87" class="st3"/>
		</g>
		<g id="shape767-151" v:mID="767" v:groupContext="shape" transform="translate(311.329,63.9653) rotate(90)">
			<title>Kracht.767</title>
			<path d="M7.55 138.04 L7.91 138.04 L28.35 138.04" class="st5"/>
		</g>
		<g id="shape768-156" v:mID="768" v:groupContext="shape" transform="translate(35.2473,95.1464) rotate(-90)">
			<title>Blad.768</title>
			<path d="M0 138.04 L2.83 138.04" class="st3"/>
		</g>
		<g id="shape769-159" v:mID="769" v:groupContext="shape" transform="translate(170.454,-45.7293)">
			<title>Blad.769</title>
			<path d="M2.83 138.04 L0 138.04 L0 123.87" class="st3"/>
		</g>
		<g id="shape770-162" v:mID="770" v:groupContext="shape" transform="translate(173.288,-45.7293)">
			<title>Blad.770</title>
			<path d="M0 138.04 L2.83 138.04 L2.83 123.87" class="st3"/>
		</g>
	</g>
</svg>
