<?xml version="1.0" encoding="UTF-8" standalone="no"?>
<!DOCTYPE svg PUBLIC "-//W3C//DTD SVG 1.1//EN" "http://www.w3.org/Graphics/SVG/1.1/DTD/svg11.dtd">
<!-- Gegenereerd door Microsoft Visio, SVG Export fixed.svg Pagina-1 -->
<svg xmlns="http://www.w3.org/2000/svg" xmlns:xlink="http://www.w3.org/1999/xlink" xmlns:ev="http://www.w3.org/2001/xml-events"
		xmlns:v="http://schemas.microsoft.com/visio/2003/SVGExtensions/" width="0.373428in" height="0.410367in"
		viewBox="0 0 26.8868 29.5465" xml:space="preserve" color-interpolation-filters="sRGB" class="st4">
	<v:documentProperties v:langID="1043" v:metric="true" v:viewMarkup="false"/>

	<style type="text/css">
	<![CDATA[
		.st1 {stroke:#000000;stroke-linecap:round;stroke-linejoin:round;stroke-width:1.2}
		.st2 {stroke:#000000;stroke-linecap:round;stroke-linejoin:round;stroke-width:0.75}
		.st3 {stroke:#000000;stroke-linecap:round;stroke-linejoin:round;stroke-width:2}
		.st4 {fill:none;fill-rule:evenodd;font-size:12px;overflow:visible;stroke-linecap:square;stroke-miterlimit:3}
	]]>
	</style>

	<g v:mID="0" v:index="1" v:groupContext="foregroundPage">
		<title>Pagina-1</title>
		<v:pageProperties v:drawingScale="0.0393701" v:pageScale="0.0393701" v:drawingUnits="24" v:shadowOffsetX="8.50394"
				v:shadowOffsetY="-8.50394"/>
		<g id="group1-1" transform="translate(0.375,-0.599999)" v:mID="1" v:groupContext="group">
			<title>Inklemming</title>
			<g id="shape2-2" v:mID="2" v:groupContext="shape" transform="translate(40.885,1.2) rotate(90)">
				<title>Blad.2</title>
				<path d="M0 29.55 L28.35 29.55" class="st1"/>
			</g>
			<g id="shape3-5" v:mID="3" v:groupContext="shape" transform="translate(29.3964,-19.6925) rotate(45)">
				<title>Blad.3</title>
				<path d="M0 29.55 L4.01 29.55" class="st2"/>
			</g>
			<g id="shape4-8" v:mID="4" v:groupContext="shape" transform="translate(26.5618,-19.6925) rotate(45)">
				<title>Blad.4</title>
				<path d="M0 29.55 L8.02 29.55" class="st2"/>
			</g>
			<g id="shape5-11" v:mID="5" v:groupContext="shape" transform="translate(23.7271,-19.6925) rotate(45)">
				<title>Blad.5</title>
				<path d="M0 29.55 L12.03 29.55" class="st2"/>
			</g>
			<g id="shape6-14" v:mID="6" v:groupContext="shape" transform="translate(20.8925,-19.6925) rotate(45)">
				<title>Blad.6</title>
				<path d="M0 29.55 L16.04 29.55" class="st2"/>
			</g>
			<g id="shape7-17" v:mID="7" v:groupContext="shape" transform="translate(20.8925,-16.8579) rotate(45)">
				<title>Blad.7</title>
				<path d="M0 29.55 L16.04 29.55" class="st2"/>
			</g>
			<g id="shape8-20" v:mID="8" v:groupContext="shape" transform="translate(20.8925,-14.0232) rotate(45)">
				<title>Blad.8</title>
				<path d="M0 29.55 L16.04 29.55" class="st2"/>
			</g>
			<g id="shape9-23" v:mID="9" v:groupContext="shape" transform="translate(20.8925,-11.1886) rotate(45)">
				<title>Blad.9</title>
				<path d="M0 29.55 L16.04 29.55" class="st2"/>
			</g>
			<g id="shape10-26" v:mID="10" v:groupContext="shape" transform="translate(20.8925,-8.35392) rotate(45)">
				<title>Blad.10</title>
				<path d="M0 29.55 L16.04 29.55" class="st2"/>
			</g>
			<g id="shape11-29" v:mID="11" v:groupContext="shape" transform="translate(20.8925,-5.51927) rotate(45)">
				<title>Blad.11</title>
				<path d="M0 29.55 L16.04 29.55" class="st2"/>
			</g>
			<g id="shape12-32" v:mID="12" v:groupContext="shape" transform="translate(20.8925,-2.68463) rotate(45)">
				<title>Blad.12</title>
				<path d="M0 29.55 L16.04 29.55" class="st2"/>
			</g>
			<g id="shape13-35" v:mID="13" v:groupContext="shape" transform="translate(20.8925,0.15002) rotate(45)">
				<title>Blad.13</title>
				<path d="M0 29.55 L12.03 29.55" class="st2"/>
			</g>
			<g id="shape14-38" v:mID="14" v:groupContext="shape" transform="translate(20.8925,2.98467) rotate(45)">
				<title>Blad.14</title>
				<path d="M0 29.55 L8.02 29.55" class="st2"/>
			</g>
			<g id="shape15-41" v:mID="15" v:groupContext="shape" transform="translate(20.8925,5.81931) rotate(45)">
				<title>Blad.15</title>
				<path d="M0 29.55 L4.01 29.55" class="st2"/>
			</g>
		</g>
		<g id="shape16-44" v:mID="16" v:groupContext="shape" transform="translate(11.7136,-14.7732)">
			<title>Ligger, 2 pt</title>
			<path d="M0 29.55 L14.17 29.55" class="st3"/>
		</g>
	</g>
</svg>
