<?xml version="1.0" encoding="UTF-8" standalone="no"?>
<!DOCTYPE svg PUBLIC "-//W3C//DTD SVG 1.1//EN" "http://www.w3.org/Graphics/SVG/1.1/DTD/svg11.dtd">
<!-- Gegenereerd door Microsoft Visio, SVG Export M-lijn.svg Pagina-1 -->
<svg xmlns="http://www.w3.org/2000/svg" xmlns:xlink="http://www.w3.org/1999/xlink" xmlns:ev="http://www.w3.org/2001/xml-events"
		xmlns:v="http://schemas.microsoft.com/visio/2003/SVGExtensions/" width="5.93676in" height="1.51201in"
		viewBox="0 0 427.447 108.865" xml:space="preserve" color-interpolation-filters="sRGB" class="st6">
	<v:documentProperties v:langID="1043" v:metric="true" v:viewMarkup="false"/>

	<style type="text/css">
	<![CDATA[
		.st1 {stroke:#000000;stroke-linecap:round;stroke-linejoin:round;stroke-width:0.75}
		.st2 {stroke:#000000;stroke-linecap:round;stroke-linejoin:round;stroke-width:2.25}
		.st3 {stroke:#000000;stroke-linecap:round;stroke-linejoin:round;stroke-width:1.25}
		.st4 {fill:none;stroke:none;stroke-linecap:round;stroke-linejoin:round;stroke-width:0.75}
		.st5 {fill:#000000;font-family:Calibri;font-size:1.00001em}
		.st6 {fill:none;fill-rule:evenodd;font-size:12px;overflow:visible;stroke-linecap:square;stroke-miterlimit:3}
	]]>
	</style>

	<g v:mID="0" v:index="1" v:groupContext="foregroundPage">
		<title>Pagina-1</title>
		<v:pageProperties v:drawingScale="0.0393701" v:pageScale="0.0393701" v:drawingUnits="24" v:shadowOffsetX="8.50394"
				v:shadowOffsetY="-8.50394"/>
		<g id="shape2085-1" v:mID="2085" v:groupContext="shape" transform="translate(1.125,-37.6238)">
			<title>Ligger, 2 pt.2085</title>
			<path d="M0 108.86 L425.2 108.86" class="st1"/>
		</g>
		<g id="shape2087-4" v:mID="2087" v:groupContext="shape" transform="translate(341.282,-37.6238)">
			<title>Blad.2087</title>
			<path d="M85.04 108.86 L85.04 52.17 L0 108.86" class="st2"/>
		</g>
		<g id="shape2098-7" v:mID="2098" v:groupContext="shape" transform="translate(219.89,111.92) rotate(153.435)">
			<title>Blad.2098</title>
			<path d="M0 108.86 L126.77 108.86" class="st2"/>
		</g>
		<g id="shape2107-10" v:mID="2107" v:groupContext="shape" transform="translate(193.089,-51.1063) rotate(18.4349)">
			<title>Blad.2107</title>
			<path d="M0 69.21 C107.56 143.67 157.98 96.59 179.28 69.21" class="st2"/>
		</g>
		<g id="shape2109-13" v:mID="2109" v:groupContext="shape" transform="translate(1.125,-37.6238)">
			<title>Ligger, 2 pt.2109</title>
			<path d="M0 108.86 L56.69 108.86" class="st2"/>
		</g>
		<g id="shape2110-16" v:mID="2110" v:groupContext="shape" transform="translate(142.857,-51.7971)">
			<title>Momentvervormingsteken</title>
			<path d="M0 108.86 A14.1732 14.1732 0 0 1 14.17 94.69 A14.1732 14.1732 0 0 1 28.35 108.86" class="st3"/>
		</g>
		<g id="shape2111-19" v:mID="2111" v:groupContext="shape" transform="translate(291.676,187.193) rotate(180)">
			<title>Momentvervormingsteken.2111</title>
			<path d="M0 108.86 A7.08661 5.66929 0 0 1 7.09 103.2 A7.08661 5.66929 0 0 1 14.17 108.86" class="st3"/>
		</g>
		<g id="shape2112-22" v:mID="2112" v:groupContext="shape" transform="translate(390.889,-51.7971)">
			<title>Momentvervormingsteken.2112</title>
			<path d="M0 108.86 A14.1732 14.1732 0 0 1 14.17 94.69 A14.1732 14.1732 0 0 1 28.35 108.86" class="st3"/>
		</g>
		<g id="shape2113-25" v:mID="2113" v:groupContext="shape" transform="translate(142.857,-94.3167)">
			<title>Blad.2113</title>
			<desc>108 kNm</desc>
			<v:textBlock v:margins="rect(4,4,4,4)" v:tabSpace="42.5197"/>
			<v:textRect cx="28.3465" cy="101.778" width="56.7" height="14.1732"/>
			<rect x="0" y="94.6917" width="56.6929" height="14.1732" class="st4"/>
			<text x="6.47" y="105.38" class="st5" v:langID="1043"><v:paragraph v:horizAlign="1"/><v:tabList/>108 kNm</text>		</g>
		<g id="shape2114-28" v:mID="2114" v:groupContext="shape" transform="translate(369.629,-94.3167)">
			<title>Blad.2114</title>
			<desc>108 kNm</desc>
			<v:textBlock v:margins="rect(4,4,4,4)" v:tabSpace="42.5197"/>
			<v:textRect cx="28.3465" cy="101.778" width="56.7" height="14.1732"/>
			<rect x="0" y="94.6917" width="56.6929" height="14.1732" class="st4"/>
			<text x="6.47" y="105.38" class="st5" v:langID="1043"><v:paragraph v:horizAlign="1"/><v:tabList/>108 kNm</text>		</g>
		<g id="shape2115-31" v:mID="2115" v:groupContext="shape" transform="translate(256.243,-3.60807)">
			<title>Blad.2115</title>
			<desc>36 kNm</desc>
			<v:textBlock v:margins="rect(4,4,4,4)" v:tabSpace="42.5197"/>
			<v:textRect cx="28.3465" cy="101.778" width="56.7" height="14.1732"/>
			<rect x="0" y="94.6917" width="56.6929" height="14.1732" class="st4"/>
			<text x="9.51" y="105.38" class="st5" v:langID="1043"><v:paragraph v:horizAlign="1"/><v:tabList/>36 kNm</text>		</g>
	</g>
</svg>
