<?xml version="1.0" encoding="UTF-8" standalone="no"?>
<!DOCTYPE svg PUBLIC "-//W3C//DTD SVG 1.1//EN" "http://www.w3.org/Graphics/SVG/1.1/DTD/svg11.dtd">
<!-- Gegenereerd door Microsoft Visio, SVG Export mech_3.svg Pagina-1 -->
<svg xmlns="http://www.w3.org/2000/svg" xmlns:xlink="http://www.w3.org/1999/xlink" xmlns:ev="http://www.w3.org/2001/xml-events"
		xmlns:v="http://schemas.microsoft.com/visio/2003/SVGExtensions/" width="6.08209in" height="1.38837in"
		viewBox="0 0 437.91 99.9626" xml:space="preserve" color-interpolation-filters="sRGB" class="st26">
	<v:documentProperties v:langID="1043" v:metric="true" v:viewMarkup="false"/>

	<style type="text/css">
	<![CDATA[
		.st1 {marker-end:url(#mrkr1-6);stroke:#000000;stroke-linecap:butt;stroke-width:3}
		.st2 {fill:#000000;fill-opacity:1;stroke:#000000;stroke-opacity:1;stroke-width:0.67567567567568}
		.st3 {stroke:#000000;stroke-linecap:round;stroke-linejoin:round;stroke-width:2}
		.st4 {stroke:#000000;stroke-dasharray:5.25,3.75;stroke-linecap:round;stroke-linejoin:round;stroke-width:0.75}
		.st5 {fill:#00cc99;stroke:#000000;stroke-linecap:round;stroke-linejoin:round;stroke-width:0.75}
		.st6 {stroke:#000000;stroke-linecap:round;stroke-linejoin:round;stroke-width:0.75}
		.st7 {stroke:#000000;stroke-linecap:round;stroke-linejoin:round;stroke-width:4.5}
		.st8 {stroke:#000000;stroke-linecap:round;stroke-linejoin:round;stroke-width:1.2}
		.st9 {fill:#ffffff;stroke:#000000;stroke-linecap:round;stroke-linejoin:round;stroke-width:0.75}
		.st10 {stroke:#000000;stroke-linecap:round;stroke-linejoin:round;stroke-width:0.25}
		.st11 {marker-end:url(#mrkr4-109);marker-start:url(#mrkr4-107);stroke:#000000;stroke-linecap:round;stroke-linejoin:round;stroke-width:0.25}
		.st12 {fill:#000000;fill-opacity:1;stroke:#000000;stroke-opacity:1;stroke-width:0.1219512195122}
		.st13 {fill:none;stroke:none;stroke-linecap:round;stroke-linejoin:round;stroke-width:0.75}
		.st14 {fill:#000000;font-family:Times New Roman;font-size:1.00001em}
		.st15 {fill:none;stroke:none;stroke-linecap:round;stroke-linejoin:round;stroke-width:0.24}
		.st16 {fill:#000000;font-family:Times New Roman;font-size:1.00001em;font-style:italic}
		.st17 {marker-end:url(#mrkr5-140);stroke:#800000;stroke-linecap:round;stroke-linejoin:round;stroke-width:1.2}
		.st18 {fill:#800000;fill-opacity:1;stroke:#800000;stroke-opacity:1;stroke-width:0.45454545454546}
		.st19 {stroke:#800000;stroke-linecap:round;stroke-linejoin:round;stroke-width:1.2}
		.st20 {fill:#800000;stroke:#ffffff;stroke-linecap:round;stroke-linejoin:round;stroke-width:0.75}
		.st21 {baseline-shift:-32.4941%;font-size:0.649882em;font-style:normal}
		.st22 {baseline-shift:-21.6624%;font-size:0.433247em;font-style:normal}
		.st23 {baseline-shift:-32.4941%;font-size:0.649882em}
		.st24 {marker-end:url(#mrkr5-234);stroke:#800000;stroke-linecap:round;stroke-linejoin:round;stroke-width:2}
		.st25 {fill:#800000;fill-opacity:1;stroke:#800000;stroke-opacity:1;stroke-width:0.44247787610619}
		.st26 {fill:none;fill-rule:evenodd;font-size:12px;overflow:visible;stroke-linecap:square;stroke-miterlimit:3}
	]]>
	</style>

	<defs id="Markers">
		<g id="lend1">
			<path d="M 1 -1 L 0 0 L 1 1 " style="stroke-linecap:round;stroke-linejoin:round;fill:none"/>
		</g>
		<marker id="mrkr1-6" class="st2" v:arrowType="1" v:arrowSize="0" orient="auto" markerUnits="strokeWidth" overflow="visible">
			<use xlink:href="#lend1" transform="scale(-1.48,-1.48) "/>
		</marker>
		<g id="lend4">
			<path d="M 2 1 L 0 0 L 2 -1 L 2 1 " style="stroke:none"/>
		</g>
		<marker id="mrkr4-107" class="st12" v:arrowType="4" v:arrowSize="1" v:setback="14.96" refX="14.96" orient="auto"
				markerUnits="strokeWidth" overflow="visible">
			<use xlink:href="#lend4" transform="scale(8.2) "/>
		</marker>
		<marker id="mrkr4-109" class="st12" v:arrowType="4" v:arrowSize="1" v:setback="16.4" refX="-16.4" orient="auto"
				markerUnits="strokeWidth" overflow="visible">
			<use xlink:href="#lend4" transform="scale(-8.2,-8.2) "/>
		</marker>
		<g id="lend5">
			<path d="M 2 1 L 0 0 L 1.98117 -0.993387 C 1.67173 -0.364515 1.67301 0.372641 1.98465 1.00043 " style="stroke:none"/>
		</g>
		<marker id="mrkr5-140" class="st18" v:arrowType="5" v:arrowSize="0" v:setback="3.85" refX="-3.85" orient="auto"
				markerUnits="strokeWidth" overflow="visible">
			<use xlink:href="#lend5" transform="scale(-2.2,-2.2) "/>
		</marker>
		<marker id="mrkr5-234" class="st25" v:arrowType="5" v:arrowSize="2" v:setback="3.775" refX="-3.775" orient="auto"
				markerUnits="strokeWidth" overflow="visible">
			<use xlink:href="#lend5" transform="scale(-2.26,-2.26) "/>
		</marker>
	</defs>
	<g v:mID="0" v:index="1" v:groupContext="foregroundPage">
		<title>Pagina-1</title>
		<v:pageProperties v:drawingScale="0.0393701" v:pageScale="0.0393701" v:drawingUnits="24" v:shadowOffsetX="8.50394"
				v:shadowOffsetY="-8.50394"/>
		<g id="shape1942-1" v:mID="1942" v:groupContext="shape" transform="translate(327.734,28.7215) rotate(90)">
			<title>verplaatsing.1942</title>
			<path d="M0 99.96 L28.35 99.96" class="st1"/>
		</g>
		<g id="shape1943-7" v:mID="1943" v:groupContext="shape" transform="translate(203.527,-39.9101) rotate(-14.0362)">
			<title>Ligger, 2 pt.1943</title>
			<path d="M0 99.96 L116.88 99.96" class="st3"/>
		</g>
		<g id="shape1944-10" v:mID="1944" v:groupContext="shape" transform="translate(341.158,-71.2411)">
			<title>Ligger, 2 pt.1944</title>
			<path d="M0 99.96 L85.04 99.96" class="st3"/>
		</g>
		<g id="shape1946-13" v:mID="1946" v:groupContext="shape" transform="translate(171.079,-71.2411)">
			<title>Ligger, 2 pt.1946</title>
			<path d="M0 99.96 L255.12 99.96" class="st4"/>
		</g>
		<g id="group1947-16" transform="translate(47.7716,-57.0679)" v:mID="1947" v:groupContext="group">
			<title>Rol.1947</title>
			<g id="group1948-17" transform="translate(0.261477,-2.83465)" v:mID="1948" v:groupContext="group">
				<title>Scharnier</title>
				<g id="shape1949-18" v:mID="1949" v:groupContext="shape" transform="translate(2.79729,1.42109E-14)">
					<title>Blad.1949</title>
					<path d="M0 99.96 L13.99 99.96 L6.99 88.62 L0 99.96 Z" class="st5"/>
				</g>
				<g id="shape1950-20" v:mID="1950" v:groupContext="shape" transform="translate(2.79729,199.925) rotate(180)">
					<title>Blad.1950</title>
					<path d="M0 99.96 L2.8 99.96" class="st6"/>
				</g>
				<g id="shape1951-23" v:mID="1951" v:groupContext="shape" transform="translate(16.7838,1.42109E-14)">
					<title>Blad.1951</title>
					<path d="M0 99.96 L2.8 99.96" class="st6"/>
				</g>
			</g>
			<g id="shape1952-26" v:mID="1952" v:groupContext="shape">
				<title>Blad.1952</title>
				<path d="M0 99.96 L19.84 99.96" class="st6"/>
			</g>
		</g>
		<g id="group1953-29" transform="translate(161.157,-57.0679)" v:mID="1953" v:groupContext="group">
			<title>Rol.1953</title>
			<g id="group1954-30" transform="translate(0.261477,-2.83465)" v:mID="1954" v:groupContext="group">
				<title>Scharnier</title>
				<g id="shape1955-31" v:mID="1955" v:groupContext="shape" transform="translate(2.79729,1.42109E-14)">
					<title>Blad.1955</title>
					<path d="M0 99.96 L13.99 99.96 L6.99 88.62 L0 99.96 Z" class="st5"/>
				</g>
				<g id="shape1956-33" v:mID="1956" v:groupContext="shape" transform="translate(2.79729,199.925) rotate(180)">
					<title>Blad.1956</title>
					<path d="M0 99.96 L2.8 99.96" class="st6"/>
				</g>
				<g id="shape1957-36" v:mID="1957" v:groupContext="shape" transform="translate(16.7838,1.42109E-14)">
					<title>Blad.1957</title>
					<path d="M0 99.96 L2.8 99.96" class="st6"/>
				</g>
			</g>
			<g id="shape1958-39" v:mID="1958" v:groupContext="shape">
				<title>Blad.1958</title>
				<path d="M0 99.96 L19.84 99.96" class="st6"/>
			</g>
		</g>
		<g id="shape1959-42" v:mID="1959" v:groupContext="shape" transform="translate(215.783,-60.6878) rotate(26.565)">
			<title>Ligger, 2 pt.1959</title>
			<path d="M0 99.96 L63.38 99.96" class="st7"/>
		</g>
		<g id="shape1960-45" v:mID="1960" v:groupContext="shape" transform="translate(1.00001,-71.2411) rotate(4.01565E-06)">
			<title>Ligger, 2 pt.1960</title>
			<path d="M0 99.96 L170.08 99.96" class="st3"/>
		</g>
		<g id="group1961-48" transform="translate(437.535,114.511) rotate(180)" v:mID="1961" v:groupContext="group">
			<title>Inklemming.1961</title>
			<g id="shape1962-49" v:mID="1962" v:groupContext="shape" transform="translate(111.301,71.6161) rotate(90)">
				<title>Blad.1962</title>
				<path d="M0 99.96 L28.35 99.96" class="st8"/>
			</g>
			<g id="shape1963-52" v:mID="1963" v:groupContext="shape" transform="translate(79.1882,0.931911) rotate(45)">
				<title>Blad.1963</title>
				<path d="M0 99.96 L4.01 99.96" class="st6"/>
			</g>
			<g id="shape1964-55" v:mID="1964" v:groupContext="shape" transform="translate(76.3535,0.931911) rotate(45)">
				<title>Blad.1964</title>
				<path d="M0 99.96 L8.02 99.96" class="st6"/>
			</g>
			<g id="shape1965-58" v:mID="1965" v:groupContext="shape" transform="translate(73.5189,0.931911) rotate(45)">
				<title>Blad.1965</title>
				<path d="M0 99.96 L12.03 99.96" class="st6"/>
			</g>
			<g id="shape1966-61" v:mID="1966" v:groupContext="shape" transform="translate(70.6842,0.931911) rotate(45)">
				<title>Blad.1966</title>
				<path d="M0 99.96 L16.04 99.96" class="st6"/>
			</g>
			<g id="shape1967-64" v:mID="1967" v:groupContext="shape" transform="translate(70.6842,3.76656) rotate(45)">
				<title>Blad.1967</title>
				<path d="M0 99.96 L16.04 99.96" class="st6"/>
			</g>
			<g id="shape1968-67" v:mID="1968" v:groupContext="shape" transform="translate(70.6842,6.6012) rotate(45)">
				<title>Blad.1968</title>
				<path d="M0 99.96 L16.04 99.96" class="st6"/>
			</g>
			<g id="shape1969-70" v:mID="1969" v:groupContext="shape" transform="translate(70.6842,9.43585) rotate(45)">
				<title>Blad.1969</title>
				<path d="M0 99.96 L16.04 99.96" class="st6"/>
			</g>
			<g id="shape1970-73" v:mID="1970" v:groupContext="shape" transform="translate(70.6842,12.2705) rotate(45)">
				<title>Blad.1970</title>
				<path d="M0 99.96 L16.04 99.96" class="st6"/>
			</g>
			<g id="shape1971-76" v:mID="1971" v:groupContext="shape" transform="translate(70.6842,15.1051) rotate(45)">
				<title>Blad.1971</title>
				<path d="M0 99.96 L16.04 99.96" class="st6"/>
			</g>
			<g id="shape1972-79" v:mID="1972" v:groupContext="shape" transform="translate(70.6842,17.9398) rotate(45)">
				<title>Blad.1972</title>
				<path d="M0 99.96 L16.04 99.96" class="st6"/>
			</g>
			<g id="shape1973-82" v:mID="1973" v:groupContext="shape" transform="translate(70.6842,20.7744) rotate(45)">
				<title>Blad.1973</title>
				<path d="M0 99.96 L12.03 99.96" class="st6"/>
			</g>
			<g id="shape1974-85" v:mID="1974" v:groupContext="shape" transform="translate(70.6842,23.6091) rotate(45)">
				<title>Blad.1974</title>
				<path d="M0 99.96 L8.02 99.96" class="st6"/>
			</g>
			<g id="shape1975-88" v:mID="1975" v:groupContext="shape" transform="translate(70.6842,26.4437) rotate(45)">
				<title>Blad.1975</title>
				<path d="M0 99.96 L4.01 99.96" class="st6"/>
			</g>
		</g>
		<g id="shape1977-91" v:mID="1977" v:groupContext="shape" transform="translate(225.646,-69.1152)">
			<title>Scharnier.1977</title>
			<ellipse cx="2.12598" cy="97.8366" rx="2.12598" ry="2.12598" class="st9"/>
		</g>
		<g id="group1990-93" transform="translate(227.772,-0.375)" v:mID="1990" v:groupContext="group">
			<title>Maatlijn.1990</title>
			<g id="group1991-94" transform="translate(0,-9.92126)" v:mID="1991" v:groupContext="group">
				<title>Maatlijn.31</title>
				<g id="shape1992-95" v:mID="1992" v:groupContext="shape" transform="translate(99.9626,91.4587) rotate(90)">
					<title>Blad.1992</title>
					<path d="M0 99.96 L8.5 99.96" class="st10"/>
				</g>
				<g id="shape1993-98" v:mID="1993" v:groupContext="shape" transform="translate(213.348,91.4587) rotate(90)">
					<title>Blad.1993</title>
					<path d="M0 99.96 L8.5 99.96" class="st10"/>
				</g>
				<g id="shape1994-101" v:mID="1994" v:groupContext="shape" transform="translate(0,-4.25197)">
					<title>Blad.1994</title>
					<path d="M3.74 99.96 L4.1 99.96 L109.29 99.96" class="st11"/>
				</g>
			</g>
			<g id="shape1995-110" v:mID="1995" v:groupContext="shape">
				<title>Blad.1995</title>
				<desc>4 m</desc>
				<v:textBlock v:margins="rect(4,4,4,4)" v:tabSpace="42.5197"/>
				<v:textRect cx="56.6929" cy="92.876" width="113.39" height="14.1732"/>
				<rect x="0" y="85.7894" width="113.386" height="14.1732" class="st13"/>
				<text x="47.53" y="96.48" class="st14" v:langID="1043"><v:paragraph v:horizAlign="1"/><v:tabList/>4 m</text>			</g>
		</g>
		<g id="group1996-113" transform="translate(171.079,-0.375)" v:mID="1996" v:groupContext="group">
			<title>Maatlijn.1996</title>
			<g id="group1997-114" transform="translate(0,-9.92126)" v:mID="1997" v:groupContext="group">
				<title>Maatlijn.31</title>
				<g id="shape1998-115" v:mID="1998" v:groupContext="shape" transform="translate(99.9626,91.4587) rotate(90)">
					<title>Blad.1998</title>
					<path d="M0 99.96 L8.5 99.96" class="st10"/>
				</g>
				<g id="shape1999-118" v:mID="1999" v:groupContext="shape" transform="translate(156.656,91.4587) rotate(90)">
					<title>Blad.1999</title>
					<path d="M0 99.96 L8.5 99.96" class="st10"/>
				</g>
				<g id="shape2000-121" v:mID="2000" v:groupContext="shape" transform="translate(0,-4.25197)">
					<title>Blad.2000</title>
					<path d="M3.74 99.96 L4.1 99.96 L52.59 99.96" class="st11"/>
				</g>
			</g>
			<g id="shape2001-128" v:mID="2001" v:groupContext="shape">
				<title>Blad.2001</title>
				<desc>2 m</desc>
				<v:textBlock v:margins="rect(4,4,4,4)" v:tabSpace="42.5197"/>
				<v:textRect cx="28.3465" cy="92.876" width="56.7" height="14.1732"/>
				<rect x="0" y="85.7894" width="56.6929" height="14.1732" class="st13"/>
				<text x="19.18" y="96.48" class="st14" v:langID="1043"><v:paragraph v:horizAlign="1"/><v:tabList/>2 m</text>			</g>
		</g>
		<g id="group2008-131" transform="translate(171.079,-71.2411)" v:mID="2008" v:groupContext="group">
			<title>qz-last constant.2008</title>
			<g id="shape2009-132" v:mID="2009" v:groupContext="shape" transform="translate(0,-14.1732)">
				<title>A.58</title>
				<desc>q</desc>
				<v:textBlock v:margins="rect(4,4,4,4)" v:tabSpace="42.5197"/>
				<v:textRect cx="85.0394" cy="92.876" width="170.08" height="14.1732"/>
				<rect x="0" y="85.7894" width="170.079" height="14.1732" class="st15"/>
				<text x="82.04" y="96.48" class="st16" v:langID="1043"><v:paragraph v:horizAlign="1"/><v:tabList/>q</text>			</g>
			<g id="shape2010-135" v:mID="2010" v:groupContext="shape" transform="translate(99.9626,85.7894) rotate(90)">
				<title>Kracht.5</title>
				<path d="M0 99.96 L9.55 99.96" class="st17"/>
			</g>
			<g id="shape2011-141" v:mID="2011" v:groupContext="shape" transform="translate(0,-14.1732)">
				<title>Blad.2011</title>
				<path d="M0 99.96 L170.08 99.96" class="st19"/>
			</g>
			<g id="shape2012-144" v:mID="2012" v:groupContext="shape" transform="translate(133.978,85.7894) rotate(90)">
				<title>Kracht.4</title>
				<path d="M0 99.96 L9.55 99.96" class="st17"/>
			</g>
			<g id="shape2013-149" v:mID="2013" v:groupContext="shape" transform="translate(167.994,85.7894) rotate(90)">
				<title>Kracht.9</title>
				<path d="M0 99.96 L9.55 99.96" class="st17"/>
			</g>
			<g id="shape2014-154" v:mID="2014" v:groupContext="shape" transform="translate(270.041,85.7894) rotate(90)">
				<title>Kracht.6</title>
				<path d="M0 99.96 L9.55 99.96" class="st17"/>
			</g>
			<g id="shape2015-159" v:mID="2015" v:groupContext="shape" transform="translate(236.026,85.7894) rotate(90)">
				<title>Kracht.37</title>
				<path d="M0 99.96 L9.55 99.96" class="st17"/>
			</g>
			<g id="shape2016-164" v:mID="2016" v:groupContext="shape" transform="translate(202.01,85.7894) rotate(90)">
				<title>Kracht.7</title>
				<path d="M0 99.96 L9.55 99.96" class="st17"/>
			</g>
		</g>
		<g id="shape2017-169" v:mID="2017" v:groupContext="shape" transform="translate(166.118,-69.1152)">
			<title>Scharnier.2017</title>
			<ellipse cx="2.12598" cy="97.8366" rx="2.12598" ry="2.12598" class="st20"/>
		</g>
		<g id="shape2018-171" v:mID="2018" v:groupContext="shape"
				transform="translate(199.424,40.9356) rotate(82.9816) scale(1,-1)">
			<title>Hoekverdraaiing.2018</title>
			<path d="M0 99.96 C2.81 99.62 7.03 99.1 10.39 99.96" class="st1"/>
		</g>
		<g id="shape2019-176" v:mID="2019" v:groupContext="shape" transform="translate(295.803,-48.564)">
			<title>Blad.2019</title>
			<desc>δφS1S2</desc>
			<v:textBlock v:margins="rect(4,4,4,4)" v:tabSpace="42.5197"/>
			<v:textRect cx="21.2598" cy="92.876" width="42.52" height="14.1732"/>
			<rect x="0" y="85.7894" width="42.5197" height="14.1732" class="st13"/>
			<text x="8.21" y="96.48" class="st16" v:langID="1043"><v:paragraph v:horizAlign="1"/><v:tabList/>δφ<tspan dy="-0.279em"
						class="st21" v:baseFontSize="12">S</tspan><tspan dy="0.14em" class="st22" v:baseFontSize="8">1</tspan><tspan
						dy="-0.093em" class="st21" v:baseFontSize="12">S</tspan><tspan dy="0.14em" class="st22" v:baseFontSize="8">2</tspan></text>		</g>
		<g id="shape2020-183" v:mID="2020" v:groupContext="shape" transform="translate(185.252,-42.8947)">
			<title>Blad.2020</title>
			<desc>δwq1</desc>
			<v:textBlock v:margins="rect(4,4,4,4)" v:tabSpace="42.5197"/>
			<v:textRect cx="14.1732" cy="92.876" width="28.35" height="14.1732"/>
			<rect x="0" y="85.7894" width="28.3465" height="14.1732" class="st13"/>
			<text x="4.13" y="96.48" class="st16" v:langID="1043"><v:paragraph v:horizAlign="1"/><v:tabList/>δw<tspan dy="-0.279em"
						class="st23" v:baseFontSize="12">q</tspan><tspan dy="0.14em" class="st22" v:baseFontSize="8">1</tspan></text>		</g>
		<g id="shape2021-188" v:mID="2021" v:groupContext="shape" transform="translate(171.209,-71.2411)">
			<title>Blad.2021</title>
			<path d="M0 99.96 L19.84 99.96" class="st6"/>
		</g>
		<g id="shape2022-191" v:mID="2022" v:groupContext="shape" transform="translate(341.158,128.684) rotate(180)">
			<title>Blad.2022</title>
			<path d="M0 99.96 L42.52 99.96" class="st6"/>
		</g>
		<g id="shape2024-194" v:mID="2024" v:groupContext="shape" transform="translate(365.402,125.699) rotate(165.964)">
			<title>Blad.2024</title>
			<path d="M0 99.96 L42.52 99.96" class="st6"/>
		</g>
		<g id="shape2025-197" v:mID="2025" v:groupContext="shape"
				transform="translate(94.3025,5.88201) rotate(-76.7175) scale(-1,1)">
			<title>Hoekverdraaiing.2025</title>
			<path d="M0 99.41 C3.31 100.19 5.65 100.16 9.12 99.41" class="st1"/>
		</g>
		<g id="shape2030-202" v:mID="2030" v:groupContext="shape" transform="translate(152.654,-42.8947)">
			<title>Blad.2030</title>
			<desc>δφS1S2</desc>
			<v:textBlock v:margins="rect(4,4,4,4)" v:tabSpace="42.5197"/>
			<v:textRect cx="21.2598" cy="92.876" width="42.52" height="14.1732"/>
			<rect x="0" y="85.7894" width="42.5197" height="14.1732" class="st13"/>
			<text x="8.21" y="96.48" class="st16" v:langID="1043"><v:paragraph v:horizAlign="1"/><v:tabList/>δφ<tspan dy="-0.279em"
						class="st21" v:baseFontSize="12">S</tspan><tspan dy="0.14em" class="st22" v:baseFontSize="8">1</tspan><tspan
						dy="-0.093em" class="st21" v:baseFontSize="12">S</tspan><tspan dy="0.14em" class="st22" v:baseFontSize="8">2</tspan></text>		</g>
		<g id="shape2031-209" v:mID="2031" v:groupContext="shape" transform="translate(299.388,28.7215) rotate(90)">
			<title>verplaatsing.2031</title>
			<path d="M0 99.96 L14.17 99.96" class="st1"/>
		</g>
		<g id="shape2032-214" v:mID="2032" v:groupContext="shape" transform="translate(384.427,28.7215) rotate(90)">
			<title>verplaatsing.2032</title>
			<path d="M0 99.96 L14.17 99.96" class="st1"/>
		</g>
		<g id="shape2033-219" v:mID="2033" v:groupContext="shape" transform="translate(270.291,-42.8947)">
			<title>Blad.2033</title>
			<desc>δwq2</desc>
			<v:textBlock v:margins="rect(4,4,4,4)" v:tabSpace="42.5197"/>
			<v:textRect cx="14.1732" cy="92.876" width="28.35" height="14.1732"/>
			<rect x="0" y="85.7894" width="28.3465" height="14.1732" class="st13"/>
			<text x="4.13" y="96.48" class="st16" v:langID="1043"><v:paragraph v:horizAlign="1"/><v:tabList/>δw<tspan dy="-0.279em"
						class="st23" v:baseFontSize="12">q</tspan><tspan dy="0.14em" class="st22" v:baseFontSize="8">2</tspan></text>		</g>
		<g id="shape2034-224" v:mID="2034" v:groupContext="shape" transform="translate(210.764,-28.7215)">
			<title>Blad.2034</title>
			<desc>δwS1</desc>
			<v:textBlock v:margins="rect(4,4,4,4)" v:tabSpace="42.5197"/>
			<v:textRect cx="17.0079" cy="92.876" width="34.02" height="14.1732"/>
			<rect x="0" y="85.7894" width="34.0157" height="14.1732" class="st13"/>
			<text x="6.75" y="96.48" class="st16" v:langID="1043"><v:paragraph v:horizAlign="1"/><v:tabList/>δw<tspan dy="-0.279em"
						class="st21" v:baseFontSize="12">S</tspan><tspan dy="0.14em" class="st22" v:baseFontSize="8">1</tspan></text>		</g>
		<g id="shape2035-229" v:mID="2035" v:groupContext="shape" transform="translate(86.7067,14.5482) rotate(-90) scale(-1,1)">
			<title>Moment.2035</title>
			<path d="M-0 99.96 A14.1732 14.1732 0 0 1 14.17 85.79 A14.1732 14.1732 0 0 1 26.14 92.37 L26.24 92.71" class="st24"/>
		</g>
		<g id="shape2036-235" v:mID="2036" v:groupContext="shape" transform="translate(249.781,14.5482) rotate(90)">
			<title>Moment.2036</title>
			<path d="M-0 99.96 A14.1732 14.1732 0 0 1 14.17 85.79 A14.1732 14.1732 0 0 1 26.14 92.37 L26.24 92.71" class="st24"/>
		</g>
		<g id="shape2037-240" v:mID="2037" v:groupContext="shape" transform="translate(225.646,-40.7687)">
			<title>Scharnier.2037</title>
			<ellipse cx="2.12598" cy="97.8366" rx="2.12598" ry="2.12598" class="st9"/>
		</g>
		<g id="shape2040-242" v:mID="2040" v:groupContext="shape" transform="translate(142.732,-85.4144)">
			<title>Blad.2040</title>
			<desc>108 kNm</desc>
			<v:textBlock v:margins="rect(4,4,4,4)" v:tabSpace="42.5197"/>
			<v:textRect cx="28.3465" cy="92.876" width="56.7" height="14.1732"/>
			<rect x="0" y="85.7894" width="56.6929" height="14.1732" class="st13"/>
			<text x="5.85" y="96.48" class="st14" v:langID="1043"><v:paragraph v:horizAlign="1"/><v:tabList/>108 kNm</text>		</g>
		<g id="shape1976-245" v:mID="1976" v:groupContext="shape" transform="translate(339.031,-69.1152)">
			<title>Scharnier.1976</title>
			<ellipse cx="2.12598" cy="97.8366" rx="2.12598" ry="2.12598" class="st9"/>
		</g>
	</g>
</svg>
