<?xml version="1.0" encoding="UTF-8" standalone="no"?>
<!DOCTYPE svg PUBLIC "-//W3C//DTD SVG 1.1//EN" "http://www.w3.org/Graphics/SVG/1.1/DTD/svg11.dtd">
<!-- Gegenereerd door Microsoft Visio, SVG Export mech_2.svg Pagina-1 -->
<svg xmlns="http://www.w3.org/2000/svg" xmlns:xlink="http://www.w3.org/1999/xlink" xmlns:ev="http://www.w3.org/2001/xml-events"
		xmlns:v="http://schemas.microsoft.com/visio/2003/SVGExtensions/" width="6.08209in" height="1.38837in"
		viewBox="0 0 437.91 99.9626" xml:space="preserve" color-interpolation-filters="sRGB" class="st27">
	<v:documentProperties v:langID="1043" v:metric="true" v:viewMarkup="false"/>

	<style type="text/css">
	<![CDATA[
		.st1 {stroke:#000000;stroke-linecap:round;stroke-linejoin:round;stroke-width:0.75}
		.st2 {stroke:#000000;stroke-linecap:round;stroke-linejoin:round;stroke-width:2}
		.st3 {marker-end:url(#mrkr1-12);stroke:#000000;stroke-linecap:butt;stroke-width:3}
		.st4 {fill:#000000;fill-opacity:1;stroke:#000000;stroke-opacity:1;stroke-width:0.67567567567568}
		.st5 {stroke:#000000;stroke-dasharray:5.25,3.75;stroke-linecap:round;stroke-linejoin:round;stroke-width:0.75}
		.st6 {fill:#00cc99;stroke:#000000;stroke-linecap:round;stroke-linejoin:round;stroke-width:0.75}
		.st7 {stroke:#000000;stroke-linecap:round;stroke-linejoin:round;stroke-width:4.5}
		.st8 {stroke:#000000;stroke-linecap:round;stroke-linejoin:round;stroke-width:1.2}
		.st9 {stroke:#000000;stroke-linecap:round;stroke-linejoin:round;stroke-width:0.25}
		.st10 {marker-end:url(#mrkr4-113);marker-start:url(#mrkr4-111);stroke:#000000;stroke-linecap:round;stroke-linejoin:round;stroke-width:0.25}
		.st11 {fill:#000000;fill-opacity:1;stroke:#000000;stroke-opacity:1;stroke-width:0.1219512195122}
		.st12 {fill:none;stroke:none;stroke-linecap:round;stroke-linejoin:round;stroke-width:0.75}
		.st13 {fill:#000000;font-family:Times New Roman;font-size:1.00001em}
		.st14 {fill:none;stroke:none;stroke-linecap:round;stroke-linejoin:round;stroke-width:0.24}
		.st15 {fill:#000000;font-family:Times New Roman;font-size:1.00001em;font-style:italic}
		.st16 {marker-end:url(#mrkr5-126);stroke:#800000;stroke-linecap:round;stroke-linejoin:round;stroke-width:1.2}
		.st17 {fill:#800000;fill-opacity:1;stroke:#800000;stroke-opacity:1;stroke-width:0.45454545454546}
		.st18 {stroke:#800000;stroke-linecap:round;stroke-linejoin:round;stroke-width:1.2}
		.st19 {fill:#800000;stroke:#ffffff;stroke-linecap:round;stroke-linejoin:round;stroke-width:0.75}
		.st20 {baseline-shift:-32.4941%;font-size:0.649882em;font-style:normal}
		.st21 {baseline-shift:-21.6624%;font-size:0.433247em;font-style:normal}
		.st22 {baseline-shift:-32.4941%;font-size:0.649882em}
		.st23 {fill:#800000;fill-opacity:0.6;stroke:#ffffff;stroke-linecap:round;stroke-linejoin:round;stroke-width:0.75}
		.st24 {marker-end:url(#mrkr5-195);stroke:#800000;stroke-linecap:round;stroke-linejoin:round;stroke-width:2}
		.st25 {fill:#800000;fill-opacity:1;stroke:#800000;stroke-opacity:1;stroke-width:0.44247787610619}
		.st26 {fill:#ffffff;stroke:#000000;stroke-linecap:round;stroke-linejoin:round;stroke-width:0.75}
		.st27 {fill:none;fill-rule:evenodd;font-size:12px;overflow:visible;stroke-linecap:square;stroke-miterlimit:3}
	]]>
	</style>

	<defs id="Markers">
		<g id="lend1">
			<path d="M 1 -1 L 0 0 L 1 1 " style="stroke-linecap:round;stroke-linejoin:round;fill:none"/>
		</g>
		<marker id="mrkr1-12" class="st4" v:arrowType="1" v:arrowSize="0" orient="auto" markerUnits="strokeWidth"
				overflow="visible">
			<use xlink:href="#lend1" transform="scale(-1.48,-1.48) "/>
		</marker>
		<g id="lend4">
			<path d="M 2 1 L 0 0 L 2 -1 L 2 1 " style="stroke:none"/>
		</g>
		<marker id="mrkr4-111" class="st11" v:arrowType="4" v:arrowSize="1" v:setback="14.96" refX="14.96" orient="auto"
				markerUnits="strokeWidth" overflow="visible">
			<use xlink:href="#lend4" transform="scale(8.2) "/>
		</marker>
		<marker id="mrkr4-113" class="st11" v:arrowType="4" v:arrowSize="1" v:setback="16.4" refX="-16.4" orient="auto"
				markerUnits="strokeWidth" overflow="visible">
			<use xlink:href="#lend4" transform="scale(-8.2,-8.2) "/>
		</marker>
		<g id="lend5">
			<path d="M 2 1 L 0 0 L 1.98117 -0.993387 C 1.67173 -0.364515 1.67301 0.372641 1.98465 1.00043 " style="stroke:none"/>
		</g>
		<marker id="mrkr5-126" class="st17" v:arrowType="5" v:arrowSize="0" v:setback="3.85" refX="-3.85" orient="auto"
				markerUnits="strokeWidth" overflow="visible">
			<use xlink:href="#lend5" transform="scale(-2.2,-2.2) "/>
		</marker>
		<marker id="mrkr5-195" class="st25" v:arrowType="5" v:arrowSize="2" v:setback="3.775" refX="-3.775" orient="auto"
				markerUnits="strokeWidth" overflow="visible">
			<use xlink:href="#lend5" transform="scale(-2.26,-2.26) "/>
		</marker>
	</defs>
	<g v:mID="0" v:index="1" v:groupContext="foregroundPage">
		<title>Pagina-1</title>
		<v:pageProperties v:drawingScale="0.0393701" v:pageScale="0.0393701" v:drawingUnits="24" v:shadowOffsetX="8.50394"
				v:shadowOffsetY="-8.50394"/>
		<g id="shape1927-1" v:mID="1927" v:groupContext="shape" transform="translate(272.476,-60.6878) rotate(26.565)">
			<title>Blad.1927</title>
			<path d="M0 99.96 L19.84 99.96" class="st1"/>
		</g>
		<g id="shape1843-4" v:mID="1843" v:groupContext="shape" transform="translate(272.476,-60.6878) rotate(26.565)">
			<title>Ligger, 2 pt.1843</title>
			<path d="M0 99.96 L63.38 99.96" class="st2"/>
		</g>
		<g id="shape1921-7" v:mID="1921" v:groupContext="shape" transform="translate(384.427,28.7215) rotate(90)">
			<title>verplaatsing.1921</title>
			<path d="M0 99.96 L28.35 99.96" class="st3"/>
		</g>
		<g id="shape1924-13" v:mID="1924" v:groupContext="shape" transform="translate(239.76,-32.3414) rotate(-26.565)">
			<title>Ligger, 2 pt.1924</title>
			<path d="M0 99.96 L63.38 99.96" class="st2"/>
		</g>
		<g id="shape1845-16" v:mID="1845" v:groupContext="shape" transform="translate(341.158,-71.2411)">
			<title>Ligger, 2 pt.1845</title>
			<path d="M0 99.96 L85.04 99.96" class="st2"/>
		</g>
		<g id="shape1844-19" v:mID="1844" v:groupContext="shape" transform="translate(199.425,-71.2411)">
			<title>Ligger, 2 pt.1844</title>
			<path d="M0 99.96 L226.77 99.96" class="st5"/>
		</g>
		<g id="group1846-22" transform="translate(47.7716,-57.0679)" v:mID="1846" v:groupContext="group">
			<title>Rol.1846</title>
			<g id="group1847-23" transform="translate(0.261477,-2.83465)" v:mID="1847" v:groupContext="group">
				<title>Scharnier</title>
				<g id="shape1848-24" v:mID="1848" v:groupContext="shape" transform="translate(2.79729,0)">
					<title>Blad.1848</title>
					<path d="M0 99.96 L13.99 99.96 L6.99 88.62 L0 99.96 Z" class="st6"/>
				</g>
				<g id="shape1849-26" v:mID="1849" v:groupContext="shape" transform="translate(2.79729,199.925) rotate(180)">
					<title>Blad.1849</title>
					<path d="M0 99.96 L2.8 99.96" class="st1"/>
				</g>
				<g id="shape1850-29" v:mID="1850" v:groupContext="shape" transform="translate(16.7838,0)">
					<title>Blad.1850</title>
					<path d="M0 99.96 L2.8 99.96" class="st1"/>
				</g>
			</g>
			<g id="shape1851-32" v:mID="1851" v:groupContext="shape">
				<title>Blad.1851</title>
				<path d="M0 99.96 L19.84 99.96" class="st1"/>
			</g>
		</g>
		<g id="group1852-35" transform="translate(161.157,-57.0679)" v:mID="1852" v:groupContext="group">
			<title>Rol.1852</title>
			<g id="group1853-36" transform="translate(0.261477,-2.83465)" v:mID="1853" v:groupContext="group">
				<title>Scharnier</title>
				<g id="shape1854-37" v:mID="1854" v:groupContext="shape" transform="translate(2.79729,0)">
					<title>Blad.1854</title>
					<path d="M0 99.96 L13.99 99.96 L6.99 88.62 L0 99.96 Z" class="st6"/>
				</g>
				<g id="shape1855-39" v:mID="1855" v:groupContext="shape" transform="translate(2.79729,199.925) rotate(180)">
					<title>Blad.1855</title>
					<path d="M0 99.96 L2.8 99.96" class="st1"/>
				</g>
				<g id="shape1856-42" v:mID="1856" v:groupContext="shape" transform="translate(16.7838,0)">
					<title>Blad.1856</title>
					<path d="M0 99.96 L2.8 99.96" class="st1"/>
				</g>
			</g>
			<g id="shape1857-45" v:mID="1857" v:groupContext="shape">
				<title>Blad.1857</title>
				<path d="M0 99.96 L19.84 99.96" class="st1"/>
			</g>
		</g>
		<g id="shape1858-48" v:mID="1858" v:groupContext="shape" transform="translate(171.079,-71.2411)">
			<title>Ligger, 2 pt.1858</title>
			<path d="M0 99.96 L56.69 99.96" class="st7"/>
		</g>
		<g id="shape1859-51" v:mID="1859" v:groupContext="shape" transform="translate(1,-71.2411)">
			<title>Ligger, 2 pt.1859</title>
			<path d="M0 99.96 L226.77 99.96" class="st2"/>
		</g>
		<g id="group1860-54" transform="translate(437.535,114.511) rotate(180)" v:mID="1860" v:groupContext="group">
			<title>Inklemming.1860</title>
			<g id="shape1861-55" v:mID="1861" v:groupContext="shape" transform="translate(111.301,71.6161) rotate(90)">
				<title>Blad.1861</title>
				<path d="M0 99.96 L28.35 99.96" class="st8"/>
			</g>
			<g id="shape1862-58" v:mID="1862" v:groupContext="shape" transform="translate(79.1882,0.931911) rotate(45)">
				<title>Blad.1862</title>
				<path d="M0 99.96 L4.01 99.96" class="st1"/>
			</g>
			<g id="shape1863-61" v:mID="1863" v:groupContext="shape" transform="translate(76.3535,0.931911) rotate(45)">
				<title>Blad.1863</title>
				<path d="M0 99.96 L8.02 99.96" class="st1"/>
			</g>
			<g id="shape1864-64" v:mID="1864" v:groupContext="shape" transform="translate(73.5189,0.931911) rotate(45)">
				<title>Blad.1864</title>
				<path d="M0 99.96 L12.03 99.96" class="st1"/>
			</g>
			<g id="shape1865-67" v:mID="1865" v:groupContext="shape" transform="translate(70.6842,0.931911) rotate(45)">
				<title>Blad.1865</title>
				<path d="M0 99.96 L16.04 99.96" class="st1"/>
			</g>
			<g id="shape1866-70" v:mID="1866" v:groupContext="shape" transform="translate(70.6842,3.76656) rotate(45)">
				<title>Blad.1866</title>
				<path d="M0 99.96 L16.04 99.96" class="st1"/>
			</g>
			<g id="shape1867-73" v:mID="1867" v:groupContext="shape" transform="translate(70.6842,6.6012) rotate(45)">
				<title>Blad.1867</title>
				<path d="M0 99.96 L16.04 99.96" class="st1"/>
			</g>
			<g id="shape1868-76" v:mID="1868" v:groupContext="shape" transform="translate(70.6842,9.43585) rotate(45)">
				<title>Blad.1868</title>
				<path d="M0 99.96 L16.04 99.96" class="st1"/>
			</g>
			<g id="shape1869-79" v:mID="1869" v:groupContext="shape" transform="translate(70.6842,12.2705) rotate(45)">
				<title>Blad.1869</title>
				<path d="M0 99.96 L16.04 99.96" class="st1"/>
			</g>
			<g id="shape1870-82" v:mID="1870" v:groupContext="shape" transform="translate(70.6842,15.1051) rotate(45)">
				<title>Blad.1870</title>
				<path d="M0 99.96 L16.04 99.96" class="st1"/>
			</g>
			<g id="shape1871-85" v:mID="1871" v:groupContext="shape" transform="translate(70.6842,17.9398) rotate(45)">
				<title>Blad.1871</title>
				<path d="M0 99.96 L16.04 99.96" class="st1"/>
			</g>
			<g id="shape1872-88" v:mID="1872" v:groupContext="shape" transform="translate(70.6842,20.7744) rotate(45)">
				<title>Blad.1872</title>
				<path d="M0 99.96 L12.03 99.96" class="st1"/>
			</g>
			<g id="shape1873-91" v:mID="1873" v:groupContext="shape" transform="translate(70.6842,23.6091) rotate(45)">
				<title>Blad.1873</title>
				<path d="M0 99.96 L8.02 99.96" class="st1"/>
			</g>
			<g id="shape1874-94" v:mID="1874" v:groupContext="shape" transform="translate(70.6842,26.4437) rotate(45)">
				<title>Blad.1874</title>
				<path d="M0 99.96 L4.01 99.96" class="st1"/>
			</g>
		</g>
		<g id="group1889-97" transform="translate(227.772,-0.375)" v:mID="1889" v:groupContext="group">
			<title>Maatlijn.1889</title>
			<g id="group1890-98" transform="translate(0,-9.92126)" v:mID="1890" v:groupContext="group">
				<title>Maatlijn.31</title>
				<g id="shape1891-99" v:mID="1891" v:groupContext="shape" transform="translate(99.9626,91.4587) rotate(90)">
					<title>Blad.1891</title>
					<path d="M0 99.96 L8.5 99.96" class="st9"/>
				</g>
				<g id="shape1892-102" v:mID="1892" v:groupContext="shape" transform="translate(156.656,91.4587) rotate(90)">
					<title>Blad.1892</title>
					<path d="M0 99.96 L8.5 99.96" class="st9"/>
				</g>
				<g id="shape1893-105" v:mID="1893" v:groupContext="shape" transform="translate(0,-4.25197)">
					<title>Blad.1893</title>
					<path d="M3.74 99.96 L4.1 99.96 L52.59 99.96" class="st10"/>
				</g>
			</g>
			<g id="shape1894-114" v:mID="1894" v:groupContext="shape">
				<title>Blad.1894</title>
				<desc>2 m</desc>
				<v:textBlock v:margins="rect(4,4,4,4)" v:tabSpace="42.5197"/>
				<v:textRect cx="28.3465" cy="92.876" width="56.7" height="14.1732"/>
				<rect x="0" y="85.7894" width="56.6929" height="14.1732" class="st12"/>
				<text x="19.18" y="96.48" class="st13" v:langID="1043"><v:paragraph v:horizAlign="1"/><v:tabList/>2 m</text>			</g>
		</g>
		<g id="group1907-117" transform="translate(171.079,-71.2411)" v:mID="1907" v:groupContext="group">
			<title>qz-last constant.1907</title>
			<g id="shape1908-118" v:mID="1908" v:groupContext="shape" transform="translate(-2.39808E-14,-14.1732)">
				<title>A.58</title>
				<desc>q</desc>
				<v:textBlock v:margins="rect(4,4,4,4)" v:tabSpace="42.5197"/>
				<v:textRect cx="42.5197" cy="92.876" width="85.04" height="14.1732"/>
				<rect x="0" y="85.7894" width="85.0394" height="14.1732" class="st14"/>
				<text x="39.52" y="96.48" class="st15" v:langID="1043"><v:paragraph v:horizAlign="1"/><v:tabList/>q</text>			</g>
			<g id="shape1909-121" v:mID="1909" v:groupContext="shape" transform="translate(99.9626,85.7894) rotate(90)">
				<title>Kracht.5</title>
				<path d="M0 99.96 L9.55 99.96" class="st16"/>
			</g>
			<g id="shape1910-127" v:mID="1910" v:groupContext="shape" transform="translate(0,-14.1732)">
				<title>Blad.1910</title>
				<path d="M0 99.96 L170.08 99.96" class="st18"/>
			</g>
			<g id="shape1911-130" v:mID="1911" v:groupContext="shape" transform="translate(133.978,85.7894) rotate(90)">
				<title>Kracht.4</title>
				<path d="M0 99.96 L9.55 99.96" class="st16"/>
			</g>
			<g id="shape1912-135" v:mID="1912" v:groupContext="shape" transform="translate(167.994,85.7894) rotate(90)">
				<title>Kracht.9</title>
				<path d="M0 99.96 L9.55 99.96" class="st16"/>
			</g>
			<g id="shape1913-140" v:mID="1913" v:groupContext="shape" transform="translate(270.041,85.7894) rotate(90)">
				<title>Kracht.6</title>
				<path d="M0 99.96 L9.55 99.96" class="st16"/>
			</g>
			<g id="shape1914-145" v:mID="1914" v:groupContext="shape" transform="translate(236.026,85.7894) rotate(90)">
				<title>Kracht.37</title>
				<path d="M0 99.96 L9.55 99.96" class="st16"/>
			</g>
			<g id="shape1915-150" v:mID="1915" v:groupContext="shape" transform="translate(202.01,85.7894) rotate(90)">
				<title>Kracht.7</title>
				<path d="M0 99.96 L9.55 99.96" class="st16"/>
			</g>
		</g>
		<g id="shape1916-155" v:mID="1916" v:groupContext="shape" transform="translate(282.339,-40.7687)">
			<title>Scharnier.1916</title>
			<ellipse cx="2.12598" cy="97.8366" rx="2.12598" ry="2.12598" class="st19"/>
		</g>
		<g id="shape1919-157" v:mID="1919" v:groupContext="shape"
				transform="translate(224.027,51.6886) rotate(76.7172) scale(1,-1)">
			<title>Hoekverdraaiing.1919</title>
			<path d="M0 99.96 C2.76 99.31 5.86 98.87 9.12 99.96" class="st3"/>
		</g>
		<g id="shape1920-162" v:mID="1920" v:groupContext="shape" transform="translate(319.898,-49.9813)">
			<title>Blad.1920</title>
			<desc>δφS2S3</desc>
			<v:textBlock v:margins="rect(4,4,4,4)" v:tabSpace="42.5197"/>
			<v:textRect cx="21.2598" cy="92.876" width="42.52" height="14.1732"/>
			<rect x="0" y="85.7894" width="42.5197" height="14.1732" class="st12"/>
			<text x="8.21" y="96.48" class="st15" v:langID="1043"><v:paragraph v:horizAlign="1"/><v:tabList/>δφ<tspan dy="-0.279em"
						class="st20" v:baseFontSize="12">S</tspan><tspan dy="0.14em" class="st21" v:baseFontSize="8">2</tspan><tspan
						dy="-0.093em" class="st20" v:baseFontSize="12">S</tspan><tspan dy="0.14em" class="st21" v:baseFontSize="8">3</tspan></text>		</g>
		<g id="shape1923-169" v:mID="1923" v:groupContext="shape" transform="translate(241.945,-42.8947)">
			<title>Blad.1923</title>
			<desc>δwq1</desc>
			<v:textBlock v:margins="rect(4,4,4,4)" v:tabSpace="42.5197"/>
			<v:textRect cx="14.1732" cy="92.876" width="28.35" height="14.1732"/>
			<rect x="0" y="85.7894" width="28.3465" height="14.1732" class="st12"/>
			<text x="4.13" y="96.48" class="st15" v:langID="1043"><v:paragraph v:horizAlign="1"/><v:tabList/>δw<tspan dy="-0.279em"
						class="st22" v:baseFontSize="12">q</tspan><tspan dy="0.14em" class="st21" v:baseFontSize="8">1</tspan></text>		</g>
		<g id="shape1925-174" v:mID="1925" v:groupContext="shape" transform="translate(227.772,-71.2411)">
			<title>Blad.1925</title>
			<path d="M0 99.96 L19.84 99.96" class="st1"/>
		</g>
		<g id="shape1926-177" v:mID="1926" v:groupContext="shape" transform="translate(341.158,128.684) rotate(180)">
			<title>Blad.1926</title>
			<path d="M0 99.96 L19.84 99.96" class="st1"/>
		</g>
		<g id="shape1928-180" v:mID="1928" v:groupContext="shape" transform="translate(385.862,118.131) rotate(153.435)">
			<title>Blad.1928</title>
			<path d="M0 99.96 L19.84 99.96" class="st1"/>
		</g>
		<g id="shape1929-183" v:mID="1929" v:groupContext="shape"
				transform="translate(150.865,5.88201) rotate(-76.7175) scale(-1,1)">
			<title>Hoekverdraaiing.1929</title>
			<path d="M0 99.41 C3.31 100.19 5.65 100.16 9.12 99.41" class="st3"/>
		</g>
		<g id="shape1930-188" v:mID="1930" v:groupContext="shape" transform="translate(282.339,-69.1152)">
			<title>Scharnier.1930</title>
			<ellipse cx="2.12598" cy="97.8366" rx="2.12598" ry="2.12598" class="st23"/>
		</g>
		<g id="shape1931-190" v:mID="1931" v:groupContext="shape" transform="translate(202.927,42.8947) rotate(-90)">
			<title>Moment.1931</title>
			<path d="M-0 99.96 A14.1732 14.1732 0 0 1 14.17 85.79 A14.1732 14.1732 0 0 1 26.14 92.37 L26.24 92.71" class="st24"/>
		</g>
		<g id="shape1932-196" v:mID="1932" v:groupContext="shape" transform="translate(366.002,42.8947) rotate(90) scale(-1,1)">
			<title>Moment.1932</title>
			<path d="M-0 99.96 A14.1732 14.1732 0 0 1 14.17 85.79 A14.1732 14.1732 0 0 1 26.14 92.37 L26.24 92.71" class="st24"/>
		</g>
		<g id="shape1934-201" v:mID="1934" v:groupContext="shape" transform="translate(256.118,-85.4144)">
			<title>Blad.1934</title>
			<desc>108 kNm</desc>
			<v:textBlock v:margins="rect(4,4,4,4)" v:tabSpace="42.5197"/>
			<v:textRect cx="28.3465" cy="92.876" width="56.7" height="14.1732"/>
			<rect x="0" y="85.7894" width="56.6929" height="14.1732" class="st12"/>
			<text x="5.85" y="96.48" class="st13" v:langID="1043"><v:paragraph v:horizAlign="1"/><v:tabList/>108 kNm</text>		</g>
		<g id="shape1935-204" v:mID="1935" v:groupContext="shape" transform="translate(206.512,-49.9813)">
			<title>Blad.1935</title>
			<desc>δφS1S2</desc>
			<v:textBlock v:margins="rect(4,4,4,4)" v:tabSpace="42.5197"/>
			<v:textRect cx="21.2598" cy="92.876" width="42.52" height="14.1732"/>
			<rect x="0" y="85.7894" width="42.5197" height="14.1732" class="st12"/>
			<text x="8.21" y="96.48" class="st15" v:langID="1043"><v:paragraph v:horizAlign="1"/><v:tabList/>δφ<tspan dy="-0.279em"
						class="st20" v:baseFontSize="12">S</tspan><tspan dy="0.14em" class="st21" v:baseFontSize="8">1</tspan><tspan
						dy="-0.093em" class="st20" v:baseFontSize="12">S</tspan><tspan dy="0.14em" class="st21" v:baseFontSize="8">2</tspan></text>		</g>
		<g id="shape1936-211" v:mID="1936" v:groupContext="shape" transform="translate(356.081,28.7215) rotate(90)">
			<title>verplaatsing.1936</title>
			<path d="M0 99.96 L14.17 99.96" class="st3"/>
		</g>
		<g id="shape1937-216" v:mID="1937" v:groupContext="shape" transform="translate(412.774,28.7215) rotate(90)">
			<title>verplaatsing.1937</title>
			<path d="M0 99.96 L14.17 99.96" class="st3"/>
		</g>
		<g id="shape1939-221" v:mID="1939" v:groupContext="shape" transform="translate(305.724,-42.8947)">
			<title>Blad.1939</title>
			<desc>δwq2</desc>
			<v:textBlock v:margins="rect(4,4,4,4)" v:tabSpace="42.5197"/>
			<v:textRect cx="14.1732" cy="92.876" width="28.35" height="14.1732"/>
			<rect x="0" y="85.7894" width="28.3465" height="14.1732" class="st12"/>
			<text x="4.13" y="96.48" class="st15" v:langID="1043"><v:paragraph v:horizAlign="1"/><v:tabList/>δw<tspan dy="-0.279em"
						class="st22" v:baseFontSize="12">q</tspan><tspan dy="0.14em" class="st21" v:baseFontSize="8">2</tspan></text>		</g>
		<g id="shape1940-226" v:mID="1940" v:groupContext="shape" transform="translate(267.457,-28.7215)">
			<title>Blad.1940</title>
			<desc>δwS3</desc>
			<v:textBlock v:margins="rect(4,4,4,4)" v:tabSpace="42.5197"/>
			<v:textRect cx="17.0079" cy="92.876" width="34.02" height="14.1732"/>
			<rect x="0" y="85.7894" width="34.0157" height="14.1732" class="st12"/>
			<text x="6.75" y="96.48" class="st15" v:langID="1043"><v:paragraph v:horizAlign="1"/><v:tabList/>δw<tspan dy="-0.279em"
						class="st20" v:baseFontSize="12">S</tspan><tspan dy="0.14em" class="st21" v:baseFontSize="8">3</tspan></text>		</g>
		<g id="group2042-231" transform="translate(284.465,-0.375)" v:mID="2042" v:groupContext="group">
			<title>Maatlijn.2042</title>
			<g id="group2043-232" transform="translate(0,-9.92126)" v:mID="2043" v:groupContext="group">
				<title>Maatlijn.31</title>
				<g id="shape2044-233" v:mID="2044" v:groupContext="shape" transform="translate(99.9626,91.4587) rotate(90)">
					<title>Blad.2044</title>
					<path d="M0 99.96 L8.5 99.96" class="st9"/>
				</g>
				<g id="shape2045-236" v:mID="2045" v:groupContext="shape" transform="translate(156.656,91.4587) rotate(90)">
					<title>Blad.2045</title>
					<path d="M0 99.96 L8.5 99.96" class="st9"/>
				</g>
				<g id="shape2046-239" v:mID="2046" v:groupContext="shape" transform="translate(0,-4.25197)">
					<title>Blad.2046</title>
					<path d="M3.74 99.96 L4.1 99.96 L52.59 99.96" class="st10"/>
				</g>
			</g>
			<g id="shape2047-246" v:mID="2047" v:groupContext="shape">
				<title>Blad.2047</title>
				<desc>2 m</desc>
				<v:textBlock v:margins="rect(4,4,4,4)" v:tabSpace="42.5197"/>
				<v:textRect cx="28.3465" cy="92.876" width="56.7" height="14.1732"/>
				<rect x="0" y="85.7894" width="56.6929" height="14.1732" class="st12"/>
				<text x="19.18" y="96.48" class="st13" v:langID="1043"><v:paragraph v:horizAlign="1"/><v:tabList/>2 m</text>			</g>
		</g>
		<g id="shape1876-249" v:mID="1876" v:groupContext="shape" transform="translate(225.646,-69.1152)">
			<title>Scharnier.1876</title>
			<ellipse cx="2.12598" cy="97.8366" rx="2.12598" ry="2.12598" class="st26"/>
		</g>
		<g id="shape1875-251" v:mID="1875" v:groupContext="shape" transform="translate(339.031,-69.1152)">
			<title>Scharnier.1875</title>
			<ellipse cx="2.12598" cy="97.8366" rx="2.12598" ry="2.12598" class="st26"/>
		</g>
	</g>
</svg>
