<?xml version="1.0" encoding="UTF-8" standalone="no"?>
<!DOCTYPE svg PUBLIC "-//W3C//DTD SVG 1.1//EN" "http://www.w3.org/Graphics/SVG/1.1/DTD/svg11.dtd">
<!-- Gegenereerd door Microsoft Visio, SVG Export structure.svg Pagina-1 -->
<svg xmlns="http://www.w3.org/2000/svg" xmlns:xlink="http://www.w3.org/1999/xlink" xmlns:ev="http://www.w3.org/2001/xml-events"
		xmlns:v="http://schemas.microsoft.com/visio/2003/SVGExtensions/" width="1.55944in" height="1.90018in"
		viewBox="0 0 112.28 136.813" xml:space="preserve" color-interpolation-filters="sRGB" class="st17">
	<v:documentProperties v:langID="1043" v:metric="true" v:viewMarkup="false"/>

	<style type="text/css">
	<![CDATA[
		.st1 {stroke:#000000;stroke-linecap:round;stroke-linejoin:round;stroke-width:1.2}
		.st2 {stroke:#000000;stroke-linecap:round;stroke-linejoin:round;stroke-width:0.75}
		.st3 {stroke:#000000;stroke-linecap:round;stroke-linejoin:round;stroke-width:2}
		.st4 {stroke:#000000;stroke-linecap:round;stroke-linejoin:round;stroke-width:4.5}
		.st5 {marker-start:url(#mrkr5-98);stroke:#800000;stroke-linecap:round;stroke-linejoin:round;stroke-width:2}
		.st6 {fill:#800000;fill-opacity:1;stroke:#800000;stroke-opacity:1;stroke-width:0.44247787610619}
		.st7 {stroke:#000000;stroke-linecap:round;stroke-linejoin:round;stroke-width:0.25}
		.st8 {marker-end:url(#mrkr4-115);marker-start:url(#mrkr4-113);stroke:#000000;stroke-linecap:round;stroke-linejoin:round;stroke-width:0.25}
		.st9 {fill:#000000;fill-opacity:1;stroke:#000000;stroke-opacity:1;stroke-width:0.12195121951219}
		.st10 {fill:none;stroke:none;stroke-linecap:round;stroke-linejoin:round;stroke-width:0.75}
		.st11 {fill:#000000;font-family:Times New Roman;font-size:1.00001em;font-style:italic}
		.st12 {fill:none;marker-start:url(#mrkr13-140);stroke:none;stroke-linecap:round;stroke-linejoin:round;stroke-width:0.75}
		.st13 {fill:#000000;fill-opacity:1;stroke:#000000;stroke-opacity:1;stroke-width:0.22935779816514}
		.st14 {fill:none;stroke:none;stroke-linecap:round;stroke-linejoin:round;stroke-width:0.24}
		.st15 {fill:#000000;font-family:Times New Roman;font-size:1.00001em}
		.st16 {marker-end:url(#mrkr5-166);stroke:#000000;stroke-linecap:round;stroke-linejoin:round;stroke-width:0.75}
		.st17 {fill:none;fill-rule:evenodd;font-size:12px;overflow:visible;stroke-linecap:square;stroke-miterlimit:3}
	]]>
	</style>

	<defs id="Markers">
		<g id="lend5">
			<path d="M 2 1 L 0 0 L 1.98117 -0.993387 C 1.67173 -0.364515 1.67301 0.372641 1.98465 1.00043 " style="stroke:none"/>
		</g>
		<marker id="mrkr5-98" class="st6" v:arrowType="5" v:arrowSize="2" v:setback="3.775" refX="3.775" orient="auto"
				markerUnits="strokeWidth" overflow="visible">
			<use xlink:href="#lend5" transform="scale(2.26) "/>
		</marker>
		<g id="lend4">
			<path d="M 2 1 L 0 0 L 2 -1 L 2 1 " style="stroke:none"/>
		</g>
		<marker id="mrkr4-113" class="st9" v:arrowType="4" v:arrowSize="1" v:setback="14.96" refX="14.96" orient="auto"
				markerUnits="strokeWidth" overflow="visible">
			<use xlink:href="#lend4" transform="scale(8.2) "/>
		</marker>
		<marker id="mrkr4-115" class="st9" v:arrowType="4" v:arrowSize="1" v:setback="16.4" refX="-16.4" orient="auto"
				markerUnits="strokeWidth" overflow="visible">
			<use xlink:href="#lend4" transform="scale(-8.2,-8.2) "/>
		</marker>
		<g id="lend13">
			<path d="M 3 1 L 0 0 L 3 -1 L 3 1 " style="stroke:none"/>
		</g>
		<marker id="mrkr13-140" class="st13" v:arrowType="13" v:arrowSize="2" v:setback="13.08" refX="13.08" orient="auto"
				markerUnits="strokeWidth" overflow="visible">
			<use xlink:href="#lend13" transform="scale(4.36) "/>
		</marker>
		<marker id="mrkr5-166" class="st13" v:arrowType="5" v:arrowSize="2" v:setback="7.63" refX="-7.63" orient="auto"
				markerUnits="strokeWidth" overflow="visible">
			<use xlink:href="#lend5" transform="scale(-4.36,-4.36) "/>
		</marker>
	</defs>
	<g v:mID="0" v:index="1" v:groupContext="foregroundPage">
		<title>Pagina-1</title>
		<v:pageProperties v:drawingScale="0.0393701" v:pageScale="0.0393701" v:drawingUnits="24" v:shadowOffsetX="8.50394"
				v:shadowOffsetY="-8.50394"/>
		<g id="group1000-1" transform="translate(-83.7273,136.438) rotate(-90)" v:mID="1000" v:groupContext="group">
			<title>Inklemming.1000</title>
			<g id="shape1001-2" v:mID="1001" v:groupContext="shape" transform="translate(148.152,108.467) rotate(90)">
				<title>Blad.1001</title>
				<path d="M0 136.81 L28.35 136.81" class="st1"/>
			</g>
			<g id="shape1002-5" v:mID="1002" v:groupContext="shape" transform="translate(105.245,11.7251) rotate(45)">
				<title>Blad.1002</title>
				<path d="M0 136.81 L4.01 136.81" class="st2"/>
			</g>
			<g id="shape1003-8" v:mID="1003" v:groupContext="shape" transform="translate(102.411,11.7251) rotate(45)">
				<title>Blad.1003</title>
				<path d="M0 136.81 L8.02 136.81" class="st2"/>
			</g>
			<g id="shape1004-11" v:mID="1004" v:groupContext="shape" transform="translate(99.576,11.7251) rotate(45)">
				<title>Blad.1004</title>
				<path d="M0 136.81 L12.03 136.81" class="st2"/>
			</g>
			<g id="shape1005-14" v:mID="1005" v:groupContext="shape" transform="translate(96.7414,11.7251) rotate(45)">
				<title>Blad.1005</title>
				<path d="M0 136.81 L16.04 136.81" class="st2"/>
			</g>
			<g id="shape1006-17" v:mID="1006" v:groupContext="shape" transform="translate(96.7414,14.5598) rotate(45)">
				<title>Blad.1006</title>
				<path d="M0 136.81 L16.04 136.81" class="st2"/>
			</g>
			<g id="shape1007-20" v:mID="1007" v:groupContext="shape" transform="translate(96.7414,17.3944) rotate(45)">
				<title>Blad.1007</title>
				<path d="M0 136.81 L16.04 136.81" class="st2"/>
			</g>
			<g id="shape1008-23" v:mID="1008" v:groupContext="shape" transform="translate(96.7414,20.2291) rotate(45)">
				<title>Blad.1008</title>
				<path d="M0 136.81 L16.04 136.81" class="st2"/>
			</g>
			<g id="shape1009-26" v:mID="1009" v:groupContext="shape" transform="translate(96.7414,23.0637) rotate(45)">
				<title>Blad.1009</title>
				<path d="M0 136.81 L16.04 136.81" class="st2"/>
			</g>
			<g id="shape1010-29" v:mID="1010" v:groupContext="shape" transform="translate(96.7414,25.8984) rotate(45)">
				<title>Blad.1010</title>
				<path d="M0 136.81 L16.04 136.81" class="st2"/>
			</g>
			<g id="shape1011-32" v:mID="1011" v:groupContext="shape" transform="translate(96.7414,28.733) rotate(45)">
				<title>Blad.1011</title>
				<path d="M0 136.81 L16.04 136.81" class="st2"/>
			</g>
			<g id="shape1012-35" v:mID="1012" v:groupContext="shape" transform="translate(96.7414,31.5677) rotate(45)">
				<title>Blad.1012</title>
				<path d="M0 136.81 L12.03 136.81" class="st2"/>
			</g>
			<g id="shape1013-38" v:mID="1013" v:groupContext="shape" transform="translate(96.7414,34.4023) rotate(45)">
				<title>Blad.1013</title>
				<path d="M0 136.81 L8.02 136.81" class="st2"/>
			</g>
			<g id="shape1014-41" v:mID="1014" v:groupContext="shape" transform="translate(96.7414,37.237) rotate(45)">
				<title>Blad.1014</title>
				<path d="M0 136.81 L4.01 136.81" class="st2"/>
			</g>
		</g>
		<g id="shape1015-44" v:mID="1015" v:groupContext="shape" transform="translate(-97.9006,125.099) rotate(-90)">
			<title>Ligger, 2 pt.1015</title>
			<path d="M0 136.81 L113.39 136.81" class="st3"/>
		</g>
		<g id="group1020-47" transform="translate(161.552,0.375) rotate(90)" v:mID="1020" v:groupContext="group">
			<title>Inklemming.1020</title>
			<g id="shape1021-48" v:mID="1021" v:groupContext="shape" transform="translate(148.152,108.467) rotate(90)">
				<title>Blad.1021</title>
				<path d="M0 136.81 L28.35 136.81" class="st1"/>
			</g>
			<g id="shape1022-51" v:mID="1022" v:groupContext="shape" transform="translate(105.245,11.7251) rotate(45)">
				<title>Blad.1022</title>
				<path d="M0 136.81 L4.01 136.81" class="st2"/>
			</g>
			<g id="shape1023-54" v:mID="1023" v:groupContext="shape" transform="translate(102.411,11.7251) rotate(45)">
				<title>Blad.1023</title>
				<path d="M0 136.81 L8.02 136.81" class="st2"/>
			</g>
			<g id="shape1024-57" v:mID="1024" v:groupContext="shape" transform="translate(99.576,11.7251) rotate(45)">
				<title>Blad.1024</title>
				<path d="M0 136.81 L12.03 136.81" class="st2"/>
			</g>
			<g id="shape1025-60" v:mID="1025" v:groupContext="shape" transform="translate(96.7414,11.7251) rotate(45)">
				<title>Blad.1025</title>
				<path d="M0 136.81 L16.04 136.81" class="st2"/>
			</g>
			<g id="shape1026-63" v:mID="1026" v:groupContext="shape" transform="translate(96.7414,14.5598) rotate(45)">
				<title>Blad.1026</title>
				<path d="M0 136.81 L16.04 136.81" class="st2"/>
			</g>
			<g id="shape1027-66" v:mID="1027" v:groupContext="shape" transform="translate(96.7414,17.3944) rotate(45)">
				<title>Blad.1027</title>
				<path d="M0 136.81 L16.04 136.81" class="st2"/>
			</g>
			<g id="shape1028-69" v:mID="1028" v:groupContext="shape" transform="translate(96.7414,20.2291) rotate(45)">
				<title>Blad.1028</title>
				<path d="M0 136.81 L16.04 136.81" class="st2"/>
			</g>
			<g id="shape1029-72" v:mID="1029" v:groupContext="shape" transform="translate(96.7414,23.0637) rotate(45)">
				<title>Blad.1029</title>
				<path d="M0 136.81 L16.04 136.81" class="st2"/>
			</g>
			<g id="shape1030-75" v:mID="1030" v:groupContext="shape" transform="translate(96.7414,25.8984) rotate(45)">
				<title>Blad.1030</title>
				<path d="M0 136.81 L16.04 136.81" class="st2"/>
			</g>
			<g id="shape1031-78" v:mID="1031" v:groupContext="shape" transform="translate(96.7414,28.733) rotate(45)">
				<title>Blad.1031</title>
				<path d="M0 136.81 L16.04 136.81" class="st2"/>
			</g>
			<g id="shape1032-81" v:mID="1032" v:groupContext="shape" transform="translate(96.7414,31.5677) rotate(45)">
				<title>Blad.1032</title>
				<path d="M0 136.81 L12.03 136.81" class="st2"/>
			</g>
			<g id="shape1033-84" v:mID="1033" v:groupContext="shape" transform="translate(96.7414,34.4023) rotate(45)">
				<title>Blad.1033</title>
				<path d="M0 136.81 L8.02 136.81" class="st2"/>
			</g>
			<g id="shape1034-87" v:mID="1034" v:groupContext="shape" transform="translate(96.7414,37.237) rotate(45)">
				<title>Blad.1034</title>
				<path d="M0 136.81 L4.01 136.81" class="st2"/>
			</g>
		</g>
		<g id="shape1035-90" v:mID="1035" v:groupContext="shape" transform="translate(-97.9006,68.4065) rotate(-90)">
			<title>Ligger, 2 pt.1035</title>
			<path d="M0 136.81 L56.69 136.81" class="st4"/>
		</g>
		<g id="shape1036-93" v:mID="1036" v:groupContext="shape" transform="translate(-95.0659,96.753) rotate(-90)">
			<title>Kracht.1036</title>
			<path d="M7.55 136.81 L7.91 136.81 L28.35 136.81" class="st5"/>
		</g>
		<g id="group1037-99" transform="translate(79.3061,-68.4065)" v:mID="1037" v:groupContext="group">
			<title>Maatlijn verticaal.1037</title>
			<g id="group1038-100" transform="translate(-128.309,136.813) rotate(-90)" v:mID="1038" v:groupContext="group">
				<title>Maatlijn.31</title>
				<g id="shape1039-101" v:mID="1039" v:groupContext="shape" transform="translate(136.813,128.309) rotate(90)">
					<title>Blad.1039</title>
					<path d="M0 136.81 L8.5 136.81" class="st7"/>
				</g>
				<g id="shape1040-104" v:mID="1040" v:groupContext="shape" transform="translate(193.506,128.309) rotate(90)">
					<title>Blad.1040</title>
					<path d="M0 136.81 L8.5 136.81" class="st7"/>
				</g>
				<g id="shape1041-107" v:mID="1041" v:groupContext="shape" transform="translate(0,-4.25197)">
					<title>Blad.1041</title>
					<path d="M3.74 136.81 L4.1 136.81 L52.59 136.81" class="st8"/>
				</g>
			</g>
			<g id="shape1042-116" v:mID="1042" v:groupContext="shape" transform="translate(4.25197,-22.6772)">
				<title>Blad.1042</title>
				<desc>L</desc>
				<v:textBlock v:margins="rect(4,4,4,4)" v:tabSpace="42.5197"/>
				<v:textRect cx="14.1732" cy="131.144" width="28.35" height="11.3386"/>
				<rect x="0" y="125.474" width="28.3465" height="11.3386" class="st10"/>
				<text x="10.84" y="134.74" class="st11" v:langID="1043"><v:paragraph v:horizAlign="1"/><v:tabList/>L</text>			</g>
		</g>
		<g id="group1043-119" transform="translate(79.3061,-11.7136)" v:mID="1043" v:groupContext="group">
			<title>Maatlijn verticaal.1043</title>
			<g id="group1044-120" transform="translate(-128.309,136.813) rotate(-90)" v:mID="1044" v:groupContext="group">
				<title>Maatlijn.31</title>
				<g id="shape1045-121" v:mID="1045" v:groupContext="shape" transform="translate(136.813,128.309) rotate(90)">
					<title>Blad.1045</title>
					<path d="M0 136.81 L8.5 136.81" class="st7"/>
				</g>
				<g id="shape1046-124" v:mID="1046" v:groupContext="shape" transform="translate(193.506,128.309) rotate(90)">
					<title>Blad.1046</title>
					<path d="M0 136.81 L8.5 136.81" class="st7"/>
				</g>
				<g id="shape1047-127" v:mID="1047" v:groupContext="shape" transform="translate(0,-4.25197)">
					<title>Blad.1047</title>
					<path d="M3.74 136.81 L4.1 136.81 L52.59 136.81" class="st8"/>
				</g>
			</g>
			<g id="shape1048-134" v:mID="1048" v:groupContext="shape" transform="translate(4.25197,-22.6772)">
				<title>Blad.1048</title>
				<desc>L</desc>
				<v:textBlock v:margins="rect(4,4,4,4)" v:tabSpace="42.5197"/>
				<v:textRect cx="14.1732" cy="131.144" width="28.35" height="11.3386"/>
				<rect x="0" y="125.474" width="28.3465" height="11.3386" class="st10"/>
				<text x="10.84" y="134.74" class="st11" v:langID="1043"><v:paragraph v:horizAlign="1"/><v:tabList/>L</text>			</g>
		</g>
		<g id="shape1049-137" v:mID="1049" v:groupContext="shape" transform="translate(6.31401,-89.6663)">
			<title>EI.1049</title>
			<desc>2EA</desc>
			<v:textBlock v:margins="rect(4,4,4,4)" v:tabSpace="42.5197"/>
			<v:textRect cx="16.2992" cy="129.726" width="32.6" height="14.1732"/>
			<rect x="0" y="122.64" width="32.5984" height="14.1732" class="st12"/>
			<text x="5.97" y="133.33" class="st11" v:langID="1043"><v:paragraph v:horizAlign="1"/><v:tabList/>2EA</text>		</g>
		<g id="shape1050-142" v:mID="1050" v:groupContext="shape" transform="translate(7.377,-49.6063)">
			<title>EI.1050</title>
			<desc>EA</desc>
			<v:textBlock v:margins="rect(4,4,4,4)" v:tabSpace="42.5197"/>
			<v:textRect cx="16.2992" cy="129.726" width="32.6" height="14.1732"/>
			<rect x="0" y="122.64" width="32.5984" height="14.1732" class="st12"/>
			<text x="8.97" y="133.33" class="st11" v:langID="1043"><v:paragraph v:horizAlign="1"/><v:tabList/>EA</text>		</g>
		<g id="shape1051-146" v:mID="1051" v:groupContext="shape" transform="translate(42.4557,-40.06)">
			<title>F1.1051</title>
			<desc>F</desc>
			<v:textBlock v:margins="rect(4,4,4,4)" v:tabSpace="42.5197"/>
			<v:textRect cx="10.6299" cy="129.726" width="21.26" height="14.1732"/>
			<rect x="0" y="122.64" width="21.2598" height="14.1732" class="st12"/>
			<text x="6.97" y="133.33" class="st11" v:langID="1043"><v:paragraph v:horizAlign="1"/><v:tabList/>F</text>		</g>
		<g id="shape1052-150" v:mID="1052" v:groupContext="shape" transform="translate(40.3297,-110.926)">
			<title>Punt A.1052</title>
			<desc>A</desc>
			<v:textBlock v:margins="rect(4,4,4,4)" v:tabSpace="42.5197"/>
			<v:textRect cx="7.08661" cy="129.726" width="14.18" height="14.1732"/>
			<rect x="0" y="122.64" width="14.1732" height="14.1732" class="st14"/>
			<text x="4" y="133.33" class="st15" v:langID="1043"><v:paragraph v:horizAlign="1"/><v:tabList/>A</text>		</g>
		<g id="shape1053-153" v:mID="1053" v:groupContext="shape" transform="translate(40.3297,-11.7136)">
			<title>Punt A.1053</title>
			<desc>B</desc>
			<v:textBlock v:margins="rect(4,4,4,4)" v:tabSpace="42.5197"/>
			<v:textRect cx="7.08661" cy="129.726" width="14.18" height="14.1732"/>
			<rect x="0" y="122.64" width="14.1732" height="14.1732" class="st14"/>
			<text x="4" y="133.33" class="st15" v:langID="1043"><v:paragraph v:horizAlign="1"/><v:tabList/>B</text>		</g>
		<g id="shape1054-156" v:mID="1054" v:groupContext="shape" transform="translate(40.3297,-61.3199)">
			<title>Punt A.1054</title>
			<desc>C</desc>
			<v:textBlock v:margins="rect(4,4,4,4)" v:tabSpace="42.5197"/>
			<v:textRect cx="7.08661" cy="129.726" width="14.18" height="14.1732"/>
			<rect x="0" y="122.64" width="14.1732" height="14.1732" class="st14"/>
			<text x="4" y="133.33" class="st15" v:langID="1043"><v:paragraph v:horizAlign="1"/><v:tabList/>C</text>		</g>
		<g id="group1055-159" transform="translate(-115.328,125.474) rotate(-90)" v:mID="1055" v:groupContext="group">
			<title>x-as</title>
			<g id="shape1056-160" v:mID="1056" v:groupContext="shape" transform="translate(-1.56816E-12,-14.1732)">
				<title>Blad.1056</title>
				<path d="M0 136.81 L22.62 136.81" class="st16"/>
			</g>
			<g id="shape1057-167" v:mID="1057" v:groupContext="shape" transform="translate(150.986,122.64) rotate(90)">
				<title>Blad.1057</title>
				<desc>x</desc>
				<v:textBlock v:margins="rect(4,4,4,4)" v:tabSpace="42.5197"/>
				<v:textRect cx="7.08661" cy="129.726" width="14.18" height="14.1732"/>
				<rect x="0" y="122.64" width="14.1732" height="14.1732" class="st10"/>
				<text x="4.42" y="133.33" class="st11" v:langID="1043"><v:paragraph v:horizAlign="1"/><v:tabList/>x</text>			</g>
		</g>
	</g>
</svg>
