<?xml version="1.0" encoding="UTF-8" standalone="no"?>
<!DOCTYPE svg PUBLIC "-//W3C//DTD SVG 1.1//EN" "http://www.w3.org/Graphics/SVG/1.1/DTD/svg11.dtd">
<!-- Gegenereerd door Microsoft Visio, SVG Export loading_2.svg Pagina-1 -->
<svg xmlns="http://www.w3.org/2000/svg" xmlns:xlink="http://www.w3.org/1999/xlink" xmlns:ev="http://www.w3.org/2001/xml-events"
		xmlns:v="http://schemas.microsoft.com/visio/2003/SVGExtensions/" width="6.08209in" height="1.08306in"
		viewBox="0 0 437.91 77.9802" xml:space="preserve" color-interpolation-filters="sRGB" class="st16">
	<v:documentProperties v:langID="1043" v:metric="true" v:viewMarkup="false"/>

	<style type="text/css">
	<![CDATA[
		.st1 {fill:#00cc99;stroke:#000000;stroke-linecap:round;stroke-linejoin:round;stroke-width:0.75}
		.st2 {stroke:#000000;stroke-linecap:round;stroke-linejoin:round;stroke-width:0.75}
		.st3 {stroke:#000000;stroke-linecap:round;stroke-linejoin:round;stroke-width:4.5}
		.st4 {stroke:#000000;stroke-linecap:round;stroke-linejoin:round;stroke-width:2}
		.st5 {stroke:#000000;stroke-linecap:round;stroke-linejoin:round;stroke-width:1.2}
		.st6 {fill:#ffffff;stroke:#000000;stroke-linecap:round;stroke-linejoin:round;stroke-width:0.75}
		.st7 {marker-end:url(#mrkr1-83);stroke:#000000;stroke-linecap:butt;stroke-width:3}
		.st8 {fill:#000000;fill-opacity:1;stroke:#000000;stroke-opacity:1;stroke-width:0.67567567567568}
		.st9 {stroke:#000000;stroke-dasharray:5.25,3.75;stroke-linecap:round;stroke-linejoin:round;stroke-width:0.75}
		.st10 {fill:none;stroke:none;stroke-linecap:round;stroke-linejoin:round;stroke-width:0.75}
		.st11 {fill:#000000;font-family:Times New Roman;font-size:1.00001em}
		.st12 {fill:#000000;font-family:Times New Roman;font-size:1.00001em;font-style:italic}
		.st13 {baseline-shift:-32.4941%;font-size:0.649882em;font-style:normal}
		.st14 {font-size:1em;font-style:normal}
		.st15 {stroke:#000000;stroke-linecap:round;stroke-linejoin:round;stroke-width:0.25}
		.st16 {fill:none;fill-rule:evenodd;font-size:12px;overflow:visible;stroke-linecap:square;stroke-miterlimit:3}
	]]>
	</style>

	<defs id="Markers">
		<g id="lend1">
			<path d="M 1 -1 L 0 0 L 1 1 " style="stroke-linecap:round;stroke-linejoin:round;fill:none"/>
		</g>
		<marker id="mrkr1-83" class="st8" v:arrowType="1" v:arrowSize="0" orient="auto" markerUnits="strokeWidth"
				overflow="visible">
			<use xlink:href="#lend1" transform="scale(-1.48,-1.48) "/>
		</marker>
	</defs>
	<g v:mID="0" v:index="1" v:groupContext="foregroundPage">
		<title>Pagina-1</title>
		<v:pageProperties v:drawingScale="0.0393701" v:pageScale="0.0393701" v:drawingUnits="24" v:shadowOffsetX="8.50394"
				v:shadowOffsetY="-8.50394"/>
		<g id="group12385-1" transform="translate(47.7716,-29.1814)" v:mID="12385" v:groupContext="group">
			<title>Rol.12385</title>
			<g id="group12386-2" transform="translate(0.261477,-2.83465)" v:mID="12386" v:groupContext="group">
				<title>Scharnier</title>
				<g id="shape12387-3" v:mID="12387" v:groupContext="shape" transform="translate(2.79729,0)">
					<title>Blad.12387</title>
					<path d="M0 77.98 L13.99 77.98 L6.99 66.64 L0 77.98 Z" class="st1"/>
				</g>
				<g id="shape12388-5" v:mID="12388" v:groupContext="shape" transform="translate(2.79729,155.96) rotate(180)">
					<title>Blad.12388</title>
					<path d="M0 77.98 L2.8 77.98" class="st2"/>
				</g>
				<g id="shape12389-8" v:mID="12389" v:groupContext="shape" transform="translate(16.7838,0)">
					<title>Blad.12389</title>
					<path d="M0 77.98 L2.8 77.98" class="st2"/>
				</g>
			</g>
			<g id="shape12390-11" v:mID="12390" v:groupContext="shape">
				<title>Blad.12390</title>
				<path d="M0 77.98 L19.84 77.98" class="st2"/>
			</g>
		</g>
		<g id="group12391-14" transform="translate(161.157,-29.1814)" v:mID="12391" v:groupContext="group">
			<title>Rol.12391</title>
			<g id="group12392-15" transform="translate(0.261477,-2.83465)" v:mID="12392" v:groupContext="group">
				<title>Scharnier</title>
				<g id="shape12393-16" v:mID="12393" v:groupContext="shape" transform="translate(2.79729,0)">
					<title>Blad.12393</title>
					<path d="M0 77.98 L13.99 77.98 L6.99 66.64 L0 77.98 Z" class="st1"/>
				</g>
				<g id="shape12394-18" v:mID="12394" v:groupContext="shape" transform="translate(2.79729,155.96) rotate(180)">
					<title>Blad.12394</title>
					<path d="M0 77.98 L2.8 77.98" class="st2"/>
				</g>
				<g id="shape12395-21" v:mID="12395" v:groupContext="shape" transform="translate(16.7838,0)">
					<title>Blad.12395</title>
					<path d="M0 77.98 L2.8 77.98" class="st2"/>
				</g>
			</g>
			<g id="shape12396-24" v:mID="12396" v:groupContext="shape">
				<title>Blad.12396</title>
				<path d="M0 77.98 L19.84 77.98" class="st2"/>
			</g>
		</g>
		<g id="shape12397-27" v:mID="12397" v:groupContext="shape" transform="translate(171.079,-43.3546)">
			<title>Ligger, 2 pt.12397</title>
			<path d="M0 77.98 L56.69 77.98" class="st3"/>
		</g>
		<g id="shape12398-30" v:mID="12398" v:groupContext="shape" transform="translate(1,-43.3546)">
			<title>Ligger, 2 pt.12398</title>
			<path d="M0 77.98 L425.2 77.98" class="st4"/>
		</g>
		<g id="group12399-33" transform="translate(437.535,98.4325) rotate(180)" v:mID="12399" v:groupContext="group">
			<title>Inklemming.12399</title>
			<g id="shape12400-34" v:mID="12400" v:groupContext="shape" transform="translate(89.3188,49.6337) rotate(90)">
				<title>Blad.12400</title>
				<path d="M0 77.98 L28.35 77.98" class="st5"/>
			</g>
			<g id="shape12401-37" v:mID="12401" v:groupContext="shape" transform="translate(63.6442,-5.50659) rotate(45)">
				<title>Blad.12401</title>
				<path d="M0 77.98 L4.01 77.98" class="st2"/>
			</g>
			<g id="shape12402-40" v:mID="12402" v:groupContext="shape" transform="translate(60.8096,-5.50659) rotate(45)">
				<title>Blad.12402</title>
				<path d="M0 77.98 L8.02 77.98" class="st2"/>
			</g>
			<g id="shape12403-43" v:mID="12403" v:groupContext="shape" transform="translate(57.975,-5.50659) rotate(45)">
				<title>Blad.12403</title>
				<path d="M0 77.98 L12.03 77.98" class="st2"/>
			</g>
			<g id="shape12404-46" v:mID="12404" v:groupContext="shape" transform="translate(55.1403,-5.50659) rotate(45)">
				<title>Blad.12404</title>
				<path d="M0 77.98 L16.04 77.98" class="st2"/>
			</g>
			<g id="shape12405-49" v:mID="12405" v:groupContext="shape" transform="translate(55.1403,-2.67195) rotate(45)">
				<title>Blad.12405</title>
				<path d="M0 77.98 L16.04 77.98" class="st2"/>
			</g>
			<g id="shape12406-52" v:mID="12406" v:groupContext="shape" transform="translate(55.1403,0.162698) rotate(45)">
				<title>Blad.12406</title>
				<path d="M0 77.98 L16.04 77.98" class="st2"/>
			</g>
			<g id="shape12407-55" v:mID="12407" v:groupContext="shape" transform="translate(55.1403,2.99734) rotate(45)">
				<title>Blad.12407</title>
				<path d="M0 77.98 L16.04 77.98" class="st2"/>
			</g>
			<g id="shape12408-58" v:mID="12408" v:groupContext="shape" transform="translate(55.1403,5.83199) rotate(45)">
				<title>Blad.12408</title>
				<path d="M0 77.98 L16.04 77.98" class="st2"/>
			</g>
			<g id="shape12409-61" v:mID="12409" v:groupContext="shape" transform="translate(55.1403,8.66663) rotate(45)">
				<title>Blad.12409</title>
				<path d="M0 77.98 L16.04 77.98" class="st2"/>
			</g>
			<g id="shape12410-64" v:mID="12410" v:groupContext="shape" transform="translate(55.1403,11.5013) rotate(45)">
				<title>Blad.12410</title>
				<path d="M0 77.98 L16.04 77.98" class="st2"/>
			</g>
			<g id="shape12411-67" v:mID="12411" v:groupContext="shape" transform="translate(55.1403,14.3359) rotate(45)">
				<title>Blad.12411</title>
				<path d="M0 77.98 L12.03 77.98" class="st2"/>
			</g>
			<g id="shape12412-70" v:mID="12412" v:groupContext="shape" transform="translate(55.1403,17.1706) rotate(45)">
				<title>Blad.12412</title>
				<path d="M0 77.98 L8.02 77.98" class="st2"/>
			</g>
			<g id="shape12413-73" v:mID="12413" v:groupContext="shape" transform="translate(55.1403,20.0052) rotate(45)">
				<title>Blad.12413</title>
				<path d="M0 77.98 L4.01 77.98" class="st2"/>
			</g>
		</g>
		<g id="shape12414-76" v:mID="12414" v:groupContext="shape" transform="translate(339.031,-41.2286)">
			<title>Scharnier.12414</title>
			<ellipse cx="2.12598" cy="75.8542" rx="2.12598" ry="2.12598" class="st6"/>
		</g>
		<g id="shape12417-78" v:mID="12417" v:groupContext="shape"
				transform="translate(339.777,-0.374931) rotate(63.7608) scale(-1,1)">
			<title>Hoekverdraaiing.12417</title>
			<path d="M0 77.98 C9.5 72.79 21.53 74.76 31.02 77.98" class="st7"/>
		</g>
		<g id="shape12419-84" v:mID="12419" v:groupContext="shape" transform="translate(172.631,-20.5147) rotate(-45)">
			<title>Blad.12419</title>
			<path d="M0 77.98 L48.19 77.98" class="st9"/>
		</g>
		<g id="shape12420-87" v:mID="12420" v:groupContext="shape" transform="translate(257.819,-57.5278)">
			<title>Blad.12420</title>
			<desc>1</desc>
			<v:textBlock v:margins="rect(4,4,4,4)" v:tabSpace="42.5197"/>
			<v:textRect cx="14.1732" cy="70.8936" width="28.35" height="14.1732"/>
			<rect x="0" y="63.8069" width="28.3465" height="14.1732" class="st10"/>
			<text x="11.17" y="74.49" class="st11" v:langID="1043"><v:paragraph v:horizAlign="1"/><v:tabList/>1</text>		</g>
		<g id="shape12421-90" v:mID="12421" v:groupContext="shape" transform="translate(284.465,-0.83492)">
			<title>Blad.12421</title>
			<desc>wF = ?</desc>
			<v:textBlock v:margins="rect(4,4,4,4)" v:tabSpace="42.5197"/>
			<v:textRect cx="56.6929" cy="70.8936" width="113.39" height="14.1732"/>
			<rect x="0" y="63.8069" width="113.386" height="14.1732" class="st10"/>
			<text x="41.48" y="74.49" class="st12" v:langID="1043"><v:paragraph v:horizAlign="1"/><v:tabList/>w<tspan dy="-0.279em"
						class="st13" v:baseFontSize="12">F</tspan><tspan dy="0.181em" class="st14"> </tspan><tspan class="st14">= ?</tspan></text>		</g>
		<g id="shape12422-96" v:mID="12422" v:groupContext="shape" transform="translate(265.607,62.972) rotate(-90)">
			<title>Blad.12422</title>
			<path d="M0 75.55 C3.16 73.76 3.91 75.24 5.31 76.26 C8.54 78.58 15.28 78.46 17.01 76.54 C18.23 75.18 16.94 72.92 15.94
						 72.86 C15.04 72.8 14.38 74.57 15.59 75.69 C17.65 77.59 25.12 77.61 28.35 75.55" class="st15"/>
		</g>
	</g>
</svg>
