<?xml version="1.0" encoding="UTF-8" standalone="no"?>
<!DOCTYPE svg PUBLIC "-//W3C//DTD SVG 1.1//EN" "http://www.w3.org/Graphics/SVG/1.1/DTD/svg11.dtd">
<!-- Gegenereerd door Microsoft Visio, SVG Export Tekening1.svg Pagina-1 -->
<svg xmlns="http://www.w3.org/2000/svg" xmlns:xlink="http://www.w3.org/1999/xlink" xmlns:ev="http://www.w3.org/2001/xml-events"
		xmlns:v="http://schemas.microsoft.com/visio/2003/SVGExtensions/" width="1.90018in" height="1.18798in"
		viewBox="0 0 136.813 85.5344" xml:space="preserve" color-interpolation-filters="sRGB" class="st17">
	<v:documentProperties v:langID="1043" v:metric="true" v:viewMarkup="false"/>

	<style type="text/css">
	<![CDATA[
		.st1 {stroke:#000000;stroke-linecap:round;stroke-linejoin:round;stroke-width:1.2}
		.st2 {stroke:#000000;stroke-linecap:round;stroke-linejoin:round;stroke-width:0.75}
		.st3 {stroke:#000000;stroke-linecap:round;stroke-linejoin:round;stroke-width:2}
		.st4 {marker-end:url(#mrkr5-97);stroke:#800000;stroke-linecap:round;stroke-linejoin:round;stroke-width:1.2}
		.st5 {fill:#800000;fill-opacity:1;stroke:#800000;stroke-opacity:1;stroke-width:0.45454545454545}
		.st6 {stroke:#800000;stroke-linecap:round;stroke-linejoin:round;stroke-width:1.2}
		.st7 {fill:none;stroke:none;stroke-linecap:round;stroke-linejoin:round;stroke-width:0.24}
		.st8 {fill:#000000;font-family:Times New Roman;font-size:1.00001em;font-style:italic}
		.st9 {stroke:#000000;stroke-linecap:round;stroke-linejoin:round;stroke-width:0.25}
		.st10 {marker-end:url(#mrkr4-140);marker-start:url(#mrkr4-138);stroke:#000000;stroke-linecap:round;stroke-linejoin:round;stroke-width:0.25}
		.st11 {fill:#000000;fill-opacity:1;stroke:#000000;stroke-opacity:1;stroke-width:0.1219512195122}
		.st12 {fill:none;stroke:none;stroke-linecap:round;stroke-linejoin:round;stroke-width:0.75}
		.st13 {fill:#000000;font-family:Times New Roman;font-size:1.00001em}
		.st14 {marker-end:url(#mrkr1-179);stroke:#000000;stroke-linecap:butt;stroke-width:3}
		.st15 {fill:#000000;fill-opacity:1;stroke:#000000;stroke-opacity:1;stroke-width:0.67567567567568}
		.st16 {baseline-shift:-32.4941%;font-size:0.649882em;font-style:normal}
		.st17 {fill:none;fill-rule:evenodd;font-size:12px;overflow:visible;stroke-linecap:square;stroke-miterlimit:3}
	]]>
	</style>

	<defs id="Markers">
		<g id="lend5">
			<path d="M 2 1 L 0 0 L 1.98117 -0.993387 C 1.67173 -0.364515 1.67301 0.372641 1.98465 1.00043 " style="stroke:none"/>
		</g>
		<marker id="mrkr5-97" class="st5" v:arrowType="5" v:arrowSize="0" v:setback="3.85" refX="-3.85" orient="auto"
				markerUnits="strokeWidth" overflow="visible">
			<use xlink:href="#lend5" transform="scale(-2.2,-2.2) "/>
		</marker>
		<g id="lend4">
			<path d="M 2 1 L 0 0 L 2 -1 L 2 1 " style="stroke:none"/>
		</g>
		<marker id="mrkr4-138" class="st11" v:arrowType="4" v:arrowSize="1" v:setback="14.96" refX="14.96" orient="auto"
				markerUnits="strokeWidth" overflow="visible">
			<use xlink:href="#lend4" transform="scale(8.2) "/>
		</marker>
		<marker id="mrkr4-140" class="st11" v:arrowType="4" v:arrowSize="1" v:setback="16.4" refX="-16.4" orient="auto"
				markerUnits="strokeWidth" overflow="visible">
			<use xlink:href="#lend4" transform="scale(-8.2,-8.2) "/>
		</marker>
		<g id="lend1">
			<path d="M 1 -1 L 0 0 L 1 1 " style="stroke-linecap:round;stroke-linejoin:round;fill:none"/>
		</g>
		<marker id="mrkr1-179" class="st15" v:arrowType="1" v:arrowSize="0" orient="auto" markerUnits="strokeWidth"
				overflow="visible">
			<use xlink:href="#lend1" transform="scale(-1.48,-1.48) "/>
		</marker>
	</defs>
	<g v:mID="0" v:index="1" v:groupContext="foregroundPage">
		<title>Pagina-1</title>
		<v:pageProperties v:drawingScale="0.0393701" v:pageScale="0.0393701" v:drawingUnits="24" v:shadowOffsetX="8.50394"
				v:shadowOffsetY="-8.50394"/>
		<g id="group2092-1" transform="translate(0.375,-42.8947)" v:mID="2092" v:groupContext="group">
			<title>Inklemming.2092</title>
			<g id="shape2093-2" v:mID="2093" v:groupContext="shape" transform="translate(96.873,57.1879) rotate(90)">
				<title>Blad.2093</title>
				<path d="M0 85.53 L28.35 85.53" class="st1"/>
			</g>
			<g id="shape2094-5" v:mID="2094" v:groupContext="shape" transform="translate(68.9859,-3.29402) rotate(45)">
				<title>Blad.2094</title>
				<path d="M0 85.53 L4.01 85.53" class="st2"/>
			</g>
			<g id="shape2095-8" v:mID="2095" v:groupContext="shape" transform="translate(66.1512,-3.29402) rotate(45)">
				<title>Blad.2095</title>
				<path d="M0 85.53 L8.02 85.53" class="st2"/>
			</g>
			<g id="shape2096-11" v:mID="2096" v:groupContext="shape" transform="translate(63.3166,-3.29402) rotate(45)">
				<title>Blad.2096</title>
				<path d="M0 85.53 L12.03 85.53" class="st2"/>
			</g>
			<g id="shape2097-14" v:mID="2097" v:groupContext="shape" transform="translate(60.4819,-3.29402) rotate(45)">
				<title>Blad.2097</title>
				<path d="M0 85.53 L16.04 85.53" class="st2"/>
			</g>
			<g id="shape2098-17" v:mID="2098" v:groupContext="shape" transform="translate(60.4819,-0.459373) rotate(45)">
				<title>Blad.2098</title>
				<path d="M0 85.53 L16.04 85.53" class="st2"/>
			</g>
			<g id="shape2099-20" v:mID="2099" v:groupContext="shape" transform="translate(60.4819,2.37527) rotate(45)">
				<title>Blad.2099</title>
				<path d="M0 85.53 L16.04 85.53" class="st2"/>
			</g>
			<g id="shape2100-23" v:mID="2100" v:groupContext="shape" transform="translate(60.4819,5.20992) rotate(45)">
				<title>Blad.2100</title>
				<path d="M0 85.53 L16.04 85.53" class="st2"/>
			</g>
			<g id="shape2101-26" v:mID="2101" v:groupContext="shape" transform="translate(60.4819,8.04456) rotate(45)">
				<title>Blad.2101</title>
				<path d="M0 85.53 L16.04 85.53" class="st2"/>
			</g>
			<g id="shape2102-29" v:mID="2102" v:groupContext="shape" transform="translate(60.4819,10.8792) rotate(45)">
				<title>Blad.2102</title>
				<path d="M0 85.53 L16.04 85.53" class="st2"/>
			</g>
			<g id="shape2103-32" v:mID="2103" v:groupContext="shape" transform="translate(60.4819,13.7139) rotate(45)">
				<title>Blad.2103</title>
				<path d="M0 85.53 L16.04 85.53" class="st2"/>
			</g>
			<g id="shape2104-35" v:mID="2104" v:groupContext="shape" transform="translate(60.4819,16.5485) rotate(45)">
				<title>Blad.2104</title>
				<path d="M0 85.53 L12.03 85.53" class="st2"/>
			</g>
			<g id="shape2105-38" v:mID="2105" v:groupContext="shape" transform="translate(60.4819,19.3831) rotate(45)">
				<title>Blad.2105</title>
				<path d="M0 85.53 L8.02 85.53" class="st2"/>
			</g>
			<g id="shape2106-41" v:mID="2106" v:groupContext="shape" transform="translate(60.4819,22.2178) rotate(45)">
				<title>Blad.2106</title>
				<path d="M0 85.53 L4.01 85.53" class="st2"/>
			</g>
		</g>
		<g id="shape2107-44" v:mID="2107" v:groupContext="shape" transform="translate(11.7136,-57.0679) rotate(2.4909E-07)">
			<title>Ligger, 2 pt.2107</title>
			<path d="M0 85.53 L113.39 85.53" class="st3"/>
		</g>
		<g id="group2108-47" transform="translate(136.438,99.8276) rotate(180)" v:mID="2108" v:groupContext="group">
			<title>Inklemming.2108</title>
			<g id="shape2109-48" v:mID="2109" v:groupContext="shape" transform="translate(96.873,57.1879) rotate(90)">
				<title>Blad.2109</title>
				<path d="M0 85.53 L28.35 85.53" class="st1"/>
			</g>
			<g id="shape2110-51" v:mID="2110" v:groupContext="shape" transform="translate(68.9859,-3.29402) rotate(45)">
				<title>Blad.2110</title>
				<path d="M0 85.53 L4.01 85.53" class="st2"/>
			</g>
			<g id="shape2111-54" v:mID="2111" v:groupContext="shape" transform="translate(66.1512,-3.29402) rotate(45)">
				<title>Blad.2111</title>
				<path d="M0 85.53 L8.02 85.53" class="st2"/>
			</g>
			<g id="shape2112-57" v:mID="2112" v:groupContext="shape" transform="translate(63.3166,-3.29402) rotate(45)">
				<title>Blad.2112</title>
				<path d="M0 85.53 L12.03 85.53" class="st2"/>
			</g>
			<g id="shape2113-60" v:mID="2113" v:groupContext="shape" transform="translate(60.4819,-3.29402) rotate(45)">
				<title>Blad.2113</title>
				<path d="M0 85.53 L16.04 85.53" class="st2"/>
			</g>
			<g id="shape2114-63" v:mID="2114" v:groupContext="shape" transform="translate(60.4819,-0.459373) rotate(45)">
				<title>Blad.2114</title>
				<path d="M0 85.53 L16.04 85.53" class="st2"/>
			</g>
			<g id="shape2115-66" v:mID="2115" v:groupContext="shape" transform="translate(60.4819,2.37527) rotate(45)">
				<title>Blad.2115</title>
				<path d="M0 85.53 L16.04 85.53" class="st2"/>
			</g>
			<g id="shape2116-69" v:mID="2116" v:groupContext="shape" transform="translate(60.4819,5.20992) rotate(45)">
				<title>Blad.2116</title>
				<path d="M0 85.53 L16.04 85.53" class="st2"/>
			</g>
			<g id="shape2117-72" v:mID="2117" v:groupContext="shape" transform="translate(60.4819,8.04456) rotate(45)">
				<title>Blad.2117</title>
				<path d="M0 85.53 L16.04 85.53" class="st2"/>
			</g>
			<g id="shape2118-75" v:mID="2118" v:groupContext="shape" transform="translate(60.4819,10.8792) rotate(45)">
				<title>Blad.2118</title>
				<path d="M0 85.53 L16.04 85.53" class="st2"/>
			</g>
			<g id="shape2119-78" v:mID="2119" v:groupContext="shape" transform="translate(60.4819,13.7139) rotate(45)">
				<title>Blad.2119</title>
				<path d="M0 85.53 L16.04 85.53" class="st2"/>
			</g>
			<g id="shape2120-81" v:mID="2120" v:groupContext="shape" transform="translate(60.4819,16.5485) rotate(45)">
				<title>Blad.2120</title>
				<path d="M0 85.53 L12.03 85.53" class="st2"/>
			</g>
			<g id="shape2121-84" v:mID="2121" v:groupContext="shape" transform="translate(60.4819,19.3831) rotate(45)">
				<title>Blad.2121</title>
				<path d="M0 85.53 L8.02 85.53" class="st2"/>
			</g>
			<g id="shape2122-87" v:mID="2122" v:groupContext="shape" transform="translate(60.4819,22.2178) rotate(45)">
				<title>Blad.2122</title>
				<path d="M0 85.53 L4.01 85.53" class="st2"/>
			</g>
		</g>
		<g id="group2123-90" transform="translate(11.7136,-57.0679)" v:mID="2123" v:groupContext="group">
			<title>q-last constnt.1173</title>
			<g id="group2124-91" v:mID="2124" v:groupContext="group">
				<title>q-last, recht.51</title>
				<g id="shape2125-92" v:mID="2125" v:groupContext="shape" transform="translate(85.5344,71.3611) rotate(90)">
					<title>Kracht.5</title>
					<path d="M0 85.53 L9.55 85.53" class="st4"/>
				</g>
				<g id="shape2126-98" v:mID="2126" v:groupContext="shape" transform="translate(1.59872E-14,-14.1732)">
					<title>Blad.2126</title>
					<path d="M0 85.53 L113.39 85.53" class="st6"/>
				</g>
				<g id="shape2127-101" v:mID="2127" v:groupContext="shape" transform="translate(106.15,71.3611) rotate(90)">
					<title>Kracht.4</title>
					<path d="M0 85.53 L9.55 85.53" class="st4"/>
				</g>
				<g id="shape2128-106" v:mID="2128" v:groupContext="shape" transform="translate(126.766,71.3611) rotate(90)">
					<title>Kracht.9</title>
					<path d="M0 85.53 L9.55 85.53" class="st4"/>
				</g>
				<g id="shape2129-111" v:mID="2129" v:groupContext="shape" transform="translate(198.92,71.3611) rotate(90)">
					<title>Kracht.6</title>
					<path d="M0 85.53 L9.55 85.53" class="st4"/>
				</g>
				<g id="shape2130-116" v:mID="2130" v:groupContext="shape" transform="translate(178.305,71.3611) rotate(90)">
					<title>Kracht.7</title>
					<path d="M0 85.53 L9.55 85.53" class="st4"/>
				</g>
			</g>
			<g id="shape2131-121" v:mID="2131" v:groupContext="shape" transform="translate(0,-14.1732)">
				<title>A.58</title>
				<desc>q</desc>
				<v:textBlock v:margins="rect(4,4,4,4)" v:tabSpace="42.5197"/>
				<v:textRect cx="56.6929" cy="78.4478" width="113.39" height="14.1732"/>
				<rect x="0" y="71.3611" width="113.386" height="14.1732" class="st7"/>
				<text x="53.69" y="82.05" class="st8" v:langID="1043"><v:paragraph v:horizAlign="1"/><v:tabList/>q</text>			</g>
		</g>
		<g id="group2132-124" transform="translate(11.7136,-0.375)" v:mID="2132" v:groupContext="group">
			<title>Maatlijn.2132</title>
			<g id="group2133-125" transform="translate(0,-9.92126)" v:mID="2133" v:groupContext="group">
				<title>Maatlijn.31</title>
				<g id="shape2134-126" v:mID="2134" v:groupContext="shape" transform="translate(85.5344,77.0304) rotate(90)">
					<title>Blad.2134</title>
					<path d="M0 85.53 L8.5 85.53" class="st9"/>
				</g>
				<g id="shape2135-129" v:mID="2135" v:groupContext="shape" transform="translate(142.227,77.0304) rotate(90)">
					<title>Blad.2135</title>
					<path d="M0 85.53 L8.5 85.53" class="st9"/>
				</g>
				<g id="shape2136-132" v:mID="2136" v:groupContext="shape" transform="translate(0,-4.25197)">
					<title>Blad.2136</title>
					<path d="M3.74 85.53 L4.1 85.53 L52.59 85.53" class="st10"/>
				</g>
			</g>
			<g id="shape2137-141" v:mID="2137" v:groupContext="shape">
				<title>Blad.2137</title>
				<desc>2 m</desc>
				<v:textBlock v:margins="rect(4,4,4,4)" v:tabSpace="42.5197"/>
				<v:textRect cx="28.3465" cy="78.4478" width="56.7" height="14.1732"/>
				<rect x="0" y="71.3611" width="56.6929" height="14.1732" class="st12"/>
				<text x="19.18" y="82.05" class="st13" v:langID="1043"><v:paragraph v:horizAlign="1"/><v:tabList/>2 m</text>			</g>
		</g>
		<g id="shape2138-144" v:mID="2138" v:groupContext="shape" transform="translate(11.7136,-42.8947)">
			<title>Punt A.2138</title>
			<desc>A</desc>
			<v:textBlock v:margins="rect(4,4,4,4)" v:tabSpace="42.5197"/>
			<v:textRect cx="7.08661" cy="78.4478" width="14.18" height="14.1732"/>
			<rect x="0" y="71.3611" width="14.1732" height="14.1732" class="st7"/>
			<text x="4" y="82.05" class="st13" v:langID="1043"><v:paragraph v:horizAlign="1"/><v:tabList/>A</text>		</g>
		<g id="shape2139-147" v:mID="2139" v:groupContext="shape" transform="translate(110.926,-42.8947)">
			<title>Punt A.2139</title>
			<desc>B</desc>
			<v:textBlock v:margins="rect(4,4,4,4)" v:tabSpace="42.5197"/>
			<v:textRect cx="7.08661" cy="78.4478" width="14.18" height="14.1732"/>
			<rect x="0" y="71.3611" width="14.1732" height="14.1732" class="st7"/>
			<text x="4" y="82.05" class="st13" v:langID="1043"><v:paragraph v:horizAlign="1"/><v:tabList/>B</text>		</g>
		<g id="group2140-150" transform="translate(68.4065,-0.375)" v:mID="2140" v:groupContext="group">
			<title>Maatlijn.2140</title>
			<g id="group2141-151" transform="translate(0,-9.92126)" v:mID="2141" v:groupContext="group">
				<title>Maatlijn.31</title>
				<g id="shape2142-152" v:mID="2142" v:groupContext="shape" transform="translate(85.5344,77.0304) rotate(90)">
					<title>Blad.2142</title>
					<path d="M0 85.53 L8.5 85.53" class="st9"/>
				</g>
				<g id="shape2143-155" v:mID="2143" v:groupContext="shape" transform="translate(142.227,77.0304) rotate(90)">
					<title>Blad.2143</title>
					<path d="M0 85.53 L8.5 85.53" class="st9"/>
				</g>
				<g id="shape2144-158" v:mID="2144" v:groupContext="shape" transform="translate(0,-4.25197)">
					<title>Blad.2144</title>
					<path d="M3.74 85.53 L4.1 85.53 L52.59 85.53" class="st10"/>
				</g>
			</g>
			<g id="shape2145-165" v:mID="2145" v:groupContext="shape">
				<title>Blad.2145</title>
				<desc>2 m</desc>
				<v:textBlock v:margins="rect(4,4,4,4)" v:tabSpace="42.5197"/>
				<v:textRect cx="28.3465" cy="78.4478" width="56.7" height="14.1732"/>
				<rect x="0" y="71.3611" width="56.6929" height="14.1732" class="st12"/>
				<text x="19.18" y="82.05" class="st13" v:langID="1043"><v:paragraph v:horizAlign="1"/><v:tabList/>2 m</text>			</g>
		</g>
		<g id="shape2146-168" v:mID="2146" v:groupContext="shape" transform="translate(-17.1279,31.3011) rotate(-90)">
			<title>Blad.2146</title>
			<path d="M0 85.53 L5.67 85.53" class="st2"/>
		</g>
		<g id="shape2147-171" v:mID="2147" v:groupContext="shape" transform="translate(54.2333,-43.1781)">
			<title>Punt A.2147</title>
			<desc>C</desc>
			<v:textBlock v:margins="rect(4,4,4,4)" v:tabSpace="42.5197"/>
			<v:textRect cx="7.08661" cy="78.4478" width="14.18" height="14.1732"/>
			<rect x="0" y="71.3611" width="14.1732" height="14.1732" class="st7"/>
			<text x="4" y="82.05" class="st13" v:langID="1043"><v:paragraph v:horizAlign="1"/><v:tabList/>C</text>		</g>
		<g id="shape2148-174" v:mID="2148" v:groupContext="shape" transform="translate(153.941,28.183) rotate(90)">
			<title>verplaatsing.2148</title>
			<path d="M0 85.53 L28.35 85.53" class="st14"/>
		</g>
		<g id="shape2149-180" v:mID="2149" v:groupContext="shape" transform="translate(71.2411,-25.8868)">
			<title>Punt A.2149</title>
			<desc>wC</desc>
			<v:textBlock v:margins="rect(4,4,4,4)" v:tabSpace="42.5197"/>
			<v:textRect cx="11.3386" cy="78.4478" width="22.68" height="14.1732"/>
			<rect x="0" y="71.3611" width="22.6772" height="14.1732" class="st7"/>
			<text x="4.74" y="82.05" class="st8" v:langID="1043"><v:paragraph v:horizAlign="1"/><v:tabList/>w<tspan dy="-0.279em"
						class="st16" v:baseFontSize="12">C</tspan></text>		</g>
	</g>
</svg>
