<?xml version="1.0" encoding="UTF-8" standalone="no"?>
<!DOCTYPE svg PUBLIC "-//W3C//DTD SVG 1.1//EN" "http://www.w3.org/Graphics/SVG/1.1/DTD/svg11.dtd">
<!-- Gegenereerd door Microsoft Visio, SVG Export FBD_q.svg Pagina-1 -->
<svg xmlns="http://www.w3.org/2000/svg" xmlns:xlink="http://www.w3.org/1999/xlink" xmlns:ev="http://www.w3.org/2001/xml-events"
		xmlns:v="http://schemas.microsoft.com/visio/2003/SVGExtensions/" width="1.84113in" height="0.997515in"
		viewBox="0 0 132.561 71.8211" xml:space="preserve" color-interpolation-filters="sRGB" class="st14">
	<v:documentProperties v:langID="1043" v:metric="true" v:viewMarkup="false"/>

	<style type="text/css">
	<![CDATA[
		.st1 {fill:#00cc99;stroke:#000000;stroke-linecap:round;stroke-linejoin:round;stroke-width:0.75}
		.st2 {stroke:#000000;stroke-linecap:round;stroke-linejoin:round;stroke-width:0.75}
		.st3 {fill:none;stroke:none;stroke-linecap:round;stroke-linejoin:round;stroke-width:0.24}
		.st4 {fill:#000000;font-family:Times New Roman;font-size:1.00001em;font-style:italic}
		.st5 {marker-end:url(#mrkr5-32);stroke:#800000;stroke-linecap:round;stroke-linejoin:round;stroke-width:1.2}
		.st6 {fill:#800000;fill-opacity:1;stroke:#800000;stroke-opacity:1;stroke-width:0.45454545454546}
		.st7 {stroke:#800000;stroke-linecap:round;stroke-linejoin:round;stroke-width:1.2}
		.st8 {stroke:#000000;stroke-dasharray:5.25,3.75;stroke-linecap:round;stroke-linejoin:round;stroke-width:0.75}
		.st9 {stroke:#000000;stroke-linecap:round;stroke-linejoin:round;stroke-width:2.25}
		.st10 {marker-end:url(#mrkr1-72);stroke:#000000;stroke-linecap:butt;stroke-width:3}
		.st11 {fill:#000000;fill-opacity:1;stroke:#000000;stroke-opacity:1;stroke-width:0.67567567567568}
		.st12 {fill:none;stroke:none;stroke-linecap:round;stroke-linejoin:round;stroke-width:0.75}
		.st13 {baseline-shift:-32.4941%;font-size:0.649882em;font-style:normal}
		.st14 {fill:none;fill-rule:evenodd;font-size:12px;overflow:visible;stroke-linecap:square;stroke-miterlimit:3}
	]]>
	</style>

	<defs id="Markers">
		<g id="lend5">
			<path d="M 2 1 L 0 0 L 1.98117 -0.993387 C 1.67173 -0.364515 1.67301 0.372641 1.98465 1.00043 " style="stroke:none"/>
		</g>
		<marker id="mrkr5-32" class="st6" v:arrowType="5" v:arrowSize="0" v:setback="3.85" refX="-3.85" orient="auto"
				markerUnits="strokeWidth" overflow="visible">
			<use xlink:href="#lend5" transform="scale(-2.2,-2.2) "/>
		</marker>
		<g id="lend1">
			<path d="M 1 -1 L 0 0 L 1 1 " style="stroke-linecap:round;stroke-linejoin:round;fill:none"/>
		</g>
		<marker id="mrkr1-72" class="st11" v:arrowType="1" v:arrowSize="0" orient="auto" markerUnits="strokeWidth"
				overflow="visible">
			<use xlink:href="#lend1" transform="scale(-1.48,-1.48) "/>
		</marker>
	</defs>
	<g v:mID="0" v:index="1" v:groupContext="foregroundPage">
		<title>Pagina-1</title>
		<v:pageProperties v:drawingScale="0.0393701" v:pageScale="0.0393701" v:drawingUnits="24" v:shadowOffsetX="8.50394"
				v:shadowOffsetY="-8.50394"/>
		<g id="group1-1" transform="translate(0.375,-32.016)" v:mID="1" v:groupContext="group">
			<title>Scharnieroplegging</title>
			<g id="shape2-2" v:mID="2" v:groupContext="shape" transform="translate(2.83465,0)">
				<title>Blad.2</title>
				<path d="M0 71.82 L14.17 71.82 L7.09 60.48 L0 71.82 Z" class="st1"/>
			</g>
			<g id="shape3-4" v:mID="3" v:groupContext="shape" transform="translate(2.83465,143.642) rotate(180)">
				<title>Blad.3</title>
				<path d="M0 71.82 L2.83 71.82" class="st2"/>
			</g>
			<g id="shape4-7" v:mID="4" v:groupContext="shape" transform="translate(17.0079,-1.42109E-14)">
				<title>Blad.4</title>
				<path d="M0 71.82 L2.83 71.82" class="st2"/>
			</g>
		</g>
		<g id="group5-10" transform="translate(112.344,-29.1814)" v:mID="5" v:groupContext="group">
			<title>Rol</title>
			<g id="group6-11" transform="translate(0.261477,-2.83465)" v:mID="6" v:groupContext="group">
				<title>Scharnier</title>
				<g id="shape7-12" v:mID="7" v:groupContext="shape" transform="translate(2.79729,0)">
					<title>Blad.7</title>
					<path d="M0 71.82 L13.99 71.82 L6.99 60.48 L0 71.82 Z" class="st1"/>
				</g>
				<g id="shape8-14" v:mID="8" v:groupContext="shape" transform="translate(2.79729,143.642) rotate(180)">
					<title>Blad.8</title>
					<path d="M0 71.82 L2.8 71.82" class="st2"/>
				</g>
				<g id="shape9-17" v:mID="9" v:groupContext="shape" transform="translate(16.7838,-1.42109E-14)">
					<title>Blad.9</title>
					<path d="M0 71.82 L2.8 71.82" class="st2"/>
				</g>
			</g>
			<g id="shape10-20" v:mID="10" v:groupContext="shape">
				<title>Blad.10</title>
				<path d="M0 71.82 L19.84 71.82" class="st2"/>
			</g>
		</g>
		<g id="group19-23" transform="translate(9.5876,-43.3546)" v:mID="19" v:groupContext="group">
			<title>qz-last constant</title>
			<g id="shape20-24" v:mID="20" v:groupContext="shape" transform="translate(0,-14.1732)">
				<title>A.58</title>
				<desc>q</desc>
				<v:textBlock v:margins="rect(4,4,4,4)" v:tabSpace="42.5197"/>
				<v:textRect cx="56.6929" cy="64.7344" width="113.39" height="14.1732"/>
				<rect x="0" y="57.6478" width="113.386" height="14.1732" class="st3"/>
				<text x="53.69" y="68.33" class="st4" v:langID="1043"><v:paragraph v:horizAlign="1"/><v:tabList/>q</text>			</g>
			<g id="shape21-27" v:mID="21" v:groupContext="shape" transform="translate(71.8211,57.6478) rotate(90)">
				<title>Kracht.5</title>
				<path d="M0 71.82 L9.55 71.82" class="st5"/>
			</g>
			<g id="shape22-33" v:mID="22" v:groupContext="shape" transform="translate(1.59872E-14,-14.1732)">
				<title>Blad.22</title>
				<path d="M0 71.82 L113.39 71.82" class="st7"/>
			</g>
			<g id="shape23-36" v:mID="23" v:groupContext="shape" transform="translate(94.4982,57.6478) rotate(90)">
				<title>Kracht.4</title>
				<path d="M0 71.82 L9.55 71.82" class="st5"/>
			</g>
			<g id="shape24-41" v:mID="24" v:groupContext="shape" transform="translate(117.175,57.6478) rotate(90)">
				<title>Kracht.9</title>
				<path d="M0 71.82 L9.55 71.82" class="st5"/>
			</g>
			<g id="shape25-46" v:mID="25" v:groupContext="shape" transform="translate(185.207,57.6478) rotate(90)">
				<title>Kracht.6</title>
				<path d="M0 71.82 L9.55 71.82" class="st5"/>
			</g>
			<g id="shape26-51" v:mID="26" v:groupContext="shape" transform="translate(162.53,57.6478) rotate(90)">
				<title>Kracht.37</title>
				<path d="M0 71.82 L9.55 71.82" class="st5"/>
			</g>
			<g id="shape27-56" v:mID="27" v:groupContext="shape" transform="translate(139.853,57.6478) rotate(90)">
				<title>Kracht.7</title>
				<path d="M0 71.82 L9.55 71.82" class="st5"/>
			</g>
		</g>
		<g id="shape28-61" v:mID="28" v:groupContext="shape" transform="translate(10.2963,-43.3546)">
			<title>Ligger, 2 pt</title>
			<path d="M0 71.82 L112.68 71.82" class="st8"/>
		</g>
		<g id="shape31-64" v:mID="31" v:groupContext="shape" transform="translate(9.5876,-15.2173)">
			<title>Blad.31</title>
			<path d="M0 43.68 C10.63 55.02 44.13 81.77 78.06 68.38 C91.09 63.24 104.17 52.19 112.81 43.68" class="st9"/>
		</g>
		<g id="shape34-67" v:mID="34" v:groupContext="shape" transform="translate(138.81,28.4665) rotate(90)">
			<title>verplaatsing</title>
			<path d="M0 71.82 L28.35 71.82" class="st10"/>
		</g>
		<g id="shape35-73" v:mID="35" v:groupContext="shape" transform="translate(33.9423,55.9512) rotate(67.5) scale(1,-1)">
			<title>Hoekverdraaiing</title>
			<path d="M0 71.82 C5.35 69.91 11.29 69.45 17.36 71.82" class="st10"/>
		</g>
		<g id="shape36-78" v:mID="36" v:groupContext="shape" transform="translate(173.759,79.2516) rotate(135)">
			<title>Blad.36</title>
			<path d="M0 71.82 L42.52 71.82" class="st8"/>
		</g>
		<g id="shape38-81" v:mID="38" v:groupContext="shape" transform="translate(98.6188,55.9512) rotate(112.5)">
			<title>Hoekverdraaiing.38</title>
			<path d="M0 71.82 C5.35 69.91 11.29 69.45 17.36 71.82" class="st10"/>
		</g>
		<g id="shape39-86" v:mID="39" v:groupContext="shape" transform="translate(-41.1975,79.2516) rotate(45) scale(1,-1)">
			<title>Blad.39</title>
			<path d="M0 71.82 L42.52 71.82" class="st8"/>
		</g>
		<g id="shape41-89" v:mID="41" v:groupContext="shape" transform="translate(52.8159,-0.83492)">
			<title>Blad.41</title>
			<desc>wC</desc>
			<v:textBlock v:margins="rect(4,4,4,4)" v:tabSpace="42.5197"/>
			<v:textRect cx="14.1732" cy="64.7344" width="28.35" height="14.1732"/>
			<rect x="0" y="57.6478" width="28.3465" height="14.1732" class="st12"/>
			<text x="7.57" y="68.34" class="st4" v:langID="1043"><v:paragraph v:horizAlign="1"/><v:tabList/>w<tspan dy="-0.279em"
						class="st13" v:baseFontSize="12">C</tspan></text>		</g>
		<g id="shape42-93" v:mID="42" v:groupContext="shape" transform="translate(95.3356,-15.0081)">
			<title>Blad.42</title>
			<desc>φB</desc>
			<v:textBlock v:margins="rect(4,4,4,4)" v:tabSpace="42.5197"/>
			<v:textRect cx="17.7165" cy="64.7344" width="35.44" height="14.1732"/>
			<rect x="0" y="57.6478" width="35.4331" height="14.1732" class="st12"/>
			<text x="11.8" y="68.34" class="st4" v:langID="1043"><v:paragraph v:horizAlign="1"/><v:tabList/>φ<tspan dy="-0.279em"
						class="st13" v:baseFontSize="12">B</tspan></text>		</g>
		<g id="shape44-97" v:mID="44" v:groupContext="shape" transform="translate(3.20964,-15.0081)">
			<title>Blad.44</title>
			<desc>φA</desc>
			<v:textBlock v:margins="rect(4,4,4,4)" v:tabSpace="42.5197"/>
			<v:textRect cx="17.7165" cy="64.7344" width="35.44" height="14.1732"/>
			<rect x="0" y="57.6478" width="35.4331" height="14.1732" class="st12"/>
			<text x="11.58" y="68.34" class="st4" v:langID="1043"><v:paragraph v:horizAlign="1"/><v:tabList/>φ<tspan dy="-0.279em"
						class="st13" v:baseFontSize="12">A</tspan></text>		</g>
	</g>
</svg>
