<?xml version="1.0" encoding="UTF-8" standalone="no"?>
<!DOCTYPE svg PUBLIC "-//W3C//DTD SVG 1.1//EN" "http://www.w3.org/Graphics/SVG/1.1/DTD/svg11.dtd">
<!-- Gegenereerd door Microsoft Visio, SVG Export q-w.svg Pagina-1 -->
<svg xmlns="http://www.w3.org/2000/svg" xmlns:xlink="http://www.w3.org/1999/xlink" xmlns:ev="http://www.w3.org/2001/xml-events"
		xmlns:v="http://schemas.microsoft.com/visio/2003/SVGExtensions/" width="5.0757in" height="1.91779in"
		viewBox="0 0 365.45 138.081" xml:space="preserve" color-interpolation-filters="sRGB" class="st14">
	<v:documentProperties v:langID="1043" v:metric="true" v:viewMarkup="false"/>

	<style type="text/css">
	<![CDATA[
		.st1 {marker-end:url(#mrkr5-9);stroke:#000000;stroke-linecap:round;stroke-linejoin:round;stroke-width:0.75}
		.st2 {fill:#000000;fill-opacity:1;stroke:#000000;stroke-opacity:1;stroke-width:0.22935779816514}
		.st3 {fill:none;stroke:none;stroke-linecap:round;stroke-linejoin:round;stroke-width:0.75}
		.st4 {fill:#000000;font-family:Times New Roman;font-size:1.00001em;font-style:italic}
		.st5 {font-size:1em;font-style:normal}
		.st6 {stroke:#000000;stroke-linecap:round;stroke-linejoin:round;stroke-width:0.75}
		.st7 {fill:#000000;font-family:Times New Roman;font-size:1.00001em}
		.st8 {stroke:#000000;stroke-linecap:round;stroke-linejoin:round;stroke-width:1.2}
		.st9 {stroke:#000000;stroke-dasharray:0.75,1.5;stroke-linecap:round;stroke-linejoin:round;stroke-width:0.75}
		.st10 {stroke:#000000;stroke-linecap:round;stroke-linejoin:round;stroke-width:2.25}
		.st11 {marker-end:url(#mrkr5-209);stroke:#800000;stroke-linecap:round;stroke-linejoin:round;stroke-width:2}
		.st12 {fill:#800000;fill-opacity:1;stroke:#800000;stroke-opacity:1;stroke-width:0.4424778761062}
		.st13 {fill:#800000;stroke:#ffffff;stroke-linecap:round;stroke-linejoin:round;stroke-width:0.75}
		.st14 {fill:none;fill-rule:evenodd;font-size:12px;overflow:visible;stroke-linecap:square;stroke-miterlimit:3}
	]]>
	</style>

	<defs id="Markers">
		<g id="lend5">
			<path d="M 2 1 L 0 0 L 1.98117 -0.993387 C 1.67173 -0.364515 1.67301 0.372641 1.98465 1.00043 " style="stroke:none"/>
		</g>
		<marker id="mrkr5-9" class="st2" v:arrowType="5" v:arrowSize="2" v:setback="7.63" refX="-7.63" orient="auto"
				markerUnits="strokeWidth" overflow="visible">
			<use xlink:href="#lend5" transform="scale(-4.36,-4.36) "/>
		</marker>
		<marker id="mrkr5-209" class="st12" v:arrowType="5" v:arrowSize="2" v:setback="3.775" refX="-3.775" orient="auto"
				markerUnits="strokeWidth" overflow="visible">
			<use xlink:href="#lend5" transform="scale(-2.26,-2.26) "/>
		</marker>
	</defs>
	<g v:mID="0" v:index="1" v:groupContext="foregroundPage">
		<title>Pagina-1</title>
		<v:pageProperties v:drawingScale="0.0393701" v:pageScale="0.0393701" v:drawingUnits="24" v:shadowOffsetX="8.50394"
				v:shadowOffsetY="-8.50394"/>
		<g id="group1399-1" transform="translate(24.4695,-0.375)" v:mID="1399" v:groupContext="group">
			<title>Blad.1399</title>
			<g id="group1375-2" transform="translate(32.5985,-2.83465)" v:mID="1375" v:groupContext="group">
				<title>x-as.1233</title>
				<g id="shape1376-3" v:mID="1376" v:groupContext="shape" transform="translate(-1.5605E-12,-14.1732)">
					<title>Blad.1376</title>
					<path d="M0 138.08 L277.74 138.08" class="st1"/>
				</g>
				<g id="shape1377-10" v:mID="1377" v:groupContext="shape" transform="translate(226.772,2.84217E-14)">
					<title>Blad.1377</title>
					<desc>w (mm)</desc>
					<v:textBlock v:margins="rect(4,4,4,4)" v:tabSpace="42.5197"/>
					<v:textRect cx="28.3465" cy="130.994" width="56.7" height="14.1732"/>
					<rect x="0" y="123.907" width="56.6929" height="14.1732" class="st3"/>
					<text x="9.51" y="134.6" class="st4" v:langID="1043"><v:paragraph v:horizAlign="1"/><v:tabList/>w<tspan
								class="st5"> </tspan><tspan class="st5">(mm)</tspan></text>				</g>
			</g>
			<g id="group1378-15" transform="translate(32.5984,145.768) rotate(180)" v:mID="1378" v:groupContext="group">
				<title>z-as.1236</title>
				<g id="shape1379-16" v:mID="1379" v:groupContext="shape" transform="translate(138.081,24.6948) rotate(90)">
					<title>Blad.1379</title>
					<path d="M0 138.08 L107.66 138.08" class="st1"/>
				</g>
				<g id="shape1380-21" v:mID="1380" v:groupContext="shape" transform="translate(56.6929,260.854) rotate(180)">
					<title>Blad.1380</title>
					<desc>q (kN/m)</desc>
					<v:textBlock v:margins="rect(4,4,4,4)" v:tabSpace="42.5197"/>
					<v:textRect cx="28.3465" cy="130.994" width="56.7" height="14.1732"/>
					<rect x="0" y="123.907" width="56.6929" height="14.1732" class="st3"/>
					<text x="6.18" y="134.6" class="st4" v:langID="1043"><v:paragraph v:horizAlign="1"/><v:tabList/>q <tspan
								class="st5">(kN/m)</tspan></text>				</g>
			</g>
			<g id="shape1381-25" v:mID="1381" v:groupContext="shape" transform="translate(-20.4428,121.073) rotate(-90)">
				<title>Blad.1381</title>
				<path d="M0 138.08 L2.83 138.08" class="st6"/>
			</g>
			<g id="shape1382-28" v:mID="1382" v:groupContext="shape" transform="translate(255.719,121.073) rotate(90)">
				<title>Blad.1382</title>
				<path d="M0 138.08 L2.83 138.08" class="st6"/>
			</g>
			<g id="shape1383-31" v:mID="1383" v:groupContext="shape" transform="translate(101.339,2.84217E-14)">
				<title>x-as.1243</title>
				<desc>3</desc>
				<v:textBlock v:margins="rect(4,4,4,4)" v:tabSpace="42.5197"/>
				<v:textRect cx="16.2992" cy="130.994" width="32.6" height="14.1732"/>
				<rect x="0" y="123.907" width="32.5984" height="14.1732" class="st3"/>
				<text x="13.3" y="134.59" class="st7" v:langID="1043"><v:paragraph v:horizAlign="1"/><v:tabList/>3</text>			</g>
			<g id="shape1384-34" v:mID="1384" v:groupContext="shape" transform="translate(32.5984,-101.764)">
				<title>Blad.1384</title>
				<path d="M0 138.08 L2.83 138.08" class="st6"/>
			</g>
			<g id="shape1385-37" v:mID="1385" v:groupContext="shape" transform="translate(32.5984,174.398) rotate(180)">
				<title>Blad.1385</title>
				<path d="M0 138.08 L2.83 138.08" class="st6"/>
			</g>
			<g id="shape1386-40" v:mID="1386" v:groupContext="shape" transform="translate(2.3781E-13,-94.6772)">
				<title>x-as.1249</title>
				<desc>300</desc>
				<v:textBlock v:margins="rect(4,4,4,4)" v:tabSpace="42.5197"/>
				<v:textRect cx="16.2992" cy="130.994" width="32.6" height="14.1732"/>
				<rect x="0" y="123.907" width="32.5984" height="14.1732" class="st3"/>
				<text x="7.3" y="134.59" class="st7" v:langID="1043"><v:paragraph v:horizAlign="1"/><v:tabList/>300</text>			</g>
			<g id="shape1387-43" v:mID="1387" v:groupContext="shape" transform="translate(243.071,2.84217E-14)">
				<title>x-as.1253</title>
				<desc>8</desc>
				<v:textBlock v:margins="rect(4,4,4,4)" v:tabSpace="42.5197"/>
				<v:textRect cx="16.2992" cy="130.994" width="32.6" height="14.1732"/>
				<rect x="0" y="123.907" width="32.5984" height="14.1732" class="st3"/>
				<text x="13.3" y="134.59" class="st7" v:langID="1043"><v:paragraph v:horizAlign="1"/><v:tabList/>8</text>			</g>
			<g id="shape1391-46" v:mID="1391" v:groupContext="shape" transform="translate(121.29,121.073) rotate(-90)">
				<title>Blad.1391</title>
				<path d="M0 138.08 L2.83 138.08" class="st6"/>
			</g>
			<g id="shape1392-49" v:mID="1392" v:groupContext="shape" transform="translate(397.451,121.073) rotate(90)">
				<title>Blad.1392</title>
				<path d="M0 138.08 L2.83 138.08" class="st6"/>
			</g>
			<g id="shape1393-52" v:mID="1393" v:groupContext="shape" transform="translate(1.67249E-07,-73.7008)">
				<title>x-as.1263</title>
				<desc>225</desc>
				<v:textBlock v:margins="rect(4,4,4,4)" v:tabSpace="42.5197"/>
				<v:textRect cx="16.2992" cy="130.994" width="32.6" height="14.1732"/>
				<rect x="0" y="123.907" width="32.5984" height="14.1732" class="st3"/>
				<text x="7.3" y="134.59" class="st7" v:langID="1043"><v:paragraph v:horizAlign="1"/><v:tabList/>225</text>			</g>
			<g id="shape1394-55" v:mID="1394" v:groupContext="shape" transform="translate(32.5984,-80.7874)">
				<title>Blad.1394</title>
				<path d="M0 138.08 L2.83 138.08" class="st6"/>
			</g>
			<g id="shape1395-58" v:mID="1395" v:groupContext="shape" transform="translate(32.5984,195.374) rotate(180)">
				<title>Blad.1395</title>
				<path d="M0 138.08 L2.83 138.08" class="st6"/>
			</g>
			<g id="shape1398-61" v:mID="1398" v:groupContext="shape" transform="translate(32.5985,-17.0079)">
				<title>Blad.1398</title>
				<path d="M0 138.08 L85.04 74.3 L226.77 53.04 L283.46 53.04" class="st6"/>
			</g>
		</g>
		<g id="group1403-64" transform="translate(50.69,-42.8947)" v:mID="1403" v:groupContext="group">
			<title>Blad.1403</title>
			<g id="shape1201-65" v:mID="1201" v:groupContext="shape" transform="translate(145.285,120.069) rotate(90)">
				<title>Blad.1201</title>
				<path d="M0 138.08 L18.01 138.08" class="st8"/>
			</g>
			<g id="shape1202-68" v:mID="1202" v:groupContext="shape" transform="translate(103.041,22.4311) rotate(45)">
				<title>Blad.1202</title>
				<path d="M0 138.08 L2.55 138.08" class="st6"/>
			</g>
			<g id="shape1203-71" v:mID="1203" v:groupContext="shape" transform="translate(101.24,22.4311) rotate(45)">
				<title>Blad.1203</title>
				<path d="M0 138.08 L5.09 138.08" class="st6"/>
			</g>
			<g id="shape1204-74" v:mID="1204" v:groupContext="shape" transform="translate(99.4389,22.4311) rotate(45)">
				<title>Blad.1204</title>
				<path d="M0 138.08 L7.64 138.08" class="st6"/>
			</g>
			<g id="shape1205-77" v:mID="1205" v:groupContext="shape" transform="translate(97.6378,22.4311) rotate(45)">
				<title>Blad.1205</title>
				<path d="M0 138.08 L10.19 138.08" class="st6"/>
			</g>
			<g id="shape1206-80" v:mID="1206" v:groupContext="shape" transform="translate(97.6378,24.2323) rotate(45)">
				<title>Blad.1206</title>
				<path d="M0 138.08 L10.19 138.08" class="st6"/>
			</g>
			<g id="shape1207-83" v:mID="1207" v:groupContext="shape" transform="translate(97.6378,26.0334) rotate(45)">
				<title>Blad.1207</title>
				<path d="M0 138.08 L10.19 138.08" class="st6"/>
			</g>
			<g id="shape1208-86" v:mID="1208" v:groupContext="shape" transform="translate(97.6378,27.8346) rotate(45)">
				<title>Blad.1208</title>
				<path d="M0 138.08 L10.19 138.08" class="st6"/>
			</g>
			<g id="shape1209-89" v:mID="1209" v:groupContext="shape" transform="translate(97.6378,29.6358) rotate(45)">
				<title>Blad.1209</title>
				<path d="M0 138.08 L10.19 138.08" class="st6"/>
			</g>
			<g id="shape1210-92" v:mID="1210" v:groupContext="shape" transform="translate(97.6378,31.437) rotate(45)">
				<title>Blad.1210</title>
				<path d="M0 138.08 L10.19 138.08" class="st6"/>
			</g>
			<g id="shape1211-95" v:mID="1211" v:groupContext="shape" transform="translate(97.6378,33.2382) rotate(45)">
				<title>Blad.1211</title>
				<path d="M0 138.08 L10.19 138.08" class="st6"/>
			</g>
			<g id="shape1212-98" v:mID="1212" v:groupContext="shape" transform="translate(97.6378,35.0393) rotate(45)">
				<title>Blad.1212</title>
				<path d="M0 138.08 L7.64 138.08" class="st6"/>
			</g>
			<g id="shape1213-101" v:mID="1213" v:groupContext="shape" transform="translate(97.6378,36.8405) rotate(45)">
				<title>Blad.1213</title>
				<path d="M0 138.08 L5.09 138.08" class="st6"/>
			</g>
			<g id="shape1214-104" v:mID="1214" v:groupContext="shape" transform="translate(97.6378,38.6417) rotate(45)">
				<title>Blad.1214</title>
				<path d="M0 138.08 L2.55 138.08" class="st6"/>
			</g>
			<g id="shape1215-107" v:mID="1215" v:groupContext="shape" transform="translate(7.20472,-9.00591) rotate(2.4909E-07)">
				<title>Ligger, 2 pt.1215</title>
				<path d="M0 138.08 L72.05 138.08" class="st9"/>
			</g>
			<g id="shape1217-110" v:mID="1217" v:groupContext="shape" transform="translate(-58.8287,138.081) rotate(-90)">
				<title>Blad.1217</title>
				<path d="M0 138.08 L18.01 138.08" class="st8"/>
			</g>
			<g id="shape1218-113" v:mID="1218" v:groupContext="shape" transform="translate(-16.5846,235.718) rotate(-135)">
				<title>Blad.1218</title>
				<path d="M0 138.08 L2.55 138.08" class="st6"/>
			</g>
			<g id="shape1219-116" v:mID="1219" v:groupContext="shape" transform="translate(-14.7834,235.718) rotate(-135)">
				<title>Blad.1219</title>
				<path d="M0 138.08 L5.09 138.08" class="st6"/>
			</g>
			<g id="shape1220-119" v:mID="1220" v:groupContext="shape" transform="translate(-12.9823,235.718) rotate(-135)">
				<title>Blad.1220</title>
				<path d="M0 138.08 L7.64 138.08" class="st6"/>
			</g>
			<g id="shape1221-122" v:mID="1221" v:groupContext="shape" transform="translate(-11.1811,235.718) rotate(-135)">
				<title>Blad.1221</title>
				<path d="M0 138.08 L10.19 138.08" class="st6"/>
			</g>
			<g id="shape1222-125" v:mID="1222" v:groupContext="shape" transform="translate(-11.1811,233.917) rotate(-135)">
				<title>Blad.1222</title>
				<path d="M0 138.08 L10.19 138.08" class="st6"/>
			</g>
			<g id="shape1223-128" v:mID="1223" v:groupContext="shape" transform="translate(-11.1811,232.116) rotate(-135)">
				<title>Blad.1223</title>
				<path d="M0 138.08 L10.19 138.08" class="st6"/>
			</g>
			<g id="shape1224-131" v:mID="1224" v:groupContext="shape" transform="translate(-11.1811,230.315) rotate(-135)">
				<title>Blad.1224</title>
				<path d="M0 138.08 L10.19 138.08" class="st6"/>
			</g>
			<g id="shape1225-134" v:mID="1225" v:groupContext="shape" transform="translate(-11.1811,228.514) rotate(-135)">
				<title>Blad.1225</title>
				<path d="M0 138.08 L10.19 138.08" class="st6"/>
			</g>
			<g id="shape1226-137" v:mID="1226" v:groupContext="shape" transform="translate(-11.1811,226.713) rotate(-135)">
				<title>Blad.1226</title>
				<path d="M0 138.08 L10.19 138.08" class="st6"/>
			</g>
			<g id="shape1227-140" v:mID="1227" v:groupContext="shape" transform="translate(-11.1811,224.911) rotate(-135)">
				<title>Blad.1227</title>
				<path d="M0 138.08 L10.19 138.08" class="st6"/>
			</g>
			<g id="shape1228-143" v:mID="1228" v:groupContext="shape" transform="translate(-11.1811,223.11) rotate(-135)">
				<title>Blad.1228</title>
				<path d="M0 138.08 L7.64 138.08" class="st6"/>
			</g>
			<g id="shape1229-146" v:mID="1229" v:groupContext="shape" transform="translate(-11.1811,221.309) rotate(-135)">
				<title>Blad.1229</title>
				<path d="M0 138.08 L5.09 138.08" class="st6"/>
			</g>
			<g id="shape1230-149" v:mID="1230" v:groupContext="shape" transform="translate(-11.1811,219.508) rotate(-135)">
				<title>Blad.1230</title>
				<path d="M0 138.08 L2.55 138.08" class="st6"/>
			</g>
			<g id="shape1255-152" v:mID="1255" v:groupContext="shape" transform="translate(7.20472,-3.3366)">
				<title>Blad.1255</title>
				<path d="M0 132.41 C13.51 132.41 22.07 136.83 30.63 137.89 C44.58 139.61 58.54 132.41 72.05 132.41" class="st10"/>
			</g>
		</g>
		<g id="group1443-155" transform="translate(163.367,-84.4104)" v:mID="1443" v:groupContext="group">
			<title>Blad.1443</title>
			<g id="shape1405-156" v:mID="1405" v:groupContext="shape" transform="translate(7.20472,-9.00591) rotate(2.4909E-07)">
				<title>Ligger, 2 pt.1271</title>
				<path d="M0 138.08 L72.05 138.08" class="st9"/>
			</g>
			<g id="shape1407-159" v:mID="1407" v:groupContext="shape" transform="translate(7.20472,-3.33661)">
				<title>Blad.1407</title>
				<path d="M0 132.41 C13.51 132.41 22.07 136.83 30.63 137.89 C44.58 139.61 58.54 132.41 72.05 132.41" class="st9"/>
			</g>
			<g id="shape1409-162" v:mID="1409" v:groupContext="shape" transform="translate(145.285,120.069) rotate(90)">
				<title>Blad.1409</title>
				<path d="M0 138.08 L18.01 138.08" class="st8"/>
			</g>
			<g id="shape1410-165" v:mID="1410" v:groupContext="shape" transform="translate(103.041,22.4311) rotate(45)">
				<title>Blad.1410</title>
				<path d="M0 138.08 L2.55 138.08" class="st6"/>
			</g>
			<g id="shape1411-168" v:mID="1411" v:groupContext="shape" transform="translate(101.24,22.4311) rotate(45)">
				<title>Blad.1411</title>
				<path d="M0 138.08 L5.09 138.08" class="st6"/>
			</g>
			<g id="shape1412-171" v:mID="1412" v:groupContext="shape" transform="translate(99.4389,22.4311) rotate(45)">
				<title>Blad.1412</title>
				<path d="M0 138.08 L7.64 138.08" class="st6"/>
			</g>
			<g id="shape1413-174" v:mID="1413" v:groupContext="shape" transform="translate(97.6378,22.4311) rotate(45)">
				<title>Blad.1413</title>
				<path d="M0 138.08 L10.19 138.08" class="st6"/>
			</g>
			<g id="shape1414-177" v:mID="1414" v:groupContext="shape" transform="translate(97.6378,24.2323) rotate(45)">
				<title>Blad.1414</title>
				<path d="M0 138.08 L10.19 138.08" class="st6"/>
			</g>
			<g id="shape1415-180" v:mID="1415" v:groupContext="shape" transform="translate(97.6378,26.0334) rotate(45)">
				<title>Blad.1415</title>
				<path d="M0 138.08 L10.19 138.08" class="st6"/>
			</g>
			<g id="shape1416-183" v:mID="1416" v:groupContext="shape" transform="translate(97.6378,27.8346) rotate(45)">
				<title>Blad.1416</title>
				<path d="M0 138.08 L10.19 138.08" class="st6"/>
			</g>
			<g id="shape1417-186" v:mID="1417" v:groupContext="shape" transform="translate(97.6378,29.6358) rotate(45)">
				<title>Blad.1417</title>
				<path d="M0 138.08 L10.19 138.08" class="st6"/>
			</g>
			<g id="shape1418-189" v:mID="1418" v:groupContext="shape" transform="translate(97.6378,31.437) rotate(45)">
				<title>Blad.1418</title>
				<path d="M0 138.08 L10.19 138.08" class="st6"/>
			</g>
			<g id="shape1419-192" v:mID="1419" v:groupContext="shape" transform="translate(97.6378,33.2382) rotate(45)">
				<title>Blad.1419</title>
				<path d="M0 138.08 L10.19 138.08" class="st6"/>
			</g>
			<g id="shape1420-195" v:mID="1420" v:groupContext="shape" transform="translate(97.6378,35.0393) rotate(45)">
				<title>Blad.1420</title>
				<path d="M0 138.08 L7.64 138.08" class="st6"/>
			</g>
			<g id="shape1421-198" v:mID="1421" v:groupContext="shape" transform="translate(97.6378,36.8405) rotate(45)">
				<title>Blad.1421</title>
				<path d="M0 138.08 L5.09 138.08" class="st6"/>
			</g>
			<g id="shape1422-201" v:mID="1422" v:groupContext="shape" transform="translate(97.6378,38.6417) rotate(45)">
				<title>Blad.1422</title>
				<path d="M0 138.08 L2.55 138.08" class="st6"/>
			</g>
			<g id="shape1423-204" v:mID="1423" v:groupContext="shape"
					transform="translate(-126.373,120.069) rotate(-90) scale(-1,1)">
				<title>Moment.1298</title>
				<path d="M-0 138.08 A9.00591 9.00591 0 0 1 9.01 129.07 A9.00591 9.00591 0 0 1 14.54 130.97 L14.7 131.3"
						class="st11"/>
			</g>
			<g id="shape1425-210" v:mID="1425" v:groupContext="shape" transform="translate(-58.8287,138.081) rotate(-90)">
				<title>Blad.1425</title>
				<path d="M0 138.08 L18.01 138.08" class="st8"/>
			</g>
			<g id="shape1426-213" v:mID="1426" v:groupContext="shape" transform="translate(-16.5846,235.718) rotate(-135)">
				<title>Blad.1426</title>
				<path d="M0 138.08 L2.55 138.08" class="st6"/>
			</g>
			<g id="shape1427-216" v:mID="1427" v:groupContext="shape" transform="translate(-14.7834,235.718) rotate(-135)">
				<title>Blad.1427</title>
				<path d="M0 138.08 L5.09 138.08" class="st6"/>
			</g>
			<g id="shape1428-219" v:mID="1428" v:groupContext="shape" transform="translate(-12.9823,235.718) rotate(-135)">
				<title>Blad.1428</title>
				<path d="M0 138.08 L7.64 138.08" class="st6"/>
			</g>
			<g id="shape1429-222" v:mID="1429" v:groupContext="shape" transform="translate(-11.1811,235.718) rotate(-135)">
				<title>Blad.1429</title>
				<path d="M0 138.08 L10.19 138.08" class="st6"/>
			</g>
			<g id="shape1430-225" v:mID="1430" v:groupContext="shape" transform="translate(-11.1811,233.917) rotate(-135)">
				<title>Blad.1430</title>
				<path d="M0 138.08 L10.19 138.08" class="st6"/>
			</g>
			<g id="shape1431-228" v:mID="1431" v:groupContext="shape" transform="translate(-11.1811,232.116) rotate(-135)">
				<title>Blad.1431</title>
				<path d="M0 138.08 L10.19 138.08" class="st6"/>
			</g>
			<g id="shape1432-231" v:mID="1432" v:groupContext="shape" transform="translate(-11.1811,230.315) rotate(-135)">
				<title>Blad.1432</title>
				<path d="M0 138.08 L10.19 138.08" class="st6"/>
			</g>
			<g id="shape1433-234" v:mID="1433" v:groupContext="shape" transform="translate(-11.1811,228.514) rotate(-135)">
				<title>Blad.1433</title>
				<path d="M0 138.08 L10.19 138.08" class="st6"/>
			</g>
			<g id="shape1434-237" v:mID="1434" v:groupContext="shape" transform="translate(-11.1811,226.713) rotate(-135)">
				<title>Blad.1434</title>
				<path d="M0 138.08 L10.19 138.08" class="st6"/>
			</g>
			<g id="shape1435-240" v:mID="1435" v:groupContext="shape" transform="translate(-11.1811,224.911) rotate(-135)">
				<title>Blad.1435</title>
				<path d="M0 138.08 L10.19 138.08" class="st6"/>
			</g>
			<g id="shape1436-243" v:mID="1436" v:groupContext="shape" transform="translate(-11.1811,223.11) rotate(-135)">
				<title>Blad.1436</title>
				<path d="M0 138.08 L7.64 138.08" class="st6"/>
			</g>
			<g id="shape1437-246" v:mID="1437" v:groupContext="shape" transform="translate(-11.1811,221.309) rotate(-135)">
				<title>Blad.1437</title>
				<path d="M0 138.08 L5.09 138.08" class="st6"/>
			</g>
			<g id="shape1438-249" v:mID="1438" v:groupContext="shape" transform="translate(-11.1811,219.508) rotate(-135)">
				<title>Blad.1438</title>
				<path d="M0 138.08 L2.55 138.08" class="st6"/>
			</g>
			<g id="shape1439-252" v:mID="1439" v:groupContext="shape" transform="translate(7.20472,0.915362)">
				<title>Blad.1439</title>
				<path d="M0 128.16 C13.51 131.25 22.07 136.58 30.63 137.86 C44.58 139.95 58.54 131.25 72.05 128.16" class="st10"/>
			</g>
			<g id="shape1440-255" v:mID="1440" v:groupContext="shape" transform="translate(212.83,120.069) rotate(90)">
				<title>Moment.1297</title>
				<path d="M-0 138.08 A9.00591 9.00591 0 0 1 9.01 129.07 A9.00591 9.00591 0 0 1 14.54 130.97 L14.7 131.3"
						class="st11"/>
			</g>
			<g id="shape1441-260" v:mID="1441" v:groupContext="shape" transform="translate(7.20472,-7.65502)">
				<title>Scharnier.1329</title>
				<ellipse cx="1.35089" cy="136.73" rx="1.35089" ry="1.35089" class="st13"/>
			</g>
			<g id="shape1442-262" v:mID="1442" v:groupContext="shape" transform="translate(76.5502,-7.65502)">
				<title>Scharnier.1330</title>
				<ellipse cx="1.35089" cy="136.73" rx="1.35089" ry="1.35089" class="st13"/>
			</g>
		</g>
		<g id="group1488-264" transform="translate(269.666,-91.0837)" v:mID="1488" v:groupContext="group">
			<title>Blad.1488</title>
			<g id="shape1445-265" v:mID="1445" v:groupContext="shape"
					transform="translate(-54.3815,233.946) rotate(26.5651) scale(1,-1)">
				<title>Blad.1445</title>
				<path d="M0 138.08 L41.2 138.08" class="st10"/>
			</g>
			<g id="shape1446-268" v:mID="1446" v:groupContext="shape" transform="translate(-17.5311,5.36497) rotate(-26.5651)">
				<title>Blad.1446</title>
				<path d="M0 138.08 L41.2 138.08" class="st10"/>
			</g>
			<g id="shape1447-271" v:mID="1447" v:groupContext="shape" transform="translate(7.37007,-27.6378) rotate(2.4909E-07)">
				<title>Ligger, 2 pt.1332</title>
				<path d="M0 138.08 L73.7 138.08" class="st9"/>
			</g>
			<g id="shape1448-274" v:mID="1448" v:groupContext="shape" transform="translate(-93.8602,112.285) rotate(-90)">
				<title>Blad.1448</title>
				<path d="M0 138.08 L3.69 138.08" class="st6"/>
			</g>
			<g id="shape1449-277" v:mID="1449" v:groupContext="shape" transform="translate(7.37007,-21.9685)">
				<title>Blad.1449</title>
				<path d="M0 132.41 C13.82 132.41 22.57 136.83 31.33 137.89 C45.61 139.61 59.88 132.41 73.7 132.41" class="st9"/>
			</g>
			<g id="shape1451-280" v:mID="1451" v:groupContext="shape" transform="translate(145.451,101.23) rotate(90)">
				<title>Blad.1451</title>
				<path d="M0 138.08 L18.43 138.08" class="st8"/>
			</g>
			<g id="shape1452-283" v:mID="1452" v:groupContext="shape" transform="translate(103.165,3.59252) rotate(45)">
				<title>Blad.1452</title>
				<path d="M0 138.08 L2.61 138.08" class="st6"/>
			</g>
			<g id="shape1453-286" v:mID="1453" v:groupContext="shape" transform="translate(101.323,3.59252) rotate(45)">
				<title>Blad.1453</title>
				<path d="M0 138.08 L5.21 138.08" class="st6"/>
			</g>
			<g id="shape1454-289" v:mID="1454" v:groupContext="shape" transform="translate(99.4803,3.59252) rotate(45)">
				<title>Blad.1454</title>
				<path d="M0 138.08 L7.82 138.08" class="st6"/>
			</g>
			<g id="shape1455-292" v:mID="1455" v:groupContext="shape" transform="translate(97.6378,3.59252) rotate(45)">
				<title>Blad.1455</title>
				<path d="M0 138.08 L10.42 138.08" class="st6"/>
			</g>
			<g id="shape1456-295" v:mID="1456" v:groupContext="shape" transform="translate(97.6378,5.43504) rotate(45)">
				<title>Blad.1456</title>
				<path d="M0 138.08 L10.42 138.08" class="st6"/>
			</g>
			<g id="shape1457-298" v:mID="1457" v:groupContext="shape" transform="translate(97.6378,7.27756) rotate(45)">
				<title>Blad.1457</title>
				<path d="M0 138.08 L10.42 138.08" class="st6"/>
			</g>
			<g id="shape1458-301" v:mID="1458" v:groupContext="shape" transform="translate(97.6378,9.12007) rotate(45)">
				<title>Blad.1458</title>
				<path d="M0 138.08 L10.42 138.08" class="st6"/>
			</g>
			<g id="shape1459-304" v:mID="1459" v:groupContext="shape" transform="translate(97.6378,10.9626) rotate(45)">
				<title>Blad.1459</title>
				<path d="M0 138.08 L10.42 138.08" class="st6"/>
			</g>
			<g id="shape1460-307" v:mID="1460" v:groupContext="shape" transform="translate(97.6378,12.8051) rotate(45)">
				<title>Blad.1460</title>
				<path d="M0 138.08 L10.42 138.08" class="st6"/>
			</g>
			<g id="shape1461-310" v:mID="1461" v:groupContext="shape" transform="translate(97.6378,14.6476) rotate(45)">
				<title>Blad.1461</title>
				<path d="M0 138.08 L10.42 138.08" class="st6"/>
			</g>
			<g id="shape1462-313" v:mID="1462" v:groupContext="shape" transform="translate(97.6378,16.4901) rotate(45)">
				<title>Blad.1462</title>
				<path d="M0 138.08 L7.82 138.08" class="st6"/>
			</g>
			<g id="shape1463-316" v:mID="1463" v:groupContext="shape" transform="translate(97.6378,18.3327) rotate(45)">
				<title>Blad.1463</title>
				<path d="M0 138.08 L5.21 138.08" class="st6"/>
			</g>
			<g id="shape1464-319" v:mID="1464" v:groupContext="shape" transform="translate(97.6378,20.1752) rotate(45)">
				<title>Blad.1464</title>
				<path d="M0 138.08 L2.61 138.08" class="st6"/>
			</g>
			<g id="shape1465-322" v:mID="1465" v:groupContext="shape"
					transform="translate(-126.104,101.23) rotate(-90) scale(-1,1)">
				<title>Moment.1350</title>
				<path d="M-0 138.08 A9.21259 9.21259 0 0 1 9.21 128.87 A9.21259 9.21259 0 0 1 15.03 130.94 L15.18 131.26"
						class="st11"/>
			</g>
			<g id="shape1467-327" v:mID="1467" v:groupContext="shape" transform="translate(-57.0098,119.655) rotate(-90)">
				<title>Blad.1467</title>
				<path d="M0 138.08 L18.43 138.08" class="st8"/>
			</g>
			<g id="shape1468-330" v:mID="1468" v:groupContext="shape" transform="translate(-14.7244,217.293) rotate(-135)">
				<title>Blad.1468</title>
				<path d="M0 138.08 L2.61 138.08" class="st6"/>
			</g>
			<g id="shape1469-333" v:mID="1469" v:groupContext="shape" transform="translate(-12.8819,217.293) rotate(-135)">
				<title>Blad.1469</title>
				<path d="M0 138.08 L5.21 138.08" class="st6"/>
			</g>
			<g id="shape1470-336" v:mID="1470" v:groupContext="shape" transform="translate(-11.0394,217.293) rotate(-135)">
				<title>Blad.1470</title>
				<path d="M0 138.08 L7.82 138.08" class="st6"/>
			</g>
			<g id="shape1471-339" v:mID="1471" v:groupContext="shape" transform="translate(-9.19688,217.293) rotate(-135)">
				<title>Blad.1471</title>
				<path d="M0 138.08 L10.42 138.08" class="st6"/>
			</g>
			<g id="shape1472-342" v:mID="1472" v:groupContext="shape" transform="translate(-9.19688,215.451) rotate(-135)">
				<title>Blad.1472</title>
				<path d="M0 138.08 L10.42 138.08" class="st6"/>
			</g>
			<g id="shape1473-345" v:mID="1473" v:groupContext="shape" transform="translate(-9.19688,213.608) rotate(-135)">
				<title>Blad.1473</title>
				<path d="M0 138.08 L10.42 138.08" class="st6"/>
			</g>
			<g id="shape1474-348" v:mID="1474" v:groupContext="shape" transform="translate(-9.19688,211.766) rotate(-135)">
				<title>Blad.1474</title>
				<path d="M0 138.08 L10.42 138.08" class="st6"/>
			</g>
			<g id="shape1475-351" v:mID="1475" v:groupContext="shape" transform="translate(-9.19688,209.923) rotate(-135)">
				<title>Blad.1475</title>
				<path d="M0 138.08 L10.42 138.08" class="st6"/>
			</g>
			<g id="shape1476-354" v:mID="1476" v:groupContext="shape" transform="translate(-9.19688,208.081) rotate(-135)">
				<title>Blad.1476</title>
				<path d="M0 138.08 L10.42 138.08" class="st6"/>
			</g>
			<g id="shape1477-357" v:mID="1477" v:groupContext="shape" transform="translate(-9.19688,206.238) rotate(-135)">
				<title>Blad.1477</title>
				<path d="M0 138.08 L10.42 138.08" class="st6"/>
			</g>
			<g id="shape1478-360" v:mID="1478" v:groupContext="shape" transform="translate(-9.19688,204.396) rotate(-135)">
				<title>Blad.1478</title>
				<path d="M0 138.08 L7.82 138.08" class="st6"/>
			</g>
			<g id="shape1479-363" v:mID="1479" v:groupContext="shape" transform="translate(-9.19688,202.553) rotate(-135)">
				<title>Blad.1479</title>
				<path d="M0 138.08 L5.21 138.08" class="st6"/>
			</g>
			<g id="shape1480-366" v:mID="1480" v:groupContext="shape" transform="translate(-9.19688,200.711) rotate(-135)">
				<title>Blad.1480</title>
				<path d="M0 138.08 L2.61 138.08" class="st6"/>
			</g>
			<g id="shape1481-369" v:mID="1481" v:groupContext="shape" transform="translate(7.37007,-17.7165)">
				<title>Blad.1481</title>
				<path d="M0 128.16 C13.82 131.25 22.57 136.58 31.33 137.86 C45.61 139.95 59.88 131.25 73.7 128.16" class="st9"/>
			</g>
			<g id="shape1482-372" v:mID="1482" v:groupContext="shape" transform="translate(214.545,101.23) rotate(90)">
				<title>Moment.1367</title>
				<path d="M-0 138.08 A9.21259 9.21259 0 0 1 9.21 128.87 A9.21259 9.21259 0 0 1 15.03 130.94 L15.18 131.26"
						class="st11"/>
			</g>
			<g id="shape1483-377" v:mID="1483" v:groupContext="shape" transform="translate(7.37007,-26.2559)">
				<title>Scharnier.1368</title>
				<ellipse cx="1.38189" cy="136.699" rx="1.38189" ry="1.38189" class="st13"/>
			</g>
			<g id="shape1484-379" v:mID="1484" v:groupContext="shape" transform="translate(78.307,-26.2559)">
				<title>Scharnier.1369</title>
				<ellipse cx="1.38189" cy="136.699" rx="1.38189" ry="1.38189" class="st13"/>
			</g>
			<g id="shape1485-381" v:mID="1485" v:groupContext="shape" transform="translate(42.8386,-7.8307)">
				<title>Scharnier.1370</title>
				<ellipse cx="1.38189" cy="136.699" rx="1.38189" ry="1.38189" class="st13"/>
			</g>
			<g id="shape1486-383" v:mID="1486" v:groupContext="shape" transform="translate(-81.3311,138.081) rotate(-90)">
				<title>Moment.1373</title>
				<path d="M-0 138.08 A9.21259 9.21259 0 0 1 9.21 128.87 A9.21259 9.21259 0 0 1 15.03 130.94 L15.18 131.26"
						class="st11"/>
			</g>
			<g id="shape1487-388" v:mID="1487" v:groupContext="shape" transform="translate(169.772,138.081) rotate(90) scale(-1,1)">
				<title>Moment.1374</title>
				<path d="M-0 138.08 A9.21259 9.21259 0 0 1 9.21 128.87 A9.21259 9.21259 0 0 1 15.03 130.94 L15.18 131.26"
						class="st11"/>
			</g>
		</g>
	</g>
</svg>
