<?xml version="1.0" encoding="UTF-8" standalone="no"?>
<!DOCTYPE svg PUBLIC "-//W3C//DTD SVG 1.1//EN" "http://www.w3.org/Graphics/SVG/1.1/DTD/svg11.dtd">
<!-- Gegenereerd door Microsoft Visio, SVG Export Constructie8a.svg Pagina-1 -->
<svg xmlns="http://www.w3.org/2000/svg" xmlns:xlink="http://www.w3.org/1999/xlink" xmlns:ev="http://www.w3.org/2001/xml-events"
		xmlns:v="http://schemas.microsoft.com/visio/2003/SVGExtensions/" width="5.61503in" height="1.58254in"
		viewBox="0 0 404.282 113.943" xml:space="preserve" color-interpolation-filters="sRGB" class="st18">
	<v:documentProperties v:langID="1043" v:metric="true" v:viewMarkup="false">
		<v:userDefs>
			<v:ud v:nameU="visShowViewports" v:val="VT0(0):26"/>
		</v:userDefs>
	</v:documentProperties>

	<style type="text/css">
	<![CDATA[
		.st1 {marker-start:url(#mrkr5-6);stroke:#800000;stroke-linecap:round;stroke-linejoin:round;stroke-width:2}
		.st2 {fill:#800000;fill-opacity:1;stroke:#800000;stroke-opacity:1;stroke-width:0.44247787610619}
		.st3 {fill:none;stroke:none;stroke-linecap:round;stroke-linejoin:round;stroke-width:0.24}
		.st4 {fill:#000000;font-family:Times New Roman;font-size:1.00001em}
		.st5 {stroke:#000000;stroke-linecap:round;stroke-linejoin:round;stroke-width:0.25}
		.st6 {marker-end:url(#mrkr4-34);marker-start:url(#mrkr4-32);stroke:#000000;stroke-linecap:round;stroke-linejoin:round;stroke-width:0.25}
		.st7 {fill:#000000;fill-opacity:1;stroke:#000000;stroke-opacity:1;stroke-width:0.1219512195122}
		.st8 {fill:none;stroke:none;stroke-linecap:round;stroke-linejoin:round;stroke-width:0.75}
		.st9 {stroke:#000000;stroke-linecap:round;stroke-linejoin:round;stroke-width:2}
		.st10 {fill:#ffffff;stroke:#000000;stroke-linecap:round;stroke-linejoin:round;stroke-width:0.75}
		.st11 {fill:#00cc99;stroke:#000000;stroke-linecap:round;stroke-linejoin:round;stroke-width:0.75}
		.st12 {stroke:#000000;stroke-linecap:round;stroke-linejoin:round;stroke-width:0.75}
		.st13 {stroke:#000000;stroke-linecap:round;stroke-linejoin:round;stroke-width:1.2}
		.st14 {fill:#000000;font-family:Times New Roman;font-size:1.00001em;font-style:italic}
		.st15 {baseline-shift:-32.4941%;font-size:0.649882em;font-style:normal}
		.st16 {marker-end:url(#mrkr5-180);stroke:#000000;stroke-linecap:round;stroke-linejoin:round;stroke-width:0.75}
		.st17 {fill:#000000;fill-opacity:1;stroke:#000000;stroke-opacity:1;stroke-width:0.22935779816514}
		.st18 {fill:none;fill-rule:evenodd;font-size:12px;overflow:visible;stroke-linecap:square;stroke-miterlimit:3}
	]]>
	</style>

	<defs id="Markers">
		<g id="lend5">
			<path d="M 2 1 L 0 0 L 1.98117 -0.993387 C 1.67173 -0.364515 1.67301 0.372641 1.98465 1.00043 " style="stroke:none"/>
		</g>
		<marker id="mrkr5-6" class="st2" v:arrowType="5" v:arrowSize="2" v:setback="3.775" refX="3.775" orient="auto"
				markerUnits="strokeWidth" overflow="visible">
			<use xlink:href="#lend5" transform="scale(2.26) "/>
		</marker>
		<g id="lend4">
			<path d="M 2 1 L 0 0 L 2 -1 L 2 1 " style="stroke:none"/>
		</g>
		<marker id="mrkr4-32" class="st7" v:arrowType="4" v:arrowSize="1" v:setback="14.96" refX="14.96" orient="auto"
				markerUnits="strokeWidth" overflow="visible">
			<use xlink:href="#lend4" transform="scale(8.2) "/>
		</marker>
		<marker id="mrkr4-34" class="st7" v:arrowType="4" v:arrowSize="1" v:setback="16.4" refX="-16.4" orient="auto"
				markerUnits="strokeWidth" overflow="visible">
			<use xlink:href="#lend4" transform="scale(-8.2,-8.2) "/>
		</marker>
		<marker id="mrkr5-180" class="st17" v:arrowType="5" v:arrowSize="2" v:setback="7.63" refX="-7.63" orient="auto"
				markerUnits="strokeWidth" overflow="visible">
			<use xlink:href="#lend5" transform="scale(-4.36,-4.36) "/>
		</marker>
	</defs>
	<g v:mID="0" v:index="1" v:groupContext="foregroundPage">
		<title>Pagina-1</title>
		<v:pageProperties v:drawingScale="0.0393701" v:pageScale="0.0393701" v:drawingUnits="24" v:shadowOffsetX="8.50394"
				v:shadowOffsetY="-8.50394"/>
		<g id="shape3720-1" v:mID="3720" v:groupContext="shape" transform="translate(98.7753,49.9382) rotate(-90)">
			<title>Kracht.3720</title>
			<path d="M7.55 113.94 L7.91 113.94 L28.35 113.94" class="st1"/>
		</g>
		<g id="shape3721-7" v:mID="3721" v:groupContext="shape" transform="translate(173.033,-79.5954)">
			<title>Punt A.3721</title>
			<desc>1 kN</desc>
			<v:textBlock v:margins="rect(4,4,4,4)" v:tabSpace="42.5197"/>
			<v:textRect cx="19.8425" cy="106.857" width="39.69" height="14.1732"/>
			<rect x="0" y="99.7699" width="39.685" height="14.1732" class="st3"/>
			<text x="8.01" y="110.46" class="st4" v:langID="1043"><v:paragraph v:horizAlign="1"/><v:tabList/>1 kN</text>		</g>
		<g id="shape3722-10" v:mID="3722" v:groupContext="shape" transform="translate(127.122,47.8123) rotate(-90)">
			<title>Kracht.3722</title>
			<path d="M7.55 113.94 L7.91 113.94 L28.35 113.94" class="st1"/>
		</g>
		<g id="shape3723-15" v:mID="3723" v:groupContext="shape" transform="translate(241.065,-79.5954)">
			<title>Punt A.3723</title>
			<desc>1 kN</desc>
			<v:textBlock v:margins="rect(4,4,4,4)" v:tabSpace="42.5197"/>
			<v:textRect cx="19.8425" cy="106.857" width="39.69" height="14.1732"/>
			<rect x="0" y="99.7699" width="39.685" height="14.1732" class="st3"/>
			<text x="8.01" y="110.46" class="st4" v:langID="1043"><v:paragraph v:horizAlign="1"/><v:tabList/>1 kN</text>		</g>
		<g id="group3724-18" transform="translate(212.718,-95.186)" v:mID="3724" v:groupContext="group">
			<title>Maatlijn.3724</title>
			<g id="group3725-19" transform="translate(0,-9.92126)" v:mID="3725" v:groupContext="group">
				<title>Maatlijn.31</title>
				<g id="shape3726-20" v:mID="3726" v:groupContext="shape" transform="translate(113.943,105.439) rotate(90)">
					<title>Blad.3726</title>
					<path d="M0 113.94 L8.5 113.94" class="st5"/>
				</g>
				<g id="shape3727-23" v:mID="3727" v:groupContext="shape" transform="translate(142.29,105.439) rotate(90)">
					<title>Blad.3727</title>
					<path d="M0 113.94 L8.5 113.94" class="st5"/>
				</g>
				<g id="shape3728-26" v:mID="3728" v:groupContext="shape" transform="translate(0,-4.25197)">
					<title>Blad.3728</title>
					<path d="M3.74 113.94 L4.1 113.94 L24.25 113.94" class="st6"/>
				</g>
			</g>
			<g id="shape3729-35" v:mID="3729" v:groupContext="shape">
				<title>Blad.3729</title>
				<desc>5 m</desc>
				<v:textBlock v:margins="rect(4,4,4,4)" v:tabSpace="42.5197"/>
				<v:textRect cx="14.1732" cy="106.857" width="28.35" height="14.1732"/>
				<rect x="0" y="99.7699" width="28.3465" height="14.1732" class="st8"/>
				<text x="5.01" y="110.46" class="st4" v:langID="1043"><v:paragraph v:horizAlign="1"/><v:tabList/>5 m</text>			</g>
		</g>
		<g id="shape3730-38" v:mID="3730" v:groupContext="shape" transform="translate(326.235,-64.0049)">
			<title>Ligger, 2 pt.3730</title>
			<path d="M0 113.94 L28.35 113.94" class="st9"/>
		</g>
		<g id="shape3731-41" v:mID="3731" v:groupContext="shape" transform="translate(56.8129,-64.0049)">
			<title>Ligger, 2 pt.3731</title>
			<path d="M0 113.94 L42.52 113.94" class="st9"/>
		</g>
		<g id="shape3732-44" v:mID="3732" v:groupContext="shape" transform="translate(14.2932,-64.0049)">
			<title>Ligger, 2 pt.3732</title>
			<path d="M0 113.94 L42.52 113.94" class="st9"/>
		</g>
		<g id="shape3733-47" v:mID="3733" v:groupContext="shape" transform="translate(54.6869,-61.8789)">
			<title>Scharnier.3733</title>
			<ellipse cx="2.12598" cy="111.817" rx="2.12598" ry="2.12598" class="st10"/>
		</g>
		<g id="group3734-49" transform="translate(4.37197,-49.8316)" v:mID="3734" v:groupContext="group">
			<title>Rol.3734</title>
			<g id="group3735-50" transform="translate(0.261477,-2.83465)" v:mID="3735" v:groupContext="group">
				<title>Scharnier</title>
				<g id="shape3736-51" v:mID="3736" v:groupContext="shape" transform="translate(2.79729,0)">
					<title>Blad.3736</title>
					<path d="M0 113.94 L13.99 113.94 L6.99 102.6 L0 113.94 Z" class="st11"/>
				</g>
				<g id="shape3737-53" v:mID="3737" v:groupContext="shape" transform="translate(2.79729,227.886) rotate(180)">
					<title>Blad.3737</title>
					<path d="M0 113.94 L2.8 113.94" class="st12"/>
				</g>
				<g id="shape3738-56" v:mID="3738" v:groupContext="shape" transform="translate(16.7838,0)">
					<title>Blad.3738</title>
					<path d="M0 113.94 L2.8 113.94" class="st12"/>
				</g>
			</g>
			<g id="shape3739-59" v:mID="3739" v:groupContext="shape">
				<title>Blad.3739</title>
				<path d="M0 113.94 L19.84 113.94" class="st12"/>
			</g>
		</g>
		<g id="group3740-62" transform="translate(89.4113,-49.8316)" v:mID="3740" v:groupContext="group">
			<title>Rol.3740</title>
			<g id="group3741-63" transform="translate(0.261477,-2.83465)" v:mID="3741" v:groupContext="group">
				<title>Scharnier</title>
				<g id="shape3742-64" v:mID="3742" v:groupContext="shape" transform="translate(2.79729,0)">
					<title>Blad.3742</title>
					<path d="M0 113.94 L13.99 113.94 L6.99 102.6 L0 113.94 Z" class="st11"/>
				</g>
				<g id="shape3743-66" v:mID="3743" v:groupContext="shape" transform="translate(2.79729,227.886) rotate(180)">
					<title>Blad.3743</title>
					<path d="M0 113.94 L2.8 113.94" class="st12"/>
				</g>
				<g id="shape3744-69" v:mID="3744" v:groupContext="shape" transform="translate(16.7838,0)">
					<title>Blad.3744</title>
					<path d="M0 113.94 L2.8 113.94" class="st12"/>
				</g>
			</g>
			<g id="shape3745-72" v:mID="3745" v:groupContext="shape">
				<title>Blad.3745</title>
				<path d="M0 113.94 L19.84 113.94" class="st12"/>
			</g>
		</g>
		<g id="shape3746-75" v:mID="3746" v:groupContext="shape" transform="translate(99.4633,-64.0049)">
			<title>Ligger, 2 pt.3746</title>
			<path d="M0 113.94 L56.69 113.94" class="st9"/>
		</g>
		<g id="shape3747-78" v:mID="3747" v:groupContext="shape" transform="translate(156.156,-64.0049)">
			<title>Ligger, 2 pt.3747</title>
			<path d="M0 113.94 L28.35 113.94" class="st9"/>
		</g>
		<g id="group3748-81" transform="translate(174.451,-49.8316)" v:mID="3748" v:groupContext="group">
			<title>Rol.3748</title>
			<g id="group3749-82" transform="translate(0.261477,-2.83465)" v:mID="3749" v:groupContext="group">
				<title>Scharnier</title>
				<g id="shape3750-83" v:mID="3750" v:groupContext="shape" transform="translate(2.79729,0)">
					<title>Blad.3750</title>
					<path d="M0 113.94 L13.99 113.94 L6.99 102.6 L0 113.94 Z" class="st11"/>
				</g>
				<g id="shape3751-85" v:mID="3751" v:groupContext="shape" transform="translate(2.79729,227.886) rotate(180)">
					<title>Blad.3751</title>
					<path d="M0 113.94 L2.8 113.94" class="st12"/>
				</g>
				<g id="shape3752-88" v:mID="3752" v:groupContext="shape" transform="translate(16.7838,0)">
					<title>Blad.3752</title>
					<path d="M0 113.94 L2.8 113.94" class="st12"/>
				</g>
			</g>
			<g id="shape3753-91" v:mID="3753" v:groupContext="shape">
				<title>Blad.3753</title>
				<path d="M0 113.94 L19.84 113.94" class="st12"/>
			</g>
		</g>
		<g id="shape3754-94" v:mID="3754" v:groupContext="shape" transform="translate(269.969,47.1036) rotate(90)">
			<title>Blad.3754</title>
			<path d="M0 113.94 L5.67 113.94" class="st12"/>
		</g>
		<g id="shape3755-97" v:mID="3755" v:groupContext="shape" transform="translate(184.503,-64.0049)">
			<title>Ligger, 2 pt.3755</title>
			<path d="M0 113.94 L56.69 113.94" class="st9"/>
		</g>
		<g id="shape3756-100" v:mID="3756" v:groupContext="shape" transform="translate(241.196,-64.0049)">
			<title>Ligger, 2 pt.3756</title>
			<path d="M0 113.94 L85.04 113.94" class="st9"/>
		</g>
		<g id="shape3757-103" v:mID="3757" v:groupContext="shape" transform="translate(238.939,-61.8789)">
			<title>Scharnier.3757</title>
			<ellipse cx="2.12598" cy="111.817" rx="2.12598" ry="2.12598" class="st10"/>
		</g>
		<g id="shape3758-105" v:mID="3758" v:groupContext="shape" transform="translate(323.978,-61.8789)">
			<title>Scharnier.3758</title>
			<ellipse cx="2.12598" cy="111.817" rx="2.12598" ry="2.12598" class="st10"/>
		</g>
		<g id="group3759-107" transform="translate(365.789,149.708) rotate(180)" v:mID="3759" v:groupContext="group">
			<title>Inklemming.3759</title>
			<g id="shape3760-108" v:mID="3760" v:groupContext="shape" transform="translate(125.282,85.5967) rotate(90)">
				<title>Blad.3760</title>
				<path d="M0 113.94 L28.35 113.94" class="st13"/>
			</g>
			<g id="shape3761-111" v:mID="3761" v:groupContext="shape" transform="translate(89.0739,5.02671) rotate(45)">
				<title>Blad.3761</title>
				<path d="M0 113.94 L4.01 113.94" class="st12"/>
			</g>
			<g id="shape3762-114" v:mID="3762" v:groupContext="shape" transform="translate(86.2392,5.02671) rotate(45)">
				<title>Blad.3762</title>
				<path d="M0 113.94 L8.02 113.94" class="st12"/>
			</g>
			<g id="shape3763-117" v:mID="3763" v:groupContext="shape" transform="translate(83.4046,5.02671) rotate(45)">
				<title>Blad.3763</title>
				<path d="M0 113.94 L12.03 113.94" class="st12"/>
			</g>
			<g id="shape3764-120" v:mID="3764" v:groupContext="shape" transform="translate(80.57,5.02671) rotate(45)">
				<title>Blad.3764</title>
				<path d="M0 113.94 L16.04 113.94" class="st12"/>
			</g>
			<g id="shape3765-123" v:mID="3765" v:groupContext="shape" transform="translate(80.57,7.86136) rotate(45)">
				<title>Blad.3765</title>
				<path d="M0 113.94 L16.04 113.94" class="st12"/>
			</g>
			<g id="shape3766-126" v:mID="3766" v:groupContext="shape" transform="translate(80.57,10.696) rotate(45)">
				<title>Blad.3766</title>
				<path d="M0 113.94 L16.04 113.94" class="st12"/>
			</g>
			<g id="shape3767-129" v:mID="3767" v:groupContext="shape" transform="translate(80.57,13.5306) rotate(45)">
				<title>Blad.3767</title>
				<path d="M0 113.94 L16.04 113.94" class="st12"/>
			</g>
			<g id="shape3768-132" v:mID="3768" v:groupContext="shape" transform="translate(80.57,16.3653) rotate(45)">
				<title>Blad.3768</title>
				<path d="M0 113.94 L16.04 113.94" class="st12"/>
			</g>
			<g id="shape3769-135" v:mID="3769" v:groupContext="shape" transform="translate(80.57,19.1999) rotate(45)">
				<title>Blad.3769</title>
				<path d="M0 113.94 L16.04 113.94" class="st12"/>
			</g>
			<g id="shape3770-138" v:mID="3770" v:groupContext="shape" transform="translate(80.57,22.0346) rotate(45)">
				<title>Blad.3770</title>
				<path d="M0 113.94 L16.04 113.94" class="st12"/>
			</g>
			<g id="shape3771-141" v:mID="3771" v:groupContext="shape" transform="translate(80.57,24.8692) rotate(45)">
				<title>Blad.3771</title>
				<path d="M0 113.94 L12.03 113.94" class="st12"/>
			</g>
			<g id="shape3772-144" v:mID="3772" v:groupContext="shape" transform="translate(80.57,27.7039) rotate(45)">
				<title>Blad.3772</title>
				<path d="M0 113.94 L8.02 113.94" class="st12"/>
			</g>
			<g id="shape3773-147" v:mID="3773" v:groupContext="shape" transform="translate(80.57,30.5385) rotate(45)">
				<title>Blad.3773</title>
				<path d="M0 113.94 L4.01 113.94" class="st12"/>
			</g>
		</g>
		<g id="shape3774-150" v:mID="3774" v:groupContext="shape" transform="translate(0.12,-64.0049)">
			<title>Punt A.3774</title>
			<desc>A</desc>
			<v:textBlock v:margins="rect(4,4,4,4)" v:tabSpace="42.5197"/>
			<v:textRect cx="7.08661" cy="106.857" width="14.18" height="14.1732"/>
			<rect x="0" y="99.7699" width="14.1732" height="14.1732" class="st3"/>
			<text x="4" y="110.46" class="st14" v:langID="1043"><v:paragraph v:horizAlign="1"/><v:tabList/>A</text>		</g>
		<g id="shape3775-153" v:mID="3775" v:groupContext="shape" transform="translate(92.246,-64.0049)">
			<title>Punt A.3775</title>
			<desc>B</desc>
			<v:textBlock v:margins="rect(4,4,4,4)" v:tabSpace="42.5197"/>
			<v:textRect cx="7.08661" cy="106.857" width="14.18" height="14.1732"/>
			<rect x="0" y="99.7699" width="14.1732" height="14.1732" class="st3"/>
			<text x="4" y="110.46" class="st14" v:langID="1043"><v:paragraph v:horizAlign="1"/><v:tabList/>B</text>		</g>
		<g id="shape3776-156" v:mID="3776" v:groupContext="shape" transform="translate(177.285,-64.0049)">
			<title>Punt A.3776</title>
			<desc>C</desc>
			<v:textBlock v:margins="rect(4,4,4,4)" v:tabSpace="42.5197"/>
			<v:textRect cx="7.08661" cy="106.857" width="14.18" height="14.1732"/>
			<rect x="0" y="99.7699" width="14.1732" height="14.1732" class="st3"/>
			<text x="4" y="110.46" class="st14" v:langID="1043"><v:paragraph v:horizAlign="1"/><v:tabList/>C</text>		</g>
		<g id="shape3777-159" v:mID="3777" v:groupContext="shape" transform="translate(340.277,-64.0049)">
			<title>Punt A.3777</title>
			<desc>D</desc>
			<v:textBlock v:margins="rect(4,4,4,4)" v:tabSpace="42.5197"/>
			<v:textRect cx="7.08661" cy="106.857" width="14.18" height="14.1732"/>
			<rect x="0" y="99.7699" width="14.1732" height="14.1732" class="st3"/>
			<text x="4" y="110.46" class="st14" v:langID="1043"><v:paragraph v:horizAlign="1"/><v:tabList/>D</text>		</g>
		<g id="shape3778-162" v:mID="3778" v:groupContext="shape" transform="translate(148.939,-64.0049)">
			<title>Punt A.3778</title>
			<desc>E</desc>
			<v:textBlock v:margins="rect(4,4,4,4)" v:tabSpace="42.5197"/>
			<v:textRect cx="7.08661" cy="106.857" width="14.18" height="14.1732"/>
			<rect x="0" y="99.7699" width="14.1732" height="14.1732" class="st3"/>
			<text x="4" y="110.46" class="st14" v:langID="1043"><v:paragraph v:horizAlign="1"/><v:tabList/>E</text>		</g>
		<g id="shape3779-165" v:mID="3779" v:groupContext="shape" transform="translate(42.6397,-64.0049)">
			<title>Punt A.3779</title>
			<desc>S1</desc>
			<v:textBlock v:margins="rect(4,4,4,4)" v:tabSpace="42.5197"/>
			<v:textRect cx="14.1732" cy="106.857" width="28.35" height="14.1732"/>
			<rect x="0" y="99.7699" width="28.3465" height="14.1732" class="st3"/>
			<text x="9.22" y="110.46" class="st14" v:langID="1043"><v:paragraph v:horizAlign="1"/><v:tabList/>S<tspan dy="-0.279em"
						class="st15" v:baseFontSize="12">1</tspan></text>		</g>
		<g id="shape3781-169" v:mID="3781" v:groupContext="shape" transform="translate(311.931,-65.4222)">
			<title>Punt A.3781</title>
			<desc>S3</desc>
			<v:textBlock v:margins="rect(4,4,4,4)" v:tabSpace="42.5197"/>
			<v:textRect cx="14.1732" cy="106.857" width="28.35" height="14.1732"/>
			<rect x="0" y="99.7699" width="28.3465" height="14.1732" class="st3"/>
			<text x="9.22" y="110.46" class="st14" v:langID="1043"><v:paragraph v:horizAlign="1"/><v:tabList/>S<tspan dy="-0.279em"
						class="st15" v:baseFontSize="12">3</tspan></text>		</g>
		<g id="group3782-173" transform="translate(368.624,-49.8316)" v:mID="3782" v:groupContext="group">
			<title>x-as.3782</title>
			<g id="shape3783-174" v:mID="3783" v:groupContext="shape" transform="translate(-1.3097E-12,-14.1732)">
				<title>Blad.3783</title>
				<path d="M0 113.94 L22.62 113.94" class="st16"/>
			</g>
			<g id="shape3784-181" v:mID="3784" v:groupContext="shape" transform="translate(14.1732,1.42109E-14)">
				<title>Blad.3784</title>
				<desc>x</desc>
				<v:textBlock v:margins="rect(4,4,4,4)" v:tabSpace="42.5197"/>
				<v:textRect cx="7.08661" cy="106.857" width="14.18" height="14.1732"/>
				<rect x="0" y="99.7699" width="14.1732" height="14.1732" class="st8"/>
				<text x="4.42" y="110.46" class="st14" v:langID="1043"><v:paragraph v:horizAlign="1"/><v:tabList/>x</text>			</g>
		</g>
		<g id="group3785-184" transform="translate(14.2932,-7.31194)" v:mID="3785" v:groupContext="group">
			<title>z-as.3785</title>
			<g id="shape3786-185" v:mID="3786" v:groupContext="shape" transform="translate(113.943,85.5967) rotate(90)">
				<title>Blad.3786</title>
				<path d="M0 113.94 L22.62 113.94" class="st16"/>
			</g>
			<g id="shape3787-190" v:mID="3787" v:groupContext="shape">
				<title>Blad.3787</title>
				<desc>z</desc>
				<v:textBlock v:margins="rect(4,4,4,4)" v:tabSpace="42.5197"/>
				<v:textRect cx="7.08661" cy="106.857" width="14.18" height="14.1732"/>
				<rect x="0" y="99.7699" width="14.1732" height="14.1732" class="st8"/>
				<text x="4.75" y="110.46" class="st14" v:langID="1043"><v:paragraph v:horizAlign="1"/><v:tabList/>z</text>			</g>
		</g>
		<g id="group3788-193" transform="translate(14.2932,-21.4852)" v:mID="3788" v:groupContext="group">
			<title>Maatlijn.3788</title>
			<g id="group3789-194" transform="translate(0,-9.92126)" v:mID="3789" v:groupContext="group">
				<title>Maatlijn.31</title>
				<g id="shape3790-195" v:mID="3790" v:groupContext="shape" transform="translate(113.943,105.439) rotate(90)">
					<title>Blad.3790</title>
					<path d="M0 113.94 L8.5 113.94" class="st5"/>
				</g>
				<g id="shape3791-198" v:mID="3791" v:groupContext="shape" transform="translate(156.463,105.439) rotate(90)">
					<title>Blad.3791</title>
					<path d="M0 113.94 L8.5 113.94" class="st5"/>
				</g>
				<g id="shape3792-201" v:mID="3792" v:groupContext="shape" transform="translate(0,-4.25197)">
					<title>Blad.3792</title>
					<path d="M3.74 113.94 L4.1 113.94 L38.42 113.94" class="st6"/>
				</g>
			</g>
			<g id="shape3793-208" v:mID="3793" v:groupContext="shape">
				<title>Blad.3793</title>
				<desc>7.5 m</desc>
				<v:textBlock v:margins="rect(4,4,4,4)" v:tabSpace="42.5197"/>
				<v:textRect cx="21.2598" cy="106.857" width="42.52" height="14.1732"/>
				<rect x="0" y="99.7699" width="42.5197" height="14.1732" class="st8"/>
				<text x="7.59" y="110.46" class="st4" v:langID="1043"><v:paragraph v:horizAlign="1"/><v:tabList/>7.5 m</text>			</g>
		</g>
		<g id="group3794-211" transform="translate(56.8129,-21.4852)" v:mID="3794" v:groupContext="group">
			<title>Maatlijn.3794</title>
			<g id="group3795-212" transform="translate(0,-9.92126)" v:mID="3795" v:groupContext="group">
				<title>Maatlijn.31</title>
				<g id="shape3796-213" v:mID="3796" v:groupContext="shape" transform="translate(113.943,105.439) rotate(90)">
					<title>Blad.3796</title>
					<path d="M0 113.94 L8.5 113.94" class="st5"/>
				</g>
				<g id="shape3797-216" v:mID="3797" v:groupContext="shape" transform="translate(156.463,105.439) rotate(90)">
					<title>Blad.3797</title>
					<path d="M0 113.94 L8.5 113.94" class="st5"/>
				</g>
				<g id="shape3798-219" v:mID="3798" v:groupContext="shape" transform="translate(0,-4.25197)">
					<title>Blad.3798</title>
					<path d="M3.74 113.94 L4.1 113.94 L38.42 113.94" class="st6"/>
				</g>
			</g>
			<g id="shape3799-226" v:mID="3799" v:groupContext="shape">
				<title>Blad.3799</title>
				<desc>7.5 m</desc>
				<v:textBlock v:margins="rect(4,4,4,4)" v:tabSpace="42.5197"/>
				<v:textRect cx="21.2598" cy="106.857" width="42.52" height="14.1732"/>
				<rect x="0" y="99.7699" width="42.5197" height="14.1732" class="st8"/>
				<text x="7.59" y="110.46" class="st4" v:langID="1043"><v:paragraph v:horizAlign="1"/><v:tabList/>7.5 m</text>			</g>
		</g>
		<g id="group3800-229" transform="translate(99.3326,-21.4852)" v:mID="3800" v:groupContext="group">
			<title>Maatlijn.3800</title>
			<g id="group3801-230" transform="translate(0,-9.92126)" v:mID="3801" v:groupContext="group">
				<title>Maatlijn.31</title>
				<g id="shape3802-231" v:mID="3802" v:groupContext="shape" transform="translate(113.943,105.439) rotate(90)">
					<title>Blad.3802</title>
					<path d="M0 113.94 L8.5 113.94" class="st5"/>
				</g>
				<g id="shape3803-234" v:mID="3803" v:groupContext="shape" transform="translate(170.636,105.439) rotate(90)">
					<title>Blad.3803</title>
					<path d="M0 113.94 L8.5 113.94" class="st5"/>
				</g>
				<g id="shape3804-237" v:mID="3804" v:groupContext="shape" transform="translate(0,-4.25197)">
					<title>Blad.3804</title>
					<path d="M3.74 113.94 L4.1 113.94 L52.59 113.94" class="st6"/>
				</g>
			</g>
			<g id="shape3805-244" v:mID="3805" v:groupContext="shape">
				<title>Blad.3805</title>
				<desc>10 m</desc>
				<v:textBlock v:margins="rect(4,4,4,4)" v:tabSpace="42.5197"/>
				<v:textRect cx="28.3465" cy="106.857" width="56.7" height="14.1732"/>
				<rect x="0" y="99.7699" width="56.6929" height="14.1732" class="st8"/>
				<text x="16.18" y="110.46" class="st4" v:langID="1043"><v:paragraph v:horizAlign="1"/><v:tabList/>10 m</text>			</g>
		</g>
		<g id="group3806-247" transform="translate(156.026,-21.4852)" v:mID="3806" v:groupContext="group">
			<title>Maatlijn.3806</title>
			<g id="group3807-248" transform="translate(0,-9.92126)" v:mID="3807" v:groupContext="group">
				<title>Maatlijn.31</title>
				<g id="shape3808-249" v:mID="3808" v:groupContext="shape" transform="translate(113.943,105.439) rotate(90)">
					<title>Blad.3808</title>
					<path d="M0 113.94 L8.5 113.94" class="st5"/>
				</g>
				<g id="shape3809-252" v:mID="3809" v:groupContext="shape" transform="translate(142.29,105.439) rotate(90)">
					<title>Blad.3809</title>
					<path d="M0 113.94 L8.5 113.94" class="st5"/>
				</g>
				<g id="shape3810-255" v:mID="3810" v:groupContext="shape" transform="translate(0,-4.25197)">
					<title>Blad.3810</title>
					<path d="M3.74 113.94 L4.1 113.94 L24.25 113.94" class="st6"/>
				</g>
			</g>
			<g id="shape3811-262" v:mID="3811" v:groupContext="shape">
				<title>Blad.3811</title>
				<desc>5 m</desc>
				<v:textBlock v:margins="rect(4,4,4,4)" v:tabSpace="42.5197"/>
				<v:textRect cx="14.1732" cy="106.857" width="28.35" height="14.1732"/>
				<rect x="0" y="99.7699" width="28.3465" height="14.1732" class="st8"/>
				<text x="5.01" y="110.46" class="st4" v:langID="1043"><v:paragraph v:horizAlign="1"/><v:tabList/>5 m</text>			</g>
		</g>
		<g id="group3812-265" transform="translate(184.372,-21.4852)" v:mID="3812" v:groupContext="group">
			<title>Maatlijn.3812</title>
			<g id="group3813-266" transform="translate(0,-9.92126)" v:mID="3813" v:groupContext="group">
				<title>Maatlijn.31</title>
				<g id="shape3814-267" v:mID="3814" v:groupContext="shape" transform="translate(113.943,105.439) rotate(90)">
					<title>Blad.3814</title>
					<path d="M0 113.94 L8.5 113.94" class="st5"/>
				</g>
				<g id="shape3815-270" v:mID="3815" v:groupContext="shape" transform="translate(170.636,105.439) rotate(90)">
					<title>Blad.3815</title>
					<path d="M0 113.94 L8.5 113.94" class="st5"/>
				</g>
				<g id="shape3816-273" v:mID="3816" v:groupContext="shape" transform="translate(0,-4.25197)">
					<title>Blad.3816</title>
					<path d="M3.74 113.94 L4.1 113.94 L52.59 113.94" class="st6"/>
				</g>
			</g>
			<g id="shape3817-280" v:mID="3817" v:groupContext="shape">
				<title>Blad.3817</title>
				<desc>10 m</desc>
				<v:textBlock v:margins="rect(4,4,4,4)" v:tabSpace="42.5197"/>
				<v:textRect cx="28.3465" cy="106.857" width="56.7" height="14.1732"/>
				<rect x="0" y="99.7699" width="56.6929" height="14.1732" class="st8"/>
				<text x="16.18" y="110.46" class="st4" v:langID="1043"><v:paragraph v:horizAlign="1"/><v:tabList/>10 m</text>			</g>
		</g>
		<g id="group3818-283" transform="translate(241.065,-21.4852)" v:mID="3818" v:groupContext="group">
			<title>Maatlijn.3818</title>
			<g id="group3819-284" transform="translate(0,-9.92126)" v:mID="3819" v:groupContext="group">
				<title>Maatlijn.31</title>
				<g id="shape3820-285" v:mID="3820" v:groupContext="shape" transform="translate(113.943,105.439) rotate(90)">
					<title>Blad.3820</title>
					<path d="M0 113.94 L8.5 113.94" class="st5"/>
				</g>
				<g id="shape3821-288" v:mID="3821" v:groupContext="shape" transform="translate(198.982,105.439) rotate(90)">
					<title>Blad.3821</title>
					<path d="M0 113.94 L8.5 113.94" class="st5"/>
				</g>
				<g id="shape3822-291" v:mID="3822" v:groupContext="shape" transform="translate(0,-4.25197)">
					<title>Blad.3822</title>
					<path d="M3.74 113.94 L4.1 113.94 L80.94 113.94" class="st6"/>
				</g>
			</g>
			<g id="shape3823-298" v:mID="3823" v:groupContext="shape">
				<title>Blad.3823</title>
				<desc>15 m</desc>
				<v:textBlock v:margins="rect(4,4,4,4)" v:tabSpace="42.5197"/>
				<v:textRect cx="42.5197" cy="106.857" width="85.04" height="14.1732"/>
				<rect x="0" y="99.7699" width="85.0394" height="14.1732" class="st8"/>
				<text x="30.35" y="110.46" class="st4" v:langID="1043"><v:paragraph v:horizAlign="1"/><v:tabList/>15 m</text>			</g>
		</g>
		<g id="group3824-301" transform="translate(326.104,-21.4852)" v:mID="3824" v:groupContext="group">
			<title>Maatlijn.3824</title>
			<g id="group3825-302" transform="translate(0,-9.92126)" v:mID="3825" v:groupContext="group">
				<title>Maatlijn.31</title>
				<g id="shape3826-303" v:mID="3826" v:groupContext="shape" transform="translate(113.943,105.439) rotate(90)">
					<title>Blad.3826</title>
					<path d="M0 113.94 L8.5 113.94" class="st5"/>
				</g>
				<g id="shape3827-306" v:mID="3827" v:groupContext="shape" transform="translate(142.29,105.439) rotate(90)">
					<title>Blad.3827</title>
					<path d="M0 113.94 L8.5 113.94" class="st5"/>
				</g>
				<g id="shape3828-309" v:mID="3828" v:groupContext="shape" transform="translate(0,-4.25197)">
					<title>Blad.3828</title>
					<path d="M3.74 113.94 L4.1 113.94 L24.25 113.94" class="st6"/>
				</g>
			</g>
			<g id="shape3829-316" v:mID="3829" v:groupContext="shape">
				<title>Blad.3829</title>
				<desc>5 m</desc>
				<v:textBlock v:margins="rect(4,4,4,4)" v:tabSpace="42.5197"/>
				<v:textRect cx="14.1732" cy="106.857" width="28.35" height="14.1732"/>
				<rect x="0" y="99.7699" width="28.3465" height="14.1732" class="st8"/>
				<text x="5.01" y="110.46" class="st4" v:langID="1043"><v:paragraph v:horizAlign="1"/><v:tabList/>5 m</text>			</g>
		</g>
	</g>
</svg>
