<?xml version="1.0" encoding="UTF-8" standalone="no"?>
<!DOCTYPE svg PUBLIC "-//W3C//DTD SVG 1.1//EN" "http://www.w3.org/Graphics/SVG/1.1/DTD/svg11.dtd">
<!-- Gegenereerd door Microsoft Visio, SVG Export Constructie5.svg Pagina-1 -->
<svg xmlns="http://www.w3.org/2000/svg" xmlns:xlink="http://www.w3.org/1999/xlink" xmlns:ev="http://www.w3.org/2001/xml-events"
		xmlns:v="http://schemas.microsoft.com/visio/2003/SVGExtensions/" width="6.40598in" height="3.42466in"
		viewBox="0 0 461.23 246.575" xml:space="preserve" color-interpolation-filters="sRGB" class="st22">
	<v:documentProperties v:langID="1043" v:metric="true" v:viewMarkup="false">
		<v:userDefs>
			<v:ud v:nameU="visShowViewports" v:val="VT0(0):26"/>
		</v:userDefs>
	</v:documentProperties>

	<style type="text/css">
	<![CDATA[
		.st1 {marker-end:url(#mrkr5-8);stroke:#000000;stroke-linecap:round;stroke-linejoin:round;stroke-width:0.75}
		.st2 {fill:#000000;fill-opacity:1;stroke:#000000;stroke-opacity:1;stroke-width:0.22935779816514}
		.st3 {stroke:#000000;stroke-linecap:round;stroke-linejoin:round;stroke-width:0.75}
		.st4 {stroke:#000000;stroke-linecap:round;stroke-linejoin:round;stroke-width:2}
		.st5 {fill:none;stroke:none;stroke-linecap:round;stroke-linejoin:round;stroke-width:0.75}
		.st6 {fill:#000000;font-family:Times New Roman;font-size:1.00001em}
		.st7 {fill:#000000;font-family:Times New Roman;font-size:1.00001em;font-style:italic}
		.st8 {font-size:1em;font-style:normal}
		.st9 {font-size:1em}
		.st10 {font-size:1em;font-style:italic}
		.st11 {baseline-shift:-32.4941%;font-size:0.649882em;font-style:italic}
		.st12 {fill:#ffffff;stroke:#000000;stroke-linecap:round;stroke-linejoin:round;stroke-width:0.75}
		.st13 {fill:#00cc99;stroke:#000000;stroke-linecap:round;stroke-linejoin:round;stroke-width:0.75}
		.st14 {stroke:#000000;stroke-linecap:round;stroke-linejoin:round;stroke-width:1.2}
		.st15 {fill:none;stroke:none;stroke-linecap:round;stroke-linejoin:round;stroke-width:0.24}
		.st16 {baseline-shift:-32.4941%;font-size:0.649882em;font-style:normal}
		.st17 {marker-start:url(#mrkr5-258);stroke:#800000;stroke-linecap:round;stroke-linejoin:round;stroke-width:2}
		.st18 {fill:#800000;fill-opacity:1;stroke:#800000;stroke-opacity:1;stroke-width:0.44247787610619}
		.st19 {stroke:#000000;stroke-linecap:round;stroke-linejoin:round;stroke-width:0.25}
		.st20 {marker-end:url(#mrkr4-296);marker-start:url(#mrkr4-294);stroke:#000000;stroke-linecap:round;stroke-linejoin:round;stroke-width:0.25}
		.st21 {fill:#000000;fill-opacity:1;stroke:#000000;stroke-opacity:1;stroke-width:0.1219512195122}
		.st22 {fill:none;fill-rule:evenodd;font-size:12px;overflow:visible;stroke-linecap:square;stroke-miterlimit:3}
	]]>
	</style>

	<defs id="Markers">
		<g id="lend5">
			<path d="M 2 1 L 0 0 L 1.98117 -0.993387 C 1.67173 -0.364515 1.67301 0.372641 1.98465 1.00043 " style="stroke:none"/>
		</g>
		<marker id="mrkr5-8" class="st2" v:arrowType="5" v:arrowSize="2" v:setback="7.63" refX="-7.63" orient="auto"
				markerUnits="strokeWidth" overflow="visible">
			<use xlink:href="#lend5" transform="scale(-4.36,-4.36) "/>
		</marker>
		<marker id="mrkr5-258" class="st18" v:arrowType="5" v:arrowSize="2" v:setback="3.775" refX="3.775" orient="auto"
				markerUnits="strokeWidth" overflow="visible">
			<use xlink:href="#lend5" transform="scale(2.26) "/>
		</marker>
		<g id="lend4">
			<path d="M 2 1 L 0 0 L 2 -1 L 2 1 " style="stroke:none"/>
		</g>
		<marker id="mrkr4-294" class="st21" v:arrowType="4" v:arrowSize="1" v:setback="14.96" refX="14.96" orient="auto"
				markerUnits="strokeWidth" overflow="visible">
			<use xlink:href="#lend4" transform="scale(8.2) "/>
		</marker>
		<marker id="mrkr4-296" class="st21" v:arrowType="4" v:arrowSize="1" v:setback="16.4" refX="-16.4" orient="auto"
				markerUnits="strokeWidth" overflow="visible">
			<use xlink:href="#lend4" transform="scale(-8.2,-8.2) "/>
		</marker>
	</defs>
	<g v:mID="0" v:index="1" v:groupContext="foregroundPage">
		<title>Pagina-1</title>
		<v:pageProperties v:drawingScale="0.0393701" v:pageScale="0.0393701" v:drawingUnits="24" v:shadowOffsetX="8.50394"
				v:shadowOffsetY="-8.50394"/>
		<g id="group2959-1" transform="translate(71.2411,-21.6023)" v:mID="2959" v:groupContext="group">
			<title>z-as.2959</title>
			<g id="shape2960-2" v:mID="2960" v:groupContext="shape" transform="translate(246.575,145.463) rotate(90)">
				<title>Blad.2960</title>
				<path d="M0 246.58 L98.21 246.58" class="st1"/>
			</g>
		</g>
		<g id="shape2961-9" v:mID="2961" v:groupContext="shape" transform="translate(71.2411,-78.2952)">
			<title>Blad.2961</title>
			<path d="M0 246.58 L340.16 246.58" class="st3"/>
		</g>
		<g id="shape2962-12" v:mID="2962" v:groupContext="shape" transform="translate(200.339,-78.5404) rotate(20.556)">
			<title>Ligger, 2 pt.2962</title>
			<path d="M0 246.58 L45.41 246.58" class="st4"/>
		</g>
		<g id="shape2963-15" v:mID="2963" v:groupContext="shape" transform="translate(65.0282,-7.72025) rotate(-36.8699)">
			<title>Ligger, 2 pt.2963</title>
			<path d="M0 246.58 L35.43 246.58" class="st4"/>
		</g>
		<g id="shape2964-18" v:mID="2964" v:groupContext="shape" transform="translate(408.285,-94.7832) rotate(26.5651)">
			<title>Ligger, 2 pt.2964</title>
			<path d="M0 246.58 L95.08 246.58" class="st4"/>
		</g>
		<g id="shape2965-21" v:mID="2965" v:groupContext="shape" transform="translate(383.052,-78.2952)">
			<title>Ligger, 2 pt.2965</title>
			<path d="M0 246.58 L28.35 246.58" class="st4"/>
		</g>
		<g id="shape2966-24" v:mID="2966" v:groupContext="shape" transform="translate(-175.334,168.28) rotate(-90)">
			<title>Blad.2966</title>
			<path d="M0 246.58 L56.69 246.58" class="st3"/>
		</g>
		<g id="shape2967-27" v:mID="2967" v:groupContext="shape" transform="translate(-132.815,171.115) rotate(-90)">
			<title>Blad.2967</title>
			<path d="M0 246.58 L5.67 246.58" class="st3"/>
		</g>
		<g id="group2968-30" transform="translate(411.399,-64.1219)" v:mID="2968" v:groupContext="group">
			<title>x-as.2968</title>
			<g id="shape2969-31" v:mID="2969" v:groupContext="shape" transform="translate(-2.78665E-12,-14.1732)">
				<title>Blad.2969</title>
				<path d="M0 246.58 L36.8 246.58" class="st1"/>
			</g>
		</g>
		<g id="shape2970-36" v:mID="2970" v:groupContext="shape" transform="translate(-5.25554,171.115) rotate(-90)">
			<title>Blad.2970</title>
			<path d="M0 246.58 L5.67 246.58" class="st3"/>
		</g>
		<g id="shape2971-39" v:mID="2971" v:groupContext="shape" transform="translate(-33.602,171.115) rotate(-90)">
			<title>Blad.2971</title>
			<path d="M0 246.58 L5.67 246.58" class="st3"/>
		</g>
		<g id="shape2972-42" v:mID="2972" v:groupContext="shape" transform="translate(-90.2949,171.115) rotate(-90)">
			<title>Blad.2972</title>
			<path d="M0 246.58 L5.67 246.58" class="st3"/>
		</g>
		<g id="shape2973-45" v:mID="2973" v:groupContext="shape" transform="translate(136.477,171.115) rotate(-90)">
			<title>Blad.2973</title>
			<path d="M0 246.58 L5.67 246.58" class="st3"/>
		</g>
		<g id="shape2974-48" v:mID="2974" v:groupContext="shape" transform="translate(51.4374,171.115) rotate(-90)">
			<title>Blad.2974</title>
			<path d="M0 246.58 L5.67 246.58" class="st3"/>
		</g>
		<g id="shape2975-51" v:mID="2975" v:groupContext="shape" transform="translate(164.823,171.115) rotate(-90)">
			<title>Blad.2975</title>
			<path d="M0 246.58 L5.67 246.58" class="st3"/>
		</g>
		<g id="shape2976-54" v:mID="2976" v:groupContext="shape" transform="translate(99.5876,-78.2952)">
			<title>Blad.2976</title>
			<desc>7.5</desc>
			<v:textBlock v:margins="rect(4,4,4,4)" v:tabSpace="42.5197"/>
			<v:textRect cx="15.5905" cy="239.489" width="31.19" height="14.1732"/>
			<rect x="0" y="232.402" width="31.1811" height="14.1732" class="st5"/>
			<text x="8.09" y="243.09" class="st6" v:langID="1043"><v:paragraph v:horizAlign="1"/><v:tabList/>7.5</text>		</g>
		<g id="shape2977-57" v:mID="2977" v:groupContext="shape" transform="translate(142.107,-78.2952)">
			<title>Blad.2977</title>
			<desc>15</desc>
			<v:textBlock v:margins="rect(4,4,4,4)" v:tabSpace="42.5197"/>
			<v:textRect cx="15.5905" cy="239.489" width="31.19" height="14.1732"/>
			<rect x="0" y="232.402" width="31.1811" height="14.1732" class="st5"/>
			<text x="9.59" y="243.09" class="st6" v:langID="1043"><v:paragraph v:horizAlign="1"/><v:tabList/>15</text>		</g>
		<g id="shape2978-60" v:mID="2978" v:groupContext="shape" transform="translate(197.383,-78.2952)">
			<title>Blad.2978</title>
			<desc>25</desc>
			<v:textBlock v:margins="rect(4,4,4,4)" v:tabSpace="42.5197"/>
			<v:textRect cx="15.5905" cy="239.489" width="31.19" height="14.1732"/>
			<rect x="0" y="232.402" width="31.1811" height="14.1732" class="st5"/>
			<text x="9.59" y="243.09" class="st6" v:langID="1043"><v:paragraph v:horizAlign="1"/><v:tabList/>25</text>		</g>
		<g id="shape2979-63" v:mID="2979" v:groupContext="shape" transform="translate(227.147,-78.2952)">
			<title>Blad.2979</title>
			<desc>30</desc>
			<v:textBlock v:margins="rect(4,4,4,4)" v:tabSpace="42.5197"/>
			<v:textRect cx="15.5905" cy="239.489" width="31.19" height="14.1732"/>
			<rect x="0" y="232.402" width="31.1811" height="14.1732" class="st5"/>
			<text x="9.59" y="243.09" class="st6" v:langID="1043"><v:paragraph v:horizAlign="1"/><v:tabList/>30</text>		</g>
		<g id="shape2980-66" v:mID="2980" v:groupContext="shape" transform="translate(283.84,-78.2952)">
			<title>Blad.2980</title>
			<desc>40</desc>
			<v:textBlock v:margins="rect(4,4,4,4)" v:tabSpace="42.5197"/>
			<v:textRect cx="15.5905" cy="239.489" width="31.19" height="14.1732"/>
			<rect x="0" y="232.402" width="31.1811" height="14.1732" class="st5"/>
			<text x="9.59" y="243.09" class="st6" v:langID="1043"><v:paragraph v:horizAlign="1"/><v:tabList/>40</text>		</g>
		<g id="shape2981-69" v:mID="2981" v:groupContext="shape" transform="translate(368.879,-78.2952)">
			<title>Blad.2981</title>
			<desc>55</desc>
			<v:textBlock v:margins="rect(4,4,4,4)" v:tabSpace="42.5197"/>
			<v:textRect cx="15.5905" cy="239.489" width="31.19" height="14.1732"/>
			<rect x="0" y="232.402" width="31.1811" height="14.1732" class="st5"/>
			<text x="9.59" y="243.09" class="st6" v:langID="1043"><v:paragraph v:horizAlign="1"/><v:tabList/>55</text>		</g>
		<g id="shape2982-72" v:mID="2982" v:groupContext="shape" transform="translate(395.808,-78.2952)">
			<title>Blad.2982</title>
			<desc>60</desc>
			<v:textBlock v:margins="rect(4,4,4,4)" v:tabSpace="42.5197"/>
			<v:textRect cx="15.5905" cy="239.489" width="31.19" height="14.1732"/>
			<rect x="0" y="232.402" width="31.1811" height="14.1732" class="st5"/>
			<text x="9.59" y="243.09" class="st6" v:langID="1043"><v:paragraph v:horizAlign="1"/><v:tabList/>60</text>		</g>
		<g id="shape2983-75" v:mID="2983" v:groupContext="shape" transform="translate(242.859,-62.5955) rotate(20.556)">
			<title>Ligger, 2 pt.2983</title>
			<path d="M0 246.58 L60.55 246.58" class="st4"/>
		</g>
		<g id="shape2984-78" v:mID="2984" v:groupContext="shape" transform="translate(-15.3373,-62.5955) rotate(-20.556)">
			<title>Ligger, 2 pt.2984</title>
			<path d="M0 246.58 L45.41 246.58" class="st4"/>
		</g>
		<g id="shape2985-81" v:mID="2985" v:groupContext="shape" transform="translate(93.3746,-28.9801) rotate(-36.8699)">
			<title>Ligger, 2 pt.2985</title>
			<path d="M0 246.58 L70.87 246.58" class="st4"/>
		</g>
		<g id="shape2986-84" v:mID="2986" v:groupContext="shape" transform="translate(411.399,-64.1219)">
			<title>x-as.2986</title>
			<desc>x (m)</desc>
			<v:textBlock v:margins="rect(4,4,4,4)" v:tabSpace="42.5197"/>
			<v:textRect cx="21.2598" cy="239.489" width="42.52" height="14.1732"/>
			<rect x="0" y="232.402" width="42.5197" height="14.1732" class="st5"/>
			<text x="8.43" y="243.09" class="st7" v:langID="1043"><v:paragraph v:horizAlign="1"/><v:tabList/>x <tspan class="st8">(m)</tspan> </text>		</g>
		<g id="shape2987-88" v:mID="2987" v:groupContext="shape" transform="translate(0.375,-14.5156)">
			<title>z-as.2987</title>
			<desc>Influence line ME (kNm/kN)</desc>
			<v:textBlock v:margins="rect(4,4,4,4)" v:tabSpace="42.5197"/>
			<v:textRect cx="35.4331" cy="239.489" width="70.87" height="14.1732"/>
			<rect x="0" y="232.402" width="70.8661" height="14.1732" class="st5"/>
			<text x="12.78" y="228.69" class="st6" v:langID="1043"><v:paragraph v:horizAlign="1"/><v:tabList/>Influence<v:newlineChar/><tspan
						x="17.56" dy="1.2em" class="st9">line </tspan><tspan class="st10">M</tspan><tspan dy="-0.279em"
						class="st11" v:baseFontSize="12">E</tspan><tspan dy="0.181em" class="st10"> </tspan><tspan x="10.44"
						dy="1.2em" class="st9">(kNm/kN)</tspan></text>		</g>
		<g id="shape2988-96" v:mID="2988" v:groupContext="shape" transform="translate(74.0758,436.116) rotate(180)">
			<title>Blad.2988</title>
			<path d="M0 246.58 L5.67 246.58" class="st3"/>
		</g>
		<g id="shape2989-99" v:mID="2989" v:groupContext="shape" transform="translate(74.0758,398.911) rotate(180)">
			<title>Blad.2989</title>
			<path d="M0 246.58 L5.67 246.58" class="st3"/>
		</g>
		<g id="shape2990-102" v:mID="2990" v:groupContext="shape" transform="translate(74.0758,372.336) rotate(180)">
			<title>Blad.2990</title>
			<path d="M0 246.58 L5.67 246.58" class="st3"/>
		</g>
		<g id="shape2991-105" v:mID="2991" v:groupContext="shape" transform="translate(28.7215,-49.9487)">
			<title>Blad.2991</title>
			<desc>3.333</desc>
			<v:textBlock v:margins="rect(4,4,4,4)" v:tabSpace="42.5197"/>
			<v:textRect cx="21.2598" cy="239.489" width="42.52" height="14.1732"/>
			<rect x="0" y="232.402" width="42.5197" height="14.1732" class="st5"/>
			<text x="7.76" y="243.09" class="st6" v:langID="1043"><v:paragraph v:horizAlign="1"/><v:tabList/>3.333</text>		</g>
		<g id="shape2992-108" v:mID="2992" v:groupContext="shape" transform="translate(40.0601,-86.7991)">
			<title>Blad.2992</title>
			<desc>2.5</desc>
			<v:textBlock v:margins="rect(4,4,4,4)" v:tabSpace="42.5197"/>
			<v:textRect cx="15.5905" cy="239.489" width="31.19" height="14.1732"/>
			<rect x="0" y="232.402" width="31.1811" height="14.1732" class="st5"/>
			<text x="8.09" y="243.09" class="st6" v:langID="1043"><v:paragraph v:horizAlign="1"/><v:tabList/>2.5</text>		</g>
		<g id="shape2993-111" v:mID="2993" v:groupContext="shape" transform="translate(28.7215,-113.728)">
			<title>Blad.2993</title>
			<desc>-6.667</desc>
			<v:textBlock v:margins="rect(4,4,4,4)" v:tabSpace="42.5197"/>
			<v:textRect cx="21.2598" cy="239.489" width="42.52" height="14.1732"/>
			<rect x="0" y="232.402" width="42.5197" height="14.1732" class="st5"/>
			<text x="5.76" y="243.09" class="st6" v:langID="1043"><v:paragraph v:horizAlign="1"/><v:tabList/>-6.667</text>		</g>
		<g id="shape2994-114" v:mID="2994" v:groupContext="shape" transform="translate(383.183,-205.854)">
			<title>Ligger, 2 pt.2994</title>
			<path d="M0 246.58 L28.35 246.58" class="st4"/>
		</g>
		<g id="shape2995-117" v:mID="2995" v:groupContext="shape" transform="translate(113.761,-205.854)">
			<title>Ligger, 2 pt.2995</title>
			<path d="M0 246.58 L42.52 246.58" class="st4"/>
		</g>
		<g id="shape2996-120" v:mID="2996" v:groupContext="shape" transform="translate(71.2411,-205.854)">
			<title>Ligger, 2 pt.2996</title>
			<path d="M0 246.58 L42.52 246.58" class="st4"/>
		</g>
		<g id="shape2997-123" v:mID="2997" v:groupContext="shape" transform="translate(111.635,-203.728)">
			<title>Scharnier.2997</title>
			<ellipse cx="2.12598" cy="244.449" rx="2.12598" ry="2.12598" class="st12"/>
		</g>
		<g id="group2998-125" transform="translate(61.3199,-191.681)" v:mID="2998" v:groupContext="group">
			<title>Rol.2998</title>
			<g id="group2999-126" transform="translate(0.261477,-2.83465)" v:mID="2999" v:groupContext="group">
				<title>Scharnier</title>
				<g id="shape3471-127" v:mID="3471" v:groupContext="shape" transform="translate(2.79729,2.84217E-14)">
					<title>Blad.3471</title>
					<path d="M0 246.58 L13.99 246.58 L6.99 235.24 L0 246.58 Z" class="st13"/>
				</g>
				<g id="shape3472-129" v:mID="3472" v:groupContext="shape" transform="translate(2.79729,493.151) rotate(180)">
					<title>Blad.3472</title>
					<path d="M0 246.58 L2.8 246.58" class="st3"/>
				</g>
				<g id="shape3473-132" v:mID="3473" v:groupContext="shape" transform="translate(16.7838,2.84217E-14)">
					<title>Blad.3473</title>
					<path d="M0 246.58 L2.8 246.58" class="st3"/>
				</g>
			</g>
			<g id="shape3474-135" v:mID="3474" v:groupContext="shape">
				<title>Blad.3474</title>
				<path d="M0 246.58 L19.84 246.58" class="st3"/>
			</g>
		</g>
		<g id="group3475-138" transform="translate(146.359,-191.681)" v:mID="3475" v:groupContext="group">
			<title>Rol.3475</title>
			<g id="group3476-139" transform="translate(0.261477,-2.83465)" v:mID="3476" v:groupContext="group">
				<title>Scharnier</title>
				<g id="shape3477-140" v:mID="3477" v:groupContext="shape" transform="translate(2.79729,2.84217E-14)">
					<title>Blad.3477</title>
					<path d="M0 246.58 L13.99 246.58 L6.99 235.24 L0 246.58 Z" class="st13"/>
				</g>
				<g id="shape3478-142" v:mID="3478" v:groupContext="shape" transform="translate(2.79729,493.151) rotate(180)">
					<title>Blad.3478</title>
					<path d="M0 246.58 L2.8 246.58" class="st3"/>
				</g>
				<g id="shape3479-145" v:mID="3479" v:groupContext="shape" transform="translate(16.7838,2.84217E-14)">
					<title>Blad.3479</title>
					<path d="M0 246.58 L2.8 246.58" class="st3"/>
				</g>
			</g>
			<g id="shape3480-148" v:mID="3480" v:groupContext="shape">
				<title>Blad.3480</title>
				<path d="M0 246.58 L19.84 246.58" class="st3"/>
			</g>
		</g>
		<g id="shape3481-151" v:mID="3481" v:groupContext="shape" transform="translate(156.411,-205.854)">
			<title>Ligger, 2 pt.3481</title>
			<path d="M0 246.58 L56.69 246.58" class="st4"/>
		</g>
		<g id="shape3482-154" v:mID="3482" v:groupContext="shape" transform="translate(213.104,-205.854)">
			<title>Ligger, 2 pt.3482</title>
			<path d="M0 246.58 L28.35 246.58" class="st4"/>
		</g>
		<g id="group3483-157" transform="translate(231.399,-191.681)" v:mID="3483" v:groupContext="group">
			<title>Rol.3483</title>
			<g id="group3484-158" transform="translate(0.261477,-2.83465)" v:mID="3484" v:groupContext="group">
				<title>Scharnier</title>
				<g id="shape3485-159" v:mID="3485" v:groupContext="shape" transform="translate(2.79729,2.84217E-14)">
					<title>Blad.3485</title>
					<path d="M0 246.58 L13.99 246.58 L6.99 235.24 L0 246.58 Z" class="st13"/>
				</g>
				<g id="shape3486-161" v:mID="3486" v:groupContext="shape" transform="translate(2.79729,493.151) rotate(180)">
					<title>Blad.3486</title>
					<path d="M0 246.58 L2.8 246.58" class="st3"/>
				</g>
				<g id="shape3487-164" v:mID="3487" v:groupContext="shape" transform="translate(16.7838,2.84217E-14)">
					<title>Blad.3487</title>
					<path d="M0 246.58 L2.8 246.58" class="st3"/>
				</g>
			</g>
			<g id="shape3488-167" v:mID="3488" v:groupContext="shape">
				<title>Blad.3488</title>
				<path d="M0 246.58 L19.84 246.58" class="st3"/>
			</g>
		</g>
		<g id="shape3489-170" v:mID="3489" v:groupContext="shape" transform="translate(459.549,37.8866) rotate(90)">
			<title>Blad.3489</title>
			<path d="M0 246.58 L5.67 246.58" class="st3"/>
		</g>
		<g id="shape3490-173" v:mID="3490" v:groupContext="shape" transform="translate(241.451,-205.854)">
			<title>Ligger, 2 pt.3490</title>
			<path d="M0 246.58 L56.69 246.58" class="st4"/>
		</g>
		<g id="shape3491-176" v:mID="3491" v:groupContext="shape" transform="translate(298.144,-205.854)">
			<title>Ligger, 2 pt.3491</title>
			<path d="M0 246.58 L85.04 246.58" class="st4"/>
		</g>
		<g id="shape3492-179" v:mID="3492" v:groupContext="shape" transform="translate(295.887,-203.728)">
			<title>Scharnier.3492</title>
			<ellipse cx="2.12598" cy="244.449" rx="2.12598" ry="2.12598" class="st12"/>
		</g>
		<g id="shape3493-181" v:mID="3493" v:groupContext="shape" transform="translate(380.926,-203.728)">
			<title>Scharnier.3493</title>
			<ellipse cx="2.12598" cy="244.449" rx="2.12598" ry="2.12598" class="st12"/>
		</g>
		<g id="group3494-183" transform="translate(422.737,273.123) rotate(180)" v:mID="3494" v:groupContext="group">
			<title>Inklemming.3494</title>
			<g id="shape3495-184" v:mID="3495" v:groupContext="shape" transform="translate(257.914,218.229) rotate(90)">
				<title>Blad.3495</title>
				<path d="M0 246.58 L28.35 246.58" class="st14"/>
			</g>
			<g id="shape3496-187" v:mID="3496" v:groupContext="shape" transform="translate(182.859,43.8738) rotate(45)">
				<title>Blad.3496</title>
				<path d="M0 246.58 L4.01 246.58" class="st3"/>
			</g>
			<g id="shape3497-190" v:mID="3497" v:groupContext="shape" transform="translate(180.024,43.8738) rotate(45)">
				<title>Blad.3497</title>
				<path d="M0 246.58 L8.02 246.58" class="st3"/>
			</g>
			<g id="shape3498-193" v:mID="3498" v:groupContext="shape" transform="translate(177.19,43.8738) rotate(45)">
				<title>Blad.3498</title>
				<path d="M0 246.58 L12.03 246.58" class="st3"/>
			</g>
			<g id="shape3499-196" v:mID="3499" v:groupContext="shape" transform="translate(174.355,43.8738) rotate(45)">
				<title>Blad.3499</title>
				<path d="M0 246.58 L16.04 246.58" class="st3"/>
			</g>
			<g id="shape3500-199" v:mID="3500" v:groupContext="shape" transform="translate(174.355,46.7085) rotate(45)">
				<title>Blad.3500</title>
				<path d="M0 246.58 L16.04 246.58" class="st3"/>
			</g>
			<g id="shape3501-202" v:mID="3501" v:groupContext="shape" transform="translate(174.355,49.5431) rotate(45)">
				<title>Blad.3501</title>
				<path d="M0 246.58 L16.04 246.58" class="st3"/>
			</g>
			<g id="shape3502-205" v:mID="3502" v:groupContext="shape" transform="translate(174.355,52.3778) rotate(45)">
				<title>Blad.3502</title>
				<path d="M0 246.58 L16.04 246.58" class="st3"/>
			</g>
			<g id="shape3503-208" v:mID="3503" v:groupContext="shape" transform="translate(174.355,55.2124) rotate(45)">
				<title>Blad.3503</title>
				<path d="M0 246.58 L16.04 246.58" class="st3"/>
			</g>
			<g id="shape3504-211" v:mID="3504" v:groupContext="shape" transform="translate(174.355,58.047) rotate(45)">
				<title>Blad.3504</title>
				<path d="M0 246.58 L16.04 246.58" class="st3"/>
			</g>
			<g id="shape3505-214" v:mID="3505" v:groupContext="shape" transform="translate(174.355,60.8817) rotate(45)">
				<title>Blad.3505</title>
				<path d="M0 246.58 L16.04 246.58" class="st3"/>
			</g>
			<g id="shape3506-217" v:mID="3506" v:groupContext="shape" transform="translate(174.355,63.7163) rotate(45)">
				<title>Blad.3506</title>
				<path d="M0 246.58 L12.03 246.58" class="st3"/>
			</g>
			<g id="shape3507-220" v:mID="3507" v:groupContext="shape" transform="translate(174.355,66.551) rotate(45)">
				<title>Blad.3507</title>
				<path d="M0 246.58 L8.02 246.58" class="st3"/>
			</g>
			<g id="shape3508-223" v:mID="3508" v:groupContext="shape" transform="translate(174.355,69.3856) rotate(45)">
				<title>Blad.3508</title>
				<path d="M0 246.58 L4.01 246.58" class="st3"/>
			</g>
		</g>
		<g id="shape3509-226" v:mID="3509" v:groupContext="shape" transform="translate(64.1545,-205.854)">
			<title>Punt A.3509</title>
			<desc>A</desc>
			<v:textBlock v:margins="rect(4,4,4,4)" v:tabSpace="42.5197"/>
			<v:textRect cx="7.08661" cy="239.489" width="14.18" height="14.1732"/>
			<rect x="0" y="232.402" width="14.1732" height="14.1732" class="st15"/>
			<text x="4" y="243.09" class="st7" v:langID="1043"><v:paragraph v:horizAlign="1"/><v:tabList/>A</text>		</g>
		<g id="shape3510-229" v:mID="3510" v:groupContext="shape" transform="translate(149.194,-205.854)">
			<title>Punt A.3510</title>
			<desc>B</desc>
			<v:textBlock v:margins="rect(4,4,4,4)" v:tabSpace="42.5197"/>
			<v:textRect cx="7.08661" cy="239.489" width="14.18" height="14.1732"/>
			<rect x="0" y="232.402" width="14.1732" height="14.1732" class="st15"/>
			<text x="4" y="243.09" class="st7" v:langID="1043"><v:paragraph v:horizAlign="1"/><v:tabList/>B</text>		</g>
		<g id="shape3511-232" v:mID="3511" v:groupContext="shape" transform="translate(234.233,-205.854)">
			<title>Punt A.3511</title>
			<desc>C</desc>
			<v:textBlock v:margins="rect(4,4,4,4)" v:tabSpace="42.5197"/>
			<v:textRect cx="7.08661" cy="239.489" width="14.18" height="14.1732"/>
			<rect x="0" y="232.402" width="14.1732" height="14.1732" class="st15"/>
			<text x="4" y="243.09" class="st7" v:langID="1043"><v:paragraph v:horizAlign="1"/><v:tabList/>C</text>		</g>
		<g id="shape3512-235" v:mID="3512" v:groupContext="shape" transform="translate(397.225,-205.854)">
			<title>Punt A.3512</title>
			<desc>D</desc>
			<v:textBlock v:margins="rect(4,4,4,4)" v:tabSpace="42.5197"/>
			<v:textRect cx="7.08661" cy="239.489" width="14.18" height="14.1732"/>
			<rect x="0" y="232.402" width="14.1732" height="14.1732" class="st15"/>
			<text x="4" y="243.09" class="st7" v:langID="1043"><v:paragraph v:horizAlign="1"/><v:tabList/>D</text>		</g>
		<g id="shape3513-238" v:mID="3513" v:groupContext="shape" transform="translate(205.887,-188.846)">
			<title>Punt A.3513</title>
			<desc>E</desc>
			<v:textBlock v:margins="rect(4,4,4,4)" v:tabSpace="42.5197"/>
			<v:textRect cx="7.08661" cy="239.489" width="14.18" height="14.1732"/>
			<rect x="0" y="232.402" width="14.1732" height="14.1732" class="st15"/>
			<text x="4" y="243.09" class="st7" v:langID="1043"><v:paragraph v:horizAlign="1"/><v:tabList/>E</text>		</g>
		<g id="shape3514-241" v:mID="3514" v:groupContext="shape" transform="translate(99.5876,-205.854)">
			<title>Punt A.3514</title>
			<desc>S1</desc>
			<v:textBlock v:margins="rect(4,4,4,4)" v:tabSpace="42.5197"/>
			<v:textRect cx="14.1732" cy="239.489" width="28.35" height="14.1732"/>
			<rect x="0" y="232.402" width="28.3465" height="14.1732" class="st15"/>
			<text x="9.22" y="243.09" class="st7" v:langID="1043"><v:paragraph v:horizAlign="1"/><v:tabList/>S<tspan dy="-0.279em"
						class="st16" v:baseFontSize="12">1</tspan></text>		</g>
		<g id="shape3515-245" v:mID="3515" v:groupContext="shape" transform="translate(283.84,-191.681)">
			<title>Punt A.3515</title>
			<desc>S2</desc>
			<v:textBlock v:margins="rect(4,4,4,4)" v:tabSpace="42.5197"/>
			<v:textRect cx="14.1732" cy="239.489" width="28.35" height="14.1732"/>
			<rect x="0" y="232.402" width="28.3465" height="14.1732" class="st15"/>
			<text x="9.22" y="243.09" class="st7" v:langID="1043"><v:paragraph v:horizAlign="1"/><v:tabList/>S<tspan dy="-0.279em"
						class="st16" v:baseFontSize="12">2</tspan></text>		</g>
		<g id="shape3516-249" v:mID="3516" v:groupContext="shape" transform="translate(368.879,-191.681)">
			<title>Punt A.3516</title>
			<desc>S3</desc>
			<v:textBlock v:margins="rect(4,4,4,4)" v:tabSpace="42.5197"/>
			<v:textRect cx="14.1732" cy="239.489" width="28.35" height="14.1732"/>
			<rect x="0" y="232.402" width="28.3465" height="14.1732" class="st15"/>
			<text x="9.22" y="243.09" class="st7" v:langID="1043"><v:paragraph v:horizAlign="1"/><v:tabList/>S<tspan dy="-0.279em"
						class="st16" v:baseFontSize="12">3</tspan></text>		</g>
		<g id="shape3517-253" v:mID="3517" v:groupContext="shape" transform="translate(-33.602,40.7212) rotate(-90)">
			<title>Kracht.3517</title>
			<path d="M7.55 246.58 L7.91 246.58 L28.35 246.58" class="st17"/>
		</g>
		<g id="shape3518-259" v:mID="3518" v:groupContext="shape" transform="translate(212.973,-220.027)">
			<title>Punt A.3518</title>
			<desc>6 kN</desc>
			<v:textBlock v:margins="rect(4,4,4,4)" v:tabSpace="42.5197"/>
			<v:textRect cx="19.8425" cy="239.489" width="39.69" height="14.1732"/>
			<rect x="0" y="232.402" width="39.685" height="14.1732" class="st15"/>
			<text x="8.01" y="243.09" class="st6" v:langID="1043"><v:paragraph v:horizAlign="1"/><v:tabList/>6 kN</text>		</g>
		<g id="group3519-262" transform="translate(425.572,-191.681)" v:mID="3519" v:groupContext="group">
			<title>x-as.3519</title>
			<g id="shape3520-263" v:mID="3520" v:groupContext="shape" transform="translate(-2.80863E-12,-14.1732)">
				<title>Blad.3520</title>
				<path d="M0 246.58 L22.62 246.58" class="st1"/>
			</g>
			<g id="shape3521-268" v:mID="3521" v:groupContext="shape" transform="translate(14.1732,2.84217E-14)">
				<title>Blad.3521</title>
				<desc>x</desc>
				<v:textBlock v:margins="rect(4,4,4,4)" v:tabSpace="42.5197"/>
				<v:textRect cx="7.08661" cy="239.489" width="14.18" height="14.1732"/>
				<rect x="0" y="232.402" width="14.1732" height="14.1732" class="st5"/>
				<text x="4.42" y="243.09" class="st7" v:langID="1043"><v:paragraph v:horizAlign="1"/><v:tabList/>x</text>			</g>
		</g>
		<g id="group3522-271" transform="translate(71.2411,-149.161)" v:mID="3522" v:groupContext="group">
			<title>z-as.3522</title>
			<g id="shape3523-272" v:mID="3523" v:groupContext="shape" transform="translate(246.575,218.229) rotate(90)">
				<title>Blad.3523</title>
				<path d="M0 246.58 L22.62 246.58" class="st1"/>
			</g>
			<g id="shape3524-277" v:mID="3524" v:groupContext="shape">
				<title>Blad.3524</title>
				<desc>z</desc>
				<v:textBlock v:margins="rect(4,4,4,4)" v:tabSpace="42.5197"/>
				<v:textRect cx="7.08661" cy="239.489" width="14.18" height="14.1732"/>
				<rect x="0" y="232.402" width="14.1732" height="14.1732" class="st5"/>
				<text x="4.75" y="243.09" class="st7" v:langID="1043"><v:paragraph v:horizAlign="1"/><v:tabList/>z</text>			</g>
		</g>
		<g id="group3525-280" transform="translate(71.2411,-163.335)" v:mID="3525" v:groupContext="group">
			<title>Maatlijn.3525</title>
			<g id="group3526-281" transform="translate(0,-9.92126)" v:mID="3526" v:groupContext="group">
				<title>Maatlijn.31</title>
				<g id="shape3527-282" v:mID="3527" v:groupContext="shape" transform="translate(246.575,238.071) rotate(90)">
					<title>Blad.3527</title>
					<path d="M0 246.58 L8.5 246.58" class="st19"/>
				</g>
				<g id="shape3528-285" v:mID="3528" v:groupContext="shape" transform="translate(289.095,238.071) rotate(90)">
					<title>Blad.3528</title>
					<path d="M0 246.58 L8.5 246.58" class="st19"/>
				</g>
				<g id="shape3529-288" v:mID="3529" v:groupContext="shape" transform="translate(0,-4.25197)">
					<title>Blad.3529</title>
					<path d="M3.74 246.58 L4.1 246.58 L38.42 246.58" class="st20"/>
				</g>
			</g>
			<g id="shape3530-297" v:mID="3530" v:groupContext="shape">
				<title>Blad.3530</title>
				<desc>7.5 m</desc>
				<v:textBlock v:margins="rect(4,4,4,4)" v:tabSpace="42.5197"/>
				<v:textRect cx="21.2598" cy="239.489" width="42.52" height="14.1732"/>
				<rect x="0" y="232.402" width="42.5197" height="14.1732" class="st5"/>
				<text x="7.59" y="243.09" class="st6" v:langID="1043"><v:paragraph v:horizAlign="1"/><v:tabList/>7.5 m</text>			</g>
		</g>
		<g id="group3531-300" transform="translate(113.761,-163.335)" v:mID="3531" v:groupContext="group">
			<title>Maatlijn.3531</title>
			<g id="group3532-301" transform="translate(0,-9.92126)" v:mID="3532" v:groupContext="group">
				<title>Maatlijn.31</title>
				<g id="shape3533-302" v:mID="3533" v:groupContext="shape" transform="translate(246.575,238.071) rotate(90)">
					<title>Blad.3533</title>
					<path d="M0 246.58 L8.5 246.58" class="st19"/>
				</g>
				<g id="shape3534-305" v:mID="3534" v:groupContext="shape" transform="translate(289.095,238.071) rotate(90)">
					<title>Blad.3534</title>
					<path d="M0 246.58 L8.5 246.58" class="st19"/>
				</g>
				<g id="shape3535-308" v:mID="3535" v:groupContext="shape" transform="translate(0,-4.25197)">
					<title>Blad.3535</title>
					<path d="M3.74 246.58 L4.1 246.58 L38.42 246.58" class="st20"/>
				</g>
			</g>
			<g id="shape3536-315" v:mID="3536" v:groupContext="shape">
				<title>Blad.3536</title>
				<desc>7.5 m</desc>
				<v:textBlock v:margins="rect(4,4,4,4)" v:tabSpace="42.5197"/>
				<v:textRect cx="21.2598" cy="239.489" width="42.52" height="14.1732"/>
				<rect x="0" y="232.402" width="42.5197" height="14.1732" class="st5"/>
				<text x="7.59" y="243.09" class="st6" v:langID="1043"><v:paragraph v:horizAlign="1"/><v:tabList/>7.5 m</text>			</g>
		</g>
		<g id="group3537-318" transform="translate(156.281,-163.335)" v:mID="3537" v:groupContext="group">
			<title>Maatlijn.3537</title>
			<g id="group3538-319" transform="translate(0,-9.92126)" v:mID="3538" v:groupContext="group">
				<title>Maatlijn.31</title>
				<g id="shape3539-320" v:mID="3539" v:groupContext="shape" transform="translate(246.575,238.071) rotate(90)">
					<title>Blad.3539</title>
					<path d="M0 246.58 L8.5 246.58" class="st19"/>
				</g>
				<g id="shape3540-323" v:mID="3540" v:groupContext="shape" transform="translate(303.268,238.071) rotate(90)">
					<title>Blad.3540</title>
					<path d="M0 246.58 L8.5 246.58" class="st19"/>
				</g>
				<g id="shape3541-326" v:mID="3541" v:groupContext="shape" transform="translate(0,-4.25197)">
					<title>Blad.3541</title>
					<path d="M3.74 246.58 L4.1 246.58 L52.59 246.58" class="st20"/>
				</g>
			</g>
			<g id="shape3542-333" v:mID="3542" v:groupContext="shape">
				<title>Blad.3542</title>
				<desc>10 m</desc>
				<v:textBlock v:margins="rect(4,4,4,4)" v:tabSpace="42.5197"/>
				<v:textRect cx="28.3465" cy="239.489" width="56.7" height="14.1732"/>
				<rect x="0" y="232.402" width="56.6929" height="14.1732" class="st5"/>
				<text x="16.18" y="243.09" class="st6" v:langID="1043"><v:paragraph v:horizAlign="1"/><v:tabList/>10 m</text>			</g>
		</g>
		<g id="group3543-336" transform="translate(212.973,-163.335)" v:mID="3543" v:groupContext="group">
			<title>Maatlijn.3543</title>
			<g id="group3544-337" transform="translate(0,-9.92126)" v:mID="3544" v:groupContext="group">
				<title>Maatlijn.31</title>
				<g id="shape3545-338" v:mID="3545" v:groupContext="shape" transform="translate(246.575,238.071) rotate(90)">
					<title>Blad.3545</title>
					<path d="M0 246.58 L8.5 246.58" class="st19"/>
				</g>
				<g id="shape3546-341" v:mID="3546" v:groupContext="shape" transform="translate(274.922,238.071) rotate(90)">
					<title>Blad.3546</title>
					<path d="M0 246.58 L8.5 246.58" class="st19"/>
				</g>
				<g id="shape3547-344" v:mID="3547" v:groupContext="shape" transform="translate(0,-4.25197)">
					<title>Blad.3547</title>
					<path d="M3.74 246.58 L4.1 246.58 L24.25 246.58" class="st20"/>
				</g>
			</g>
			<g id="shape3548-351" v:mID="3548" v:groupContext="shape">
				<title>Blad.3548</title>
				<desc>5 m</desc>
				<v:textBlock v:margins="rect(4,4,4,4)" v:tabSpace="42.5197"/>
				<v:textRect cx="14.1732" cy="239.489" width="28.35" height="14.1732"/>
				<rect x="0" y="232.402" width="28.3465" height="14.1732" class="st5"/>
				<text x="5.01" y="243.09" class="st6" v:langID="1043"><v:paragraph v:horizAlign="1"/><v:tabList/>5 m</text>			</g>
		</g>
		<g id="group3549-354" transform="translate(241.32,-163.335)" v:mID="3549" v:groupContext="group">
			<title>Maatlijn.3549</title>
			<g id="group3550-355" transform="translate(0,-9.92126)" v:mID="3550" v:groupContext="group">
				<title>Maatlijn.31</title>
				<g id="shape3551-356" v:mID="3551" v:groupContext="shape" transform="translate(246.575,238.071) rotate(90)">
					<title>Blad.3551</title>
					<path d="M0 246.58 L8.5 246.58" class="st19"/>
				</g>
				<g id="shape3552-359" v:mID="3552" v:groupContext="shape" transform="translate(303.268,238.071) rotate(90)">
					<title>Blad.3552</title>
					<path d="M0 246.58 L8.5 246.58" class="st19"/>
				</g>
				<g id="shape3553-362" v:mID="3553" v:groupContext="shape" transform="translate(0,-4.25197)">
					<title>Blad.3553</title>
					<path d="M3.74 246.58 L4.1 246.58 L52.59 246.58" class="st20"/>
				</g>
			</g>
			<g id="shape3554-369" v:mID="3554" v:groupContext="shape">
				<title>Blad.3554</title>
				<desc>10 m</desc>
				<v:textBlock v:margins="rect(4,4,4,4)" v:tabSpace="42.5197"/>
				<v:textRect cx="28.3465" cy="239.489" width="56.7" height="14.1732"/>
				<rect x="0" y="232.402" width="56.6929" height="14.1732" class="st5"/>
				<text x="16.18" y="243.09" class="st6" v:langID="1043"><v:paragraph v:horizAlign="1"/><v:tabList/>10 m</text>			</g>
		</g>
		<g id="group3555-372" transform="translate(298.013,-163.335)" v:mID="3555" v:groupContext="group">
			<title>Maatlijn.3555</title>
			<g id="group3556-373" transform="translate(0,-9.92126)" v:mID="3556" v:groupContext="group">
				<title>Maatlijn.31</title>
				<g id="shape3557-374" v:mID="3557" v:groupContext="shape" transform="translate(246.575,238.071) rotate(90)">
					<title>Blad.3557</title>
					<path d="M0 246.58 L8.5 246.58" class="st19"/>
				</g>
				<g id="shape3558-377" v:mID="3558" v:groupContext="shape" transform="translate(331.615,238.071) rotate(90)">
					<title>Blad.3558</title>
					<path d="M0 246.58 L8.5 246.58" class="st19"/>
				</g>
				<g id="shape3559-380" v:mID="3559" v:groupContext="shape" transform="translate(0,-4.25197)">
					<title>Blad.3559</title>
					<path d="M3.74 246.58 L4.1 246.58 L80.94 246.58" class="st20"/>
				</g>
			</g>
			<g id="shape3560-387" v:mID="3560" v:groupContext="shape">
				<title>Blad.3560</title>
				<desc>15 m</desc>
				<v:textBlock v:margins="rect(4,4,4,4)" v:tabSpace="42.5197"/>
				<v:textRect cx="42.5197" cy="239.489" width="85.04" height="14.1732"/>
				<rect x="0" y="232.402" width="85.0394" height="14.1732" class="st5"/>
				<text x="30.35" y="243.09" class="st6" v:langID="1043"><v:paragraph v:horizAlign="1"/><v:tabList/>15 m</text>			</g>
		</g>
		<g id="group3561-390" transform="translate(383.052,-163.335)" v:mID="3561" v:groupContext="group">
			<title>Maatlijn.3561</title>
			<g id="group3562-391" transform="translate(0,-9.92126)" v:mID="3562" v:groupContext="group">
				<title>Maatlijn.31</title>
				<g id="shape3563-392" v:mID="3563" v:groupContext="shape" transform="translate(246.575,238.071) rotate(90)">
					<title>Blad.3563</title>
					<path d="M0 246.58 L8.5 246.58" class="st19"/>
				</g>
				<g id="shape3564-395" v:mID="3564" v:groupContext="shape" transform="translate(274.922,238.071) rotate(90)">
					<title>Blad.3564</title>
					<path d="M0 246.58 L8.5 246.58" class="st19"/>
				</g>
				<g id="shape3565-398" v:mID="3565" v:groupContext="shape" transform="translate(0,-4.25197)">
					<title>Blad.3565</title>
					<path d="M3.74 246.58 L4.1 246.58 L24.25 246.58" class="st20"/>
				</g>
			</g>
			<g id="shape3566-405" v:mID="3566" v:groupContext="shape">
				<title>Blad.3566</title>
				<desc>5 m</desc>
				<v:textBlock v:margins="rect(4,4,4,4)" v:tabSpace="42.5197"/>
				<v:textRect cx="14.1732" cy="239.489" width="28.35" height="14.1732"/>
				<rect x="0" y="232.402" width="28.3465" height="14.1732" class="st5"/>
				<text x="5.01" y="243.09" class="st6" v:langID="1043"><v:paragraph v:horizAlign="1"/><v:tabList/>5 m</text>			</g>
		</g>
		<g id="shape3567-408" v:mID="3567" v:groupContext="shape" transform="translate(51.4374,38.5952) rotate(-90)">
			<title>Kracht.3567</title>
			<path d="M7.55 246.58 L7.91 246.58 L28.35 246.58" class="st17"/>
		</g>
		<g id="shape3568-413" v:mID="3568" v:groupContext="shape" transform="translate(298.013,-222.862)">
			<title>Punt A.3568</title>
			<desc>6 kN</desc>
			<v:textBlock v:margins="rect(4,4,4,4)" v:tabSpace="42.5197"/>
			<v:textRect cx="19.8425" cy="239.489" width="39.69" height="14.1732"/>
			<rect x="0" y="232.402" width="39.685" height="14.1732" class="st15"/>
			<text x="8.01" y="243.09" class="st6" v:langID="1043"><v:paragraph v:horizAlign="1"/><v:tabList/>6 kN</text>		</g>
		<g id="shape3569-416" v:mID="3569" v:groupContext="shape" transform="translate(136.477,38.4535) rotate(-90)">
			<title>Kracht.3569</title>
			<path d="M7.55 246.58 L7.91 246.58 L28.35 246.58" class="st17"/>
		</g>
		<g id="shape3570-421" v:mID="3570" v:groupContext="shape" transform="translate(383.052,-222.862)">
			<title>Punt A.3570</title>
			<desc>6 kN</desc>
			<v:textBlock v:margins="rect(4,4,4,4)" v:tabSpace="42.5197"/>
			<v:textRect cx="19.8425" cy="239.489" width="39.69" height="14.1732"/>
			<rect x="0" y="232.402" width="39.685" height="14.1732" class="st15"/>
			<text x="8.01" y="243.09" class="st6" v:langID="1043"><v:paragraph v:horizAlign="1"/><v:tabList/>6 kN</text>		</g>
	</g>
</svg>
