<?xml version="1.0" encoding="UTF-8" standalone="no"?>
<!DOCTYPE svg PUBLIC "-//W3C//DTD SVG 1.1//EN" "http://www.w3.org/Graphics/SVG/1.1/DTD/svg11.dtd">
<!-- Gegenereerd door Microsoft Visio, SVG Export Constructie4.svg Pagina-1 -->
<svg xmlns="http://www.w3.org/2000/svg" xmlns:xlink="http://www.w3.org/1999/xlink" xmlns:ev="http://www.w3.org/2001/xml-events"
		xmlns:v="http://schemas.microsoft.com/visio/2003/SVGExtensions/" width="6.20913in" height="3.1471in"
		viewBox="0 0 447.057 226.591" xml:space="preserve" color-interpolation-filters="sRGB" class="st22">
	<v:documentProperties v:langID="1043" v:metric="true" v:viewMarkup="false">
		<v:userDefs>
			<v:ud v:nameU="visShowViewports" v:val="VT0(0):26"/>
		</v:userDefs>
	</v:documentProperties>

	<style type="text/css">
	<![CDATA[
		.st1 {stroke:#000000;stroke-linecap:round;stroke-linejoin:round;stroke-width:2}
		.st2 {fill:#ffffff;stroke:#000000;stroke-linecap:round;stroke-linejoin:round;stroke-width:0.75}
		.st3 {fill:#00cc99;stroke:#000000;stroke-linecap:round;stroke-linejoin:round;stroke-width:0.75}
		.st4 {stroke:#000000;stroke-linecap:round;stroke-linejoin:round;stroke-width:0.75}
		.st5 {stroke:#000000;stroke-linecap:round;stroke-linejoin:round;stroke-width:1.2}
		.st6 {fill:none;stroke:none;stroke-linecap:round;stroke-linejoin:round;stroke-width:0.24}
		.st7 {fill:#000000;font-family:Times New Roman;font-size:1.00001em;font-style:italic}
		.st8 {baseline-shift:-32.4941%;font-size:0.649882em;font-style:normal}
		.st9 {marker-start:url(#mrkr5-145);stroke:#800000;stroke-linecap:round;stroke-linejoin:round;stroke-width:2}
		.st10 {fill:#800000;fill-opacity:1;stroke:#800000;stroke-opacity:1;stroke-width:0.44247787610619}
		.st11 {fill:#000000;font-family:Times New Roman;font-size:1.00001em}
		.st12 {marker-end:url(#mrkr5-156);stroke:#000000;stroke-linecap:round;stroke-linejoin:round;stroke-width:0.75}
		.st13 {fill:#000000;fill-opacity:1;stroke:#000000;stroke-opacity:1;stroke-width:0.22935779816514}
		.st14 {fill:none;stroke:none;stroke-linecap:round;stroke-linejoin:round;stroke-width:0.75}
		.st15 {font-size:1em}
		.st16 {font-size:1em;font-style:italic}
		.st17 {baseline-shift:-32.4941%;font-size:0.649882em;font-style:italic}
		.st18 {font-size:1em;font-style:normal}
		.st19 {stroke:#000000;stroke-linecap:round;stroke-linejoin:round;stroke-width:0.25}
		.st20 {marker-end:url(#mrkr4-281);marker-start:url(#mrkr4-279);stroke:#000000;stroke-linecap:round;stroke-linejoin:round;stroke-width:0.25}
		.st21 {fill:#000000;fill-opacity:1;stroke:#000000;stroke-opacity:1;stroke-width:0.1219512195122}
		.st22 {fill:none;fill-rule:evenodd;font-size:12px;overflow:visible;stroke-linecap:square;stroke-miterlimit:3}
	]]>
	</style>

	<defs id="Markers">
		<g id="lend5">
			<path d="M 2 1 L 0 0 L 1.98117 -0.993387 C 1.67173 -0.364515 1.67301 0.372641 1.98465 1.00043 " style="stroke:none"/>
		</g>
		<marker id="mrkr5-145" class="st10" v:arrowType="5" v:arrowSize="2" v:setback="3.775" refX="3.775" orient="auto"
				markerUnits="strokeWidth" overflow="visible">
			<use xlink:href="#lend5" transform="scale(2.26) "/>
		</marker>
		<marker id="mrkr5-156" class="st13" v:arrowType="5" v:arrowSize="2" v:setback="7.63" refX="-7.63" orient="auto"
				markerUnits="strokeWidth" overflow="visible">
			<use xlink:href="#lend5" transform="scale(-4.36,-4.36) "/>
		</marker>
		<g id="lend4">
			<path d="M 2 1 L 0 0 L 2 -1 L 2 1 " style="stroke:none"/>
		</g>
		<marker id="mrkr4-279" class="st21" v:arrowType="4" v:arrowSize="1" v:setback="14.96" refX="14.96" orient="auto"
				markerUnits="strokeWidth" overflow="visible">
			<use xlink:href="#lend4" transform="scale(8.2) "/>
		</marker>
		<marker id="mrkr4-281" class="st21" v:arrowType="4" v:arrowSize="1" v:setback="16.4" refX="-16.4" orient="auto"
				markerUnits="strokeWidth" overflow="visible">
			<use xlink:href="#lend4" transform="scale(-8.2,-8.2) "/>
		</marker>
	</defs>
	<g v:mID="0" v:index="1" v:groupContext="foregroundPage">
		<title>Pagina-1</title>
		<v:pageProperties v:drawingScale="0.0393701" v:pageScale="0.0393701" v:drawingUnits="24" v:shadowOffsetX="8.50394"
				v:shadowOffsetY="-8.50394"/>
		<g id="shape3447-1" v:mID="3447" v:groupContext="shape" transform="translate(369.01,-188.137)">
			<title>Ligger, 2 pt.3447</title>
			<path d="M0 226.59 L28.35 226.59" class="st1"/>
		</g>
		<g id="shape1828-4" v:mID="1828" v:groupContext="shape" transform="translate(99.5876,-188.137)">
			<title>Ligger, 2 pt.1828</title>
			<path d="M0 226.59 L42.52 226.59" class="st1"/>
		</g>
		<g id="shape1826-7" v:mID="1826" v:groupContext="shape" transform="translate(57.0679,-188.137)">
			<title>Ligger, 2 pt.1826</title>
			<path d="M0 226.59 L42.52 226.59" class="st1"/>
		</g>
		<g id="shape1827-10" v:mID="1827" v:groupContext="shape" transform="translate(97.4616,-186.011)">
			<title>Scharnier.1827</title>
			<ellipse cx="2.12598" cy="224.465" rx="2.12598" ry="2.12598" class="st2"/>
		</g>
		<g id="group1829-12" transform="translate(47.1467,-173.964)" v:mID="1829" v:groupContext="group">
			<title>Rol.1829</title>
			<g id="group1830-13" transform="translate(0.261477,-2.83465)" v:mID="1830" v:groupContext="group">
				<title>Scharnier</title>
				<g id="shape1831-14" v:mID="1831" v:groupContext="shape" transform="translate(2.79729,0)">
					<title>Blad.1831</title>
					<path d="M0 226.59 L13.99 226.59 L6.99 215.25 L0 226.59 Z" class="st3"/>
				</g>
				<g id="shape1832-16" v:mID="1832" v:groupContext="shape" transform="translate(2.79729,453.182) rotate(180)">
					<title>Blad.1832</title>
					<path d="M0 226.59 L2.8 226.59" class="st4"/>
				</g>
				<g id="shape1833-19" v:mID="1833" v:groupContext="shape" transform="translate(16.7838,0)">
					<title>Blad.1833</title>
					<path d="M0 226.59 L2.8 226.59" class="st4"/>
				</g>
			</g>
			<g id="shape1834-22" v:mID="1834" v:groupContext="shape">
				<title>Blad.1834</title>
				<path d="M0 226.59 L19.84 226.59" class="st4"/>
			</g>
		</g>
		<g id="group1835-25" transform="translate(132.186,-173.964)" v:mID="1835" v:groupContext="group">
			<title>Rol.1835</title>
			<g id="group1836-26" transform="translate(0.261477,-2.83465)" v:mID="1836" v:groupContext="group">
				<title>Scharnier</title>
				<g id="shape1837-27" v:mID="1837" v:groupContext="shape" transform="translate(2.79729,0)">
					<title>Blad.1837</title>
					<path d="M0 226.59 L13.99 226.59 L6.99 215.25 L0 226.59 Z" class="st3"/>
				</g>
				<g id="shape1838-29" v:mID="1838" v:groupContext="shape" transform="translate(2.79729,453.182) rotate(180)">
					<title>Blad.1838</title>
					<path d="M0 226.59 L2.8 226.59" class="st4"/>
				</g>
				<g id="shape1839-32" v:mID="1839" v:groupContext="shape" transform="translate(16.7838,0)">
					<title>Blad.1839</title>
					<path d="M0 226.59 L2.8 226.59" class="st4"/>
				</g>
			</g>
			<g id="shape1840-35" v:mID="1840" v:groupContext="shape">
				<title>Blad.1840</title>
				<path d="M0 226.59 L19.84 226.59" class="st4"/>
			</g>
		</g>
		<g id="shape1841-38" v:mID="1841" v:groupContext="shape" transform="translate(142.238,-188.137)">
			<title>Ligger, 2 pt.1841</title>
			<path d="M0 226.59 L56.69 226.59" class="st1"/>
		</g>
		<g id="shape1842-41" v:mID="1842" v:groupContext="shape" transform="translate(198.931,-188.137)">
			<title>Ligger, 2 pt.1842</title>
			<path d="M0 226.59 L28.35 226.59" class="st1"/>
		</g>
		<g id="group1843-44" transform="translate(217.225,-173.964)" v:mID="1843" v:groupContext="group">
			<title>Rol.1843</title>
			<g id="group1844-45" transform="translate(0.261477,-2.83465)" v:mID="1844" v:groupContext="group">
				<title>Scharnier</title>
				<g id="shape1845-46" v:mID="1845" v:groupContext="shape" transform="translate(2.79729,0)">
					<title>Blad.1845</title>
					<path d="M0 226.59 L13.99 226.59 L6.99 215.25 L0 226.59 Z" class="st3"/>
				</g>
				<g id="shape1846-48" v:mID="1846" v:groupContext="shape" transform="translate(2.79729,453.182) rotate(180)">
					<title>Blad.1846</title>
					<path d="M0 226.59 L2.8 226.59" class="st4"/>
				</g>
				<g id="shape1847-51" v:mID="1847" v:groupContext="shape" transform="translate(16.7838,0)">
					<title>Blad.1847</title>
					<path d="M0 226.59 L2.8 226.59" class="st4"/>
				</g>
			</g>
			<g id="shape1848-54" v:mID="1848" v:groupContext="shape">
				<title>Blad.1848</title>
				<path d="M0 226.59 L19.84 226.59" class="st4"/>
			</g>
		</g>
		<g id="shape1849-57" v:mID="1849" v:groupContext="shape" transform="translate(425.391,35.6188) rotate(90)">
			<title>Blad.1849</title>
			<path d="M0 226.59 L5.67 226.59" class="st4"/>
		</g>
		<g id="shape1850-60" v:mID="1850" v:groupContext="shape" transform="translate(227.277,-188.137)">
			<title>Ligger, 2 pt.1850</title>
			<path d="M0 226.59 L56.69 226.59" class="st1"/>
		</g>
		<g id="shape1851-63" v:mID="1851" v:groupContext="shape" transform="translate(283.97,-188.137)">
			<title>Ligger, 2 pt.1851</title>
			<path d="M0 226.59 L85.04 226.59" class="st1"/>
		</g>
		<g id="shape2648-66" v:mID="2648" v:groupContext="shape" transform="translate(281.714,-186.011)">
			<title>Scharnier.2648</title>
			<ellipse cx="2.12598" cy="224.465" rx="2.12598" ry="2.12598" class="st2"/>
		</g>
		<g id="shape3446-68" v:mID="3446" v:groupContext="shape" transform="translate(366.753,-186.011)">
			<title>Scharnier.3446</title>
			<ellipse cx="2.12598" cy="224.465" rx="2.12598" ry="2.12598" class="st2"/>
		</g>
		<g id="group3448-70" transform="translate(408.564,250.871) rotate(180)" v:mID="3448" v:groupContext="group">
			<title>Inklemming.3448</title>
			<g id="shape3449-71" v:mID="3449" v:groupContext="shape" transform="translate(237.93,198.245) rotate(90)">
				<title>Blad.3449</title>
				<path d="M0 226.59 L28.35 226.59" class="st5"/>
			</g>
			<g id="shape3450-74" v:mID="3450" v:groupContext="shape" transform="translate(168.728,38.0205) rotate(45)">
				<title>Blad.3450</title>
				<path d="M0 226.59 L4.01 226.59" class="st4"/>
			</g>
			<g id="shape3451-77" v:mID="3451" v:groupContext="shape" transform="translate(165.893,38.0205) rotate(45)">
				<title>Blad.3451</title>
				<path d="M0 226.59 L8.02 226.59" class="st4"/>
			</g>
			<g id="shape3452-80" v:mID="3452" v:groupContext="shape" transform="translate(163.059,38.0205) rotate(45)">
				<title>Blad.3452</title>
				<path d="M0 226.59 L12.03 226.59" class="st4"/>
			</g>
			<g id="shape3453-83" v:mID="3453" v:groupContext="shape" transform="translate(160.224,38.0205) rotate(45)">
				<title>Blad.3453</title>
				<path d="M0 226.59 L16.04 226.59" class="st4"/>
			</g>
			<g id="shape3454-86" v:mID="3454" v:groupContext="shape" transform="translate(160.224,40.8551) rotate(45)">
				<title>Blad.3454</title>
				<path d="M0 226.59 L16.04 226.59" class="st4"/>
			</g>
			<g id="shape3455-89" v:mID="3455" v:groupContext="shape" transform="translate(160.224,43.6898) rotate(45)">
				<title>Blad.3455</title>
				<path d="M0 226.59 L16.04 226.59" class="st4"/>
			</g>
			<g id="shape3456-92" v:mID="3456" v:groupContext="shape" transform="translate(160.224,46.5244) rotate(45)">
				<title>Blad.3456</title>
				<path d="M0 226.59 L16.04 226.59" class="st4"/>
			</g>
			<g id="shape3457-95" v:mID="3457" v:groupContext="shape" transform="translate(160.224,49.3591) rotate(45)">
				<title>Blad.3457</title>
				<path d="M0 226.59 L16.04 226.59" class="st4"/>
			</g>
			<g id="shape3458-98" v:mID="3458" v:groupContext="shape" transform="translate(160.224,52.1937) rotate(45)">
				<title>Blad.3458</title>
				<path d="M0 226.59 L16.04 226.59" class="st4"/>
			</g>
			<g id="shape3459-101" v:mID="3459" v:groupContext="shape" transform="translate(160.224,55.0284) rotate(45)">
				<title>Blad.3459</title>
				<path d="M0 226.59 L16.04 226.59" class="st4"/>
			</g>
			<g id="shape3460-104" v:mID="3460" v:groupContext="shape" transform="translate(160.224,57.863) rotate(45)">
				<title>Blad.3460</title>
				<path d="M0 226.59 L12.03 226.59" class="st4"/>
			</g>
			<g id="shape3461-107" v:mID="3461" v:groupContext="shape" transform="translate(160.224,60.6977) rotate(45)">
				<title>Blad.3461</title>
				<path d="M0 226.59 L8.02 226.59" class="st4"/>
			</g>
			<g id="shape3462-110" v:mID="3462" v:groupContext="shape" transform="translate(160.224,63.5323) rotate(45)">
				<title>Blad.3462</title>
				<path d="M0 226.59 L4.01 226.59" class="st4"/>
			</g>
		</g>
		<g id="shape3463-113" v:mID="3463" v:groupContext="shape" transform="translate(49.9813,-188.137)">
			<title>Punt A.3463</title>
			<desc>A</desc>
			<v:textBlock v:margins="rect(4,4,4,4)" v:tabSpace="42.5197"/>
			<v:textRect cx="7.08661" cy="219.504" width="14.18" height="14.1732"/>
			<rect x="0" y="212.418" width="14.1732" height="14.1732" class="st6"/>
			<text x="4" y="223.1" class="st7" v:langID="1043"><v:paragraph v:horizAlign="1"/><v:tabList/>A</text>		</g>
		<g id="shape3464-116" v:mID="3464" v:groupContext="shape" transform="translate(135.021,-188.137)">
			<title>Punt A.3464</title>
			<desc>B</desc>
			<v:textBlock v:margins="rect(4,4,4,4)" v:tabSpace="42.5197"/>
			<v:textRect cx="7.08661" cy="219.504" width="14.18" height="14.1732"/>
			<rect x="0" y="212.418" width="14.1732" height="14.1732" class="st6"/>
			<text x="4" y="223.1" class="st7" v:langID="1043"><v:paragraph v:horizAlign="1"/><v:tabList/>B</text>		</g>
		<g id="shape3465-119" v:mID="3465" v:groupContext="shape" transform="translate(220.06,-188.137)">
			<title>Punt A.3465</title>
			<desc>C</desc>
			<v:textBlock v:margins="rect(4,4,4,4)" v:tabSpace="42.5197"/>
			<v:textRect cx="7.08661" cy="219.504" width="14.18" height="14.1732"/>
			<rect x="0" y="212.418" width="14.1732" height="14.1732" class="st6"/>
			<text x="4" y="223.1" class="st7" v:langID="1043"><v:paragraph v:horizAlign="1"/><v:tabList/>C</text>		</g>
		<g id="shape3466-122" v:mID="3466" v:groupContext="shape" transform="translate(383.052,-188.137)">
			<title>Punt A.3466</title>
			<desc>D</desc>
			<v:textBlock v:margins="rect(4,4,4,4)" v:tabSpace="42.5197"/>
			<v:textRect cx="7.08661" cy="219.504" width="14.18" height="14.1732"/>
			<rect x="0" y="212.418" width="14.1732" height="14.1732" class="st6"/>
			<text x="4" y="223.1" class="st7" v:langID="1043"><v:paragraph v:horizAlign="1"/><v:tabList/>D</text>		</g>
		<g id="shape3467-125" v:mID="3467" v:groupContext="shape" transform="translate(191.714,-171.13)">
			<title>Punt A.3467</title>
			<desc>E</desc>
			<v:textBlock v:margins="rect(4,4,4,4)" v:tabSpace="42.5197"/>
			<v:textRect cx="7.08661" cy="219.504" width="14.18" height="14.1732"/>
			<rect x="0" y="212.418" width="14.1732" height="14.1732" class="st6"/>
			<text x="4" y="223.1" class="st7" v:langID="1043"><v:paragraph v:horizAlign="1"/><v:tabList/>E</text>		</g>
		<g id="shape3468-128" v:mID="3468" v:groupContext="shape" transform="translate(85.4144,-188.137)">
			<title>Punt A.3468</title>
			<desc>S1</desc>
			<v:textBlock v:margins="rect(4,4,4,4)" v:tabSpace="42.5197"/>
			<v:textRect cx="14.1732" cy="219.504" width="28.35" height="14.1732"/>
			<rect x="0" y="212.418" width="28.3465" height="14.1732" class="st6"/>
			<text x="9.22" y="223.11" class="st7" v:langID="1043"><v:paragraph v:horizAlign="1"/><v:tabList/>S<tspan dy="-0.279em"
						class="st8" v:baseFontSize="12">1</tspan></text>		</g>
		<g id="shape3469-132" v:mID="3469" v:groupContext="shape" transform="translate(269.666,-188.137)">
			<title>Punt A.3469</title>
			<desc>S2</desc>
			<v:textBlock v:margins="rect(4,4,4,4)" v:tabSpace="42.5197"/>
			<v:textRect cx="14.1732" cy="219.504" width="28.35" height="14.1732"/>
			<rect x="0" y="212.418" width="28.3465" height="14.1732" class="st6"/>
			<text x="9.22" y="223.11" class="st7" v:langID="1043"><v:paragraph v:horizAlign="1"/><v:tabList/>S<tspan dy="-0.279em"
						class="st8" v:baseFontSize="12">2</tspan></text>		</g>
		<g id="shape3470-136" v:mID="3470" v:groupContext="shape" transform="translate(354.706,-188.137)">
			<title>Punt A.3470</title>
			<desc>S3</desc>
			<v:textBlock v:margins="rect(4,4,4,4)" v:tabSpace="42.5197"/>
			<v:textRect cx="14.1732" cy="219.504" width="28.35" height="14.1732"/>
			<rect x="0" y="212.418" width="28.3465" height="14.1732" class="st6"/>
			<text x="9.22" y="223.11" class="st7" v:langID="1043"><v:paragraph v:horizAlign="1"/><v:tabList/>S<tspan dy="-0.279em"
						class="st8" v:baseFontSize="12">3</tspan></text>		</g>
		<g id="shape1852-140" v:mID="1852" v:groupContext="shape" transform="translate(-27.7908,38.4535) rotate(-90)">
			<title>Kracht.1852</title>
			<path d="M7.55 226.59 L7.91 226.59 L28.35 226.59" class="st9"/>
		</g>
		<g id="shape1853-146" v:mID="1853" v:groupContext="shape" transform="translate(198.8,-202.311)">
			<title>Punt A.1853</title>
			<desc>15 kN</desc>
			<v:textBlock v:margins="rect(4,4,4,4)" v:tabSpace="42.5197"/>
			<v:textRect cx="19.8425" cy="219.504" width="39.69" height="14.1732"/>
			<rect x="0" y="212.418" width="39.685" height="14.1732" class="st6"/>
			<text x="5.01" y="223.1" class="st11" v:langID="1043"><v:paragraph v:horizAlign="1"/><v:tabList/>15 kN</text>		</g>
		<g id="group1854-149" transform="translate(57.0679,-46.4052)" v:mID="1854" v:groupContext="group">
			<title>z-as.1854</title>
			<g id="shape1855-150" v:mID="1855" v:groupContext="shape" transform="translate(226.591,184.071) rotate(90)">
				<title>Blad.1855</title>
				<path d="M0 226.59 L72.23 226.59" class="st12"/>
			</g>
			<g id="shape1856-157" v:mID="1856" v:groupContext="shape" transform="translate(-56.6929,35.4331)">
				<title>Blad.1856</title>
				<desc>Influence line Bv (kN/kN)</desc>
				<v:textBlock v:margins="rect(4,4,4,4)" v:tabSpace="42.5197"/>
				<v:textRect cx="28.3465" cy="215.961" width="56.7" height="21.2598"/>
				<rect x="0" y="205.331" width="56.6929" height="21.2598" class="st14"/>
				<text x="5.69" y="205.16" class="st11" v:langID="1043"><v:paragraph v:horizAlign="1"/><v:tabList/>Influence<v:newlineChar/><tspan
							x="12.45" dy="1.2em" class="st15">line </tspan><tspan class="st16">B</tspan><tspan dy="-0.279em"
							class="st17" v:baseFontSize="12">v</tspan><tspan dy="0.181em" class="st16"> </tspan><tspan x="8.02"
							dy="1.2em" class="st15">(kN/kN)</tspan></text>			</g>
		</g>
		<g id="shape1857-165" v:mID="1857" v:groupContext="shape" transform="translate(57.0679,-88.9249)">
			<title>Blad.1857</title>
			<path d="M0 226.59 L340.16 226.59" class="st4"/>
		</g>
		<g id="shape1858-168" v:mID="1858" v:groupContext="shape" transform="translate(14.5482,-100.263)">
			<title>Blad.1858</title>
			<desc>-0.667</desc>
			<v:textBlock v:margins="rect(4,4,4,4)" v:tabSpace="42.5197"/>
			<v:textRect cx="21.2598" cy="219.504" width="42.52" height="14.1732"/>
			<rect x="0" y="212.418" width="42.5197" height="14.1732" class="st14"/>
			<text x="5.76" y="223.1" class="st11" v:langID="1043"><v:paragraph v:horizAlign="1"/><v:tabList/>-0.667</text>		</g>
		<g id="shape1915-171" v:mID="1915" v:groupContext="shape" transform="translate(217.292,-22.5579) rotate(45)">
			<title>Ligger, 2 pt.1915</title>
			<path d="M0 226.59 L60.13 226.59" class="st1"/>
		</g>
		<g id="shape1916-174" v:mID="1916" v:groupContext="shape" transform="translate(27.9332,-34.7773) rotate(-18.4349)">
			<title>Ligger, 2 pt.1916</title>
			<path d="M0 226.59 L194.22 226.59" class="st1"/>
		</g>
		<g id="shape1918-177" v:mID="1918" v:groupContext="shape" transform="translate(332.994,-102.427) rotate(12.5288)">
			<title>Ligger, 2 pt.1918</title>
			<path d="M0 226.59 L87.11 226.59" class="st1"/>
		</g>
		<g id="shape1919-180" v:mID="1919" v:groupContext="shape" transform="translate(368.879,-88.9249)">
			<title>Ligger, 2 pt.1919</title>
			<path d="M0 226.59 L28.35 226.59" class="st1"/>
		</g>
		<g id="shape1920-183" v:mID="1920" v:groupContext="shape" transform="translate(-169.523,137.666) rotate(-90)">
			<title>Blad.1920</title>
			<path d="M0 226.59 L28.35 226.59" class="st4"/>
		</g>
		<g id="shape1921-186" v:mID="1921" v:groupContext="shape" transform="translate(59.9026,345.359) rotate(180)">
			<title>Blad.1921</title>
			<path d="M0 226.59 L5.67 226.59" class="st4"/>
		</g>
		<g id="shape1922-189" v:mID="1922" v:groupContext="shape" transform="translate(59.9026,406.777) rotate(180)">
			<title>Blad.1922</title>
			<path d="M0 226.59 L5.67 226.59" class="st4"/>
		</g>
		<g id="shape1923-192" v:mID="1923" v:groupContext="shape" transform="translate(25.8868,-39.3186)">
			<title>Blad.1923</title>
			<desc>1.5</desc>
			<v:textBlock v:margins="rect(4,4,4,4)" v:tabSpace="42.5197"/>
			<v:textRect cx="15.5906" cy="219.504" width="31.19" height="14.1732"/>
			<rect x="0" y="212.418" width="31.1811" height="14.1732" class="st14"/>
			<text x="8.09" y="223.1" class="st11" v:langID="1043"><v:paragraph v:horizAlign="1"/><v:tabList/>1.5</text>		</g>
		<g id="shape1924-195" v:mID="1924" v:groupContext="shape" transform="translate(-127.003,140.501) rotate(-90)">
			<title>Blad.1924</title>
			<path d="M0 226.59 L5.67 226.59" class="st4"/>
		</g>
		<g id="group1931-198" transform="translate(411.399,-173.964)" v:mID="1931" v:groupContext="group">
			<title>x-as.1931</title>
			<g id="shape1932-199" v:mID="1932" v:groupContext="shape" transform="translate(-2.58278E-12,-14.1732)">
				<title>Blad.1932</title>
				<path d="M0 226.59 L22.62 226.59" class="st12"/>
			</g>
			<g id="shape1933-204" v:mID="1933" v:groupContext="shape" transform="translate(14.1732,0)">
				<title>Blad.1933</title>
				<desc>x</desc>
				<v:textBlock v:margins="rect(4,4,4,4)" v:tabSpace="42.5197"/>
				<v:textRect cx="7.08661" cy="219.504" width="14.18" height="14.1732"/>
				<rect x="0" y="212.418" width="14.1732" height="14.1732" class="st14"/>
				<text x="4.42" y="223.1" class="st7" v:langID="1043"><v:paragraph v:horizAlign="1"/><v:tabList/>x</text>			</g>
		</g>
		<g id="group1934-207" transform="translate(57.0679,-131.445)" v:mID="1934" v:groupContext="group">
			<title>z-as.1934</title>
			<g id="shape1935-208" v:mID="1935" v:groupContext="shape" transform="translate(226.591,198.245) rotate(90)">
				<title>Blad.1935</title>
				<path d="M0 226.59 L22.62 226.59" class="st12"/>
			</g>
			<g id="shape1936-213" v:mID="1936" v:groupContext="shape">
				<title>Blad.1936</title>
				<desc>z</desc>
				<v:textBlock v:margins="rect(4,4,4,4)" v:tabSpace="42.5197"/>
				<v:textRect cx="7.08661" cy="219.504" width="14.18" height="14.1732"/>
				<rect x="0" y="212.418" width="14.1732" height="14.1732" class="st14"/>
				<text x="4.75" y="223.1" class="st7" v:langID="1043"><v:paragraph v:horizAlign="1"/><v:tabList/>z</text>			</g>
		</g>
		<g id="group1937-216" transform="translate(397.225,-74.7517)" v:mID="1937" v:groupContext="group">
			<title>x-as.1937</title>
			<g id="shape1938-217" v:mID="1938" v:groupContext="shape" transform="translate(-2.56079E-12,-14.1732)">
				<title>Blad.1938</title>
				<path d="M0 226.59 L36.8 226.59" class="st12"/>
			</g>
			<g id="shape1939-222" v:mID="1939" v:groupContext="shape">
				<title>Blad.1939</title>
				<desc>x (m)</desc>
				<v:textBlock v:margins="rect(4,4,4,4)" v:tabSpace="42.5197"/>
				<v:textRect cx="21.2598" cy="219.504" width="42.52" height="14.1732"/>
				<rect x="0" y="212.418" width="42.5197" height="14.1732" class="st14"/>
				<text x="8.43" y="223.11" class="st7" v:langID="1043"><v:paragraph v:horizAlign="1"/><v:tabList/>x <tspan
							class="st18">(m)</tspan> </text>			</g>
		</g>
		<g id="shape1940-226" v:mID="1940" v:groupContext="shape" transform="translate(0.555698,140.501) rotate(-90)">
			<title>Blad.1940</title>
			<path d="M0 226.59 L5.67 226.59" class="st4"/>
		</g>
		<g id="shape1941-229" v:mID="1941" v:groupContext="shape" transform="translate(-27.7908,140.501) rotate(-90)">
			<title>Blad.1941</title>
			<path d="M0 226.59 L5.67 226.59" class="st4"/>
		</g>
		<g id="shape1942-232" v:mID="1942" v:groupContext="shape" transform="translate(-84.4837,140.501) rotate(-90)">
			<title>Blad.1942</title>
			<path d="M0 226.59 L5.67 226.59" class="st4"/>
		</g>
		<g id="shape1943-235" v:mID="1943" v:groupContext="shape" transform="translate(142.288,140.501) rotate(-90)">
			<title>Blad.1943</title>
			<path d="M0 226.59 L5.67 226.59" class="st4"/>
		</g>
		<g id="shape1944-238" v:mID="1944" v:groupContext="shape" transform="translate(57.2486,140.501) rotate(-90)">
			<title>Blad.1944</title>
			<path d="M0 226.59 L5.67 226.59" class="st4"/>
		</g>
		<g id="shape1945-241" v:mID="1945" v:groupContext="shape" transform="translate(170.634,140.501) rotate(-90)">
			<title>Blad.1945</title>
			<path d="M0 226.59 L5.67 226.59" class="st4"/>
		</g>
		<g id="shape1946-244" v:mID="1946" v:groupContext="shape" transform="translate(85.4144,-88.9249)">
			<title>Blad.1946</title>
			<desc>7.5</desc>
			<v:textBlock v:margins="rect(4,4,4,4)" v:tabSpace="42.5197"/>
			<v:textRect cx="15.5905" cy="219.504" width="31.19" height="14.1732"/>
			<rect x="0" y="212.418" width="31.1811" height="14.1732" class="st14"/>
			<text x="8.09" y="223.1" class="st11" v:langID="1043"><v:paragraph v:horizAlign="1"/><v:tabList/>7.5</text>		</g>
		<g id="shape1947-247" v:mID="1947" v:groupContext="shape" transform="translate(127.934,-88.9249)">
			<title>Blad.1947</title>
			<desc>15</desc>
			<v:textBlock v:margins="rect(4,4,4,4)" v:tabSpace="42.5197"/>
			<v:textRect cx="15.5905" cy="219.504" width="31.19" height="14.1732"/>
			<rect x="0" y="212.418" width="31.1811" height="14.1732" class="st14"/>
			<text x="9.59" y="223.1" class="st11" v:langID="1043"><v:paragraph v:horizAlign="1"/><v:tabList/>15</text>		</g>
		<g id="shape1948-250" v:mID="1948" v:groupContext="shape" transform="translate(183.21,-88.9249)">
			<title>Blad.1948</title>
			<desc>25</desc>
			<v:textBlock v:margins="rect(4,4,4,4)" v:tabSpace="42.5197"/>
			<v:textRect cx="15.5905" cy="219.504" width="31.19" height="14.1732"/>
			<rect x="0" y="212.418" width="31.1811" height="14.1732" class="st14"/>
			<text x="9.59" y="223.1" class="st11" v:langID="1043"><v:paragraph v:horizAlign="1"/><v:tabList/>25</text>		</g>
		<g id="shape1949-253" v:mID="1949" v:groupContext="shape" transform="translate(212.973,-88.9249)">
			<title>Blad.1949</title>
			<desc>30</desc>
			<v:textBlock v:margins="rect(4,4,4,4)" v:tabSpace="42.5197"/>
			<v:textRect cx="15.5905" cy="219.504" width="31.19" height="14.1732"/>
			<rect x="0" y="212.418" width="31.1811" height="14.1732" class="st14"/>
			<text x="9.59" y="223.1" class="st11" v:langID="1043"><v:paragraph v:horizAlign="1"/><v:tabList/>30</text>		</g>
		<g id="shape1950-256" v:mID="1950" v:groupContext="shape" transform="translate(269.666,-88.9249)">
			<title>Blad.1950</title>
			<desc>40</desc>
			<v:textBlock v:margins="rect(4,4,4,4)" v:tabSpace="42.5197"/>
			<v:textRect cx="15.5905" cy="219.504" width="31.19" height="14.1732"/>
			<rect x="0" y="212.418" width="31.1811" height="14.1732" class="st14"/>
			<text x="9.59" y="223.1" class="st11" v:langID="1043"><v:paragraph v:horizAlign="1"/><v:tabList/>40</text>		</g>
		<g id="shape1951-259" v:mID="1951" v:groupContext="shape" transform="translate(354.706,-88.9249)">
			<title>Blad.1951</title>
			<desc>55</desc>
			<v:textBlock v:margins="rect(4,4,4,4)" v:tabSpace="42.5197"/>
			<v:textRect cx="15.5905" cy="219.504" width="31.19" height="14.1732"/>
			<rect x="0" y="212.418" width="31.1811" height="14.1732" class="st14"/>
			<text x="9.59" y="223.1" class="st11" v:langID="1043"><v:paragraph v:horizAlign="1"/><v:tabList/>55</text>		</g>
		<g id="shape1952-262" v:mID="1952" v:groupContext="shape" transform="translate(381.635,-88.9249)">
			<title>Blad.1952</title>
			<desc>60</desc>
			<v:textBlock v:margins="rect(4,4,4,4)" v:tabSpace="42.5197"/>
			<v:textRect cx="15.5905" cy="219.504" width="31.19" height="14.1732"/>
			<rect x="0" y="212.418" width="31.1811" height="14.1732" class="st14"/>
			<text x="9.59" y="223.1" class="st11" v:langID="1043"><v:paragraph v:horizAlign="1"/><v:tabList/>60</text>		</g>
		<g id="group2679-265" transform="translate(57.0679,-145.618)" v:mID="2679" v:groupContext="group">
			<title>Maatlijn.2679</title>
			<g id="group2680-266" transform="translate(0,-9.92126)" v:mID="2680" v:groupContext="group">
				<title>Maatlijn.31</title>
				<g id="shape2681-267" v:mID="2681" v:groupContext="shape" transform="translate(226.591,218.087) rotate(90)">
					<title>Blad.2681</title>
					<path d="M0 226.59 L8.5 226.59" class="st19"/>
				</g>
				<g id="shape2682-270" v:mID="2682" v:groupContext="shape" transform="translate(269.111,218.087) rotate(90)">
					<title>Blad.2682</title>
					<path d="M0 226.59 L8.5 226.59" class="st19"/>
				</g>
				<g id="shape2683-273" v:mID="2683" v:groupContext="shape" transform="translate(0,-4.25197)">
					<title>Blad.2683</title>
					<path d="M3.74 226.59 L4.1 226.59 L38.42 226.59" class="st20"/>
				</g>
			</g>
			<g id="shape2684-282" v:mID="2684" v:groupContext="shape">
				<title>Blad.2684</title>
				<desc>7.5 m</desc>
				<v:textBlock v:margins="rect(4,4,4,4)" v:tabSpace="42.5197"/>
				<v:textRect cx="21.2598" cy="219.504" width="42.52" height="14.1732"/>
				<rect x="0" y="212.418" width="42.5197" height="14.1732" class="st14"/>
				<text x="7.59" y="223.1" class="st11" v:langID="1043"><v:paragraph v:horizAlign="1"/><v:tabList/>7.5 m</text>			</g>
		</g>
		<g id="group2685-285" transform="translate(99.5876,-145.618)" v:mID="2685" v:groupContext="group">
			<title>Maatlijn.2685</title>
			<g id="group2686-286" transform="translate(0,-9.92126)" v:mID="2686" v:groupContext="group">
				<title>Maatlijn.31</title>
				<g id="shape2687-287" v:mID="2687" v:groupContext="shape" transform="translate(226.591,218.087) rotate(90)">
					<title>Blad.2687</title>
					<path d="M0 226.59 L8.5 226.59" class="st19"/>
				</g>
				<g id="shape2688-290" v:mID="2688" v:groupContext="shape" transform="translate(269.111,218.087) rotate(90)">
					<title>Blad.2688</title>
					<path d="M0 226.59 L8.5 226.59" class="st19"/>
				</g>
				<g id="shape2689-293" v:mID="2689" v:groupContext="shape" transform="translate(0,-4.25197)">
					<title>Blad.2689</title>
					<path d="M3.74 226.59 L4.1 226.59 L38.42 226.59" class="st20"/>
				</g>
			</g>
			<g id="shape2690-300" v:mID="2690" v:groupContext="shape">
				<title>Blad.2690</title>
				<desc>7.5 m</desc>
				<v:textBlock v:margins="rect(4,4,4,4)" v:tabSpace="42.5197"/>
				<v:textRect cx="21.2598" cy="219.504" width="42.52" height="14.1732"/>
				<rect x="0" y="212.418" width="42.5197" height="14.1732" class="st14"/>
				<text x="7.59" y="223.1" class="st11" v:langID="1043"><v:paragraph v:horizAlign="1"/><v:tabList/>7.5 m</text>			</g>
		</g>
		<g id="group2691-303" transform="translate(142.107,-145.618)" v:mID="2691" v:groupContext="group">
			<title>Maatlijn.2691</title>
			<g id="group2692-304" transform="translate(0,-9.92126)" v:mID="2692" v:groupContext="group">
				<title>Maatlijn.31</title>
				<g id="shape2693-305" v:mID="2693" v:groupContext="shape" transform="translate(226.591,218.087) rotate(90)">
					<title>Blad.2693</title>
					<path d="M0 226.59 L8.5 226.59" class="st19"/>
				</g>
				<g id="shape2694-308" v:mID="2694" v:groupContext="shape" transform="translate(283.284,218.087) rotate(90)">
					<title>Blad.2694</title>
					<path d="M0 226.59 L8.5 226.59" class="st19"/>
				</g>
				<g id="shape2695-311" v:mID="2695" v:groupContext="shape" transform="translate(0,-4.25197)">
					<title>Blad.2695</title>
					<path d="M3.74 226.59 L4.1 226.59 L52.59 226.59" class="st20"/>
				</g>
			</g>
			<g id="shape2696-318" v:mID="2696" v:groupContext="shape">
				<title>Blad.2696</title>
				<desc>10 m</desc>
				<v:textBlock v:margins="rect(4,4,4,4)" v:tabSpace="42.5197"/>
				<v:textRect cx="28.3465" cy="219.504" width="56.7" height="14.1732"/>
				<rect x="0" y="212.418" width="56.6929" height="14.1732" class="st14"/>
				<text x="16.18" y="223.1" class="st11" v:langID="1043"><v:paragraph v:horizAlign="1"/><v:tabList/>10 m</text>			</g>
		</g>
		<g id="group2697-321" transform="translate(198.8,-145.618)" v:mID="2697" v:groupContext="group">
			<title>Maatlijn.2697</title>
			<g id="group2698-322" transform="translate(0,-9.92126)" v:mID="2698" v:groupContext="group">
				<title>Maatlijn.31</title>
				<g id="shape2699-323" v:mID="2699" v:groupContext="shape" transform="translate(226.591,218.087) rotate(90)">
					<title>Blad.2699</title>
					<path d="M0 226.59 L8.5 226.59" class="st19"/>
				</g>
				<g id="shape2700-326" v:mID="2700" v:groupContext="shape" transform="translate(254.937,218.087) rotate(90)">
					<title>Blad.2700</title>
					<path d="M0 226.59 L8.5 226.59" class="st19"/>
				</g>
				<g id="shape2701-329" v:mID="2701" v:groupContext="shape" transform="translate(0,-4.25197)">
					<title>Blad.2701</title>
					<path d="M3.74 226.59 L4.1 226.59 L24.25 226.59" class="st20"/>
				</g>
			</g>
			<g id="shape2702-336" v:mID="2702" v:groupContext="shape">
				<title>Blad.2702</title>
				<desc>5 m</desc>
				<v:textBlock v:margins="rect(4,4,4,4)" v:tabSpace="42.5197"/>
				<v:textRect cx="14.1732" cy="219.504" width="28.35" height="14.1732"/>
				<rect x="0" y="212.418" width="28.3465" height="14.1732" class="st14"/>
				<text x="5.01" y="223.1" class="st11" v:langID="1043"><v:paragraph v:horizAlign="1"/><v:tabList/>5 m</text>			</g>
		</g>
		<g id="group2703-339" transform="translate(227.147,-145.618)" v:mID="2703" v:groupContext="group">
			<title>Maatlijn.2703</title>
			<g id="group2704-340" transform="translate(0,-9.92126)" v:mID="2704" v:groupContext="group">
				<title>Maatlijn.31</title>
				<g id="shape2705-341" v:mID="2705" v:groupContext="shape" transform="translate(226.591,218.087) rotate(90)">
					<title>Blad.2705</title>
					<path d="M0 226.59 L8.5 226.59" class="st19"/>
				</g>
				<g id="shape2706-344" v:mID="2706" v:groupContext="shape" transform="translate(283.284,218.087) rotate(90)">
					<title>Blad.2706</title>
					<path d="M0 226.59 L8.5 226.59" class="st19"/>
				</g>
				<g id="shape2707-347" v:mID="2707" v:groupContext="shape" transform="translate(0,-4.25197)">
					<title>Blad.2707</title>
					<path d="M3.74 226.59 L4.1 226.59 L52.59 226.59" class="st20"/>
				</g>
			</g>
			<g id="shape2708-354" v:mID="2708" v:groupContext="shape">
				<title>Blad.2708</title>
				<desc>10 m</desc>
				<v:textBlock v:margins="rect(4,4,4,4)" v:tabSpace="42.5197"/>
				<v:textRect cx="28.3465" cy="219.504" width="56.7" height="14.1732"/>
				<rect x="0" y="212.418" width="56.6929" height="14.1732" class="st14"/>
				<text x="16.18" y="223.1" class="st11" v:langID="1043"><v:paragraph v:horizAlign="1"/><v:tabList/>10 m</text>			</g>
		</g>
		<g id="group2709-357" transform="translate(283.84,-145.618)" v:mID="2709" v:groupContext="group">
			<title>Maatlijn.2709</title>
			<g id="group2710-358" transform="translate(0,-9.92126)" v:mID="2710" v:groupContext="group">
				<title>Maatlijn.31</title>
				<g id="shape2711-359" v:mID="2711" v:groupContext="shape" transform="translate(226.591,218.087) rotate(90)">
					<title>Blad.2711</title>
					<path d="M0 226.59 L8.5 226.59" class="st19"/>
				</g>
				<g id="shape2712-362" v:mID="2712" v:groupContext="shape" transform="translate(311.63,218.087) rotate(90)">
					<title>Blad.2712</title>
					<path d="M0 226.59 L8.5 226.59" class="st19"/>
				</g>
				<g id="shape2713-365" v:mID="2713" v:groupContext="shape" transform="translate(0,-4.25197)">
					<title>Blad.2713</title>
					<path d="M3.74 226.59 L4.1 226.59 L80.94 226.59" class="st20"/>
				</g>
			</g>
			<g id="shape2714-372" v:mID="2714" v:groupContext="shape">
				<title>Blad.2714</title>
				<desc>15 m</desc>
				<v:textBlock v:margins="rect(4,4,4,4)" v:tabSpace="42.5197"/>
				<v:textRect cx="42.5197" cy="219.504" width="85.04" height="14.1732"/>
				<rect x="0" y="212.418" width="85.0394" height="14.1732" class="st14"/>
				<text x="30.35" y="223.1" class="st11" v:langID="1043"><v:paragraph v:horizAlign="1"/><v:tabList/>15 m</text>			</g>
		</g>
		<g id="group2715-375" transform="translate(368.879,-145.618)" v:mID="2715" v:groupContext="group">
			<title>Maatlijn.2715</title>
			<g id="group2716-376" transform="translate(0,-9.92126)" v:mID="2716" v:groupContext="group">
				<title>Maatlijn.31</title>
				<g id="shape2717-377" v:mID="2717" v:groupContext="shape" transform="translate(226.591,218.087) rotate(90)">
					<title>Blad.2717</title>
					<path d="M0 226.59 L8.5 226.59" class="st19"/>
				</g>
				<g id="shape2718-380" v:mID="2718" v:groupContext="shape" transform="translate(254.937,218.087) rotate(90)">
					<title>Blad.2718</title>
					<path d="M0 226.59 L8.5 226.59" class="st19"/>
				</g>
				<g id="shape2719-383" v:mID="2719" v:groupContext="shape" transform="translate(0,-4.25197)">
					<title>Blad.2719</title>
					<path d="M3.74 226.59 L4.1 226.59 L24.25 226.59" class="st20"/>
				</g>
			</g>
			<g id="shape2720-390" v:mID="2720" v:groupContext="shape">
				<title>Blad.2720</title>
				<desc>5 m</desc>
				<v:textBlock v:margins="rect(4,4,4,4)" v:tabSpace="42.5197"/>
				<v:textRect cx="14.1732" cy="219.504" width="28.35" height="14.1732"/>
				<rect x="0" y="212.418" width="28.3465" height="14.1732" class="st14"/>
				<text x="5.01" y="223.1" class="st11" v:langID="1043"><v:paragraph v:horizAlign="1"/><v:tabList/>5 m</text>			</g>
		</g>
	</g>
</svg>
