<?xml version="1.0" encoding="UTF-8" standalone="no"?>
<!DOCTYPE svg PUBLIC "-//W3C//DTD SVG 1.1//EN" "http://www.w3.org/Graphics/SVG/1.1/DTD/svg11.dtd">
<!-- Gegenereerd door Microsoft Visio, SVG Export structure.svg Pagina-1 -->
<svg xmlns="http://www.w3.org/2000/svg" xmlns:xlink="http://www.w3.org/1999/xlink" xmlns:ev="http://www.w3.org/2001/xml-events"
		xmlns:v="http://schemas.microsoft.com/visio/2003/SVGExtensions/" width="4.7918in" height="1.09414in"
		viewBox="0 0 345.01 78.7781" xml:space="preserve" color-interpolation-filters="sRGB" class="st12">
	<v:documentProperties v:langID="1043" v:metric="true" v:viewMarkup="false"/>

	<style type="text/css">
	<![CDATA[
		.st1 {stroke:#000000;stroke-linecap:round;stroke-linejoin:round;stroke-width:1.2}
		.st2 {stroke:#000000;stroke-linecap:round;stroke-linejoin:round;stroke-width:0.75}
		.st3 {stroke:#000000;stroke-linecap:round;stroke-linejoin:round;stroke-width:2}
		.st4 {fill:#00cc99;stroke:#000000;stroke-linecap:round;stroke-linejoin:round;stroke-width:0.75}
		.st5 {fill:#ffffff;stroke:#000000;stroke-linecap:round;stroke-linejoin:round;stroke-width:0.75}
		.st6 {fill:none;stroke:none;stroke-linecap:round;stroke-linejoin:round;stroke-width:0.24}
		.st7 {fill:#000000;font-family:Times New Roman;font-size:1.00001em;font-style:italic}
		.st8 {baseline-shift:-32.4941%;font-size:0.649882em}
		.st9 {marker-end:url(#mrkr5-119);stroke:#000000;stroke-linecap:round;stroke-linejoin:round;stroke-width:0.75}
		.st10 {fill:#000000;fill-opacity:1;stroke:#000000;stroke-opacity:1;stroke-width:0.22935779816514}
		.st11 {fill:none;stroke:none;stroke-linecap:round;stroke-linejoin:round;stroke-width:0.75}
		.st12 {fill:none;fill-rule:evenodd;font-size:12px;overflow:visible;stroke-linecap:square;stroke-miterlimit:3}
	]]>
	</style>

	<defs id="Markers">
		<g id="lend5">
			<path d="M 2 1 L 0 0 L 1.98117 -0.993387 C 1.67173 -0.364515 1.67301 0.372641 1.98465 1.00043 " style="stroke:none"/>
		</g>
		<marker id="mrkr5-119" class="st10" v:arrowType="5" v:arrowSize="2" v:setback="7.63" refX="-7.63" orient="auto"
				markerUnits="strokeWidth" overflow="visible">
			<use xlink:href="#lend5" transform="scale(-4.36,-4.36) "/>
		</marker>
	</defs>
	<g v:mID="0" v:index="1" v:groupContext="foregroundPage">
		<title>Pagina-1</title>
		<v:pageProperties v:drawingScale="0.0393701" v:pageScale="0.0393701" v:drawingUnits="24" v:shadowOffsetX="8.50394"
				v:shadowOffsetY="-8.50394"/>
		<g id="group1277-1" transform="translate(0.375,-49.8316)" v:mID="1277" v:groupContext="group">
			<title>Inklemming.1277</title>
			<g id="shape1278-2" v:mID="1278" v:groupContext="shape" transform="translate(90.1167,50.4316) rotate(90)">
				<title>Blad.1278</title>
				<path d="M0 78.78 L28.35 78.78" class="st1"/>
			</g>
			<g id="shape1279-5" v:mID="1279" v:groupContext="shape" transform="translate(64.2085,-5.27289) rotate(45)">
				<title>Blad.1279</title>
				<path d="M0 78.78 L4.01 78.78" class="st2"/>
			</g>
			<g id="shape1280-8" v:mID="1280" v:groupContext="shape" transform="translate(61.3738,-5.27289) rotate(45)">
				<title>Blad.1280</title>
				<path d="M0 78.78 L8.02 78.78" class="st2"/>
			</g>
			<g id="shape1281-11" v:mID="1281" v:groupContext="shape" transform="translate(58.5392,-5.27289) rotate(45)">
				<title>Blad.1281</title>
				<path d="M0 78.78 L12.03 78.78" class="st2"/>
			</g>
			<g id="shape1282-14" v:mID="1282" v:groupContext="shape" transform="translate(55.7045,-5.27289) rotate(45)">
				<title>Blad.1282</title>
				<path d="M0 78.78 L16.04 78.78" class="st2"/>
			</g>
			<g id="shape1283-17" v:mID="1283" v:groupContext="shape" transform="translate(55.7045,-2.43824) rotate(45)">
				<title>Blad.1283</title>
				<path d="M0 78.78 L16.04 78.78" class="st2"/>
			</g>
			<g id="shape1284-20" v:mID="1284" v:groupContext="shape" transform="translate(55.7045,0.396403) rotate(45)">
				<title>Blad.1284</title>
				<path d="M0 78.78 L16.04 78.78" class="st2"/>
			</g>
			<g id="shape1285-23" v:mID="1285" v:groupContext="shape" transform="translate(55.7045,3.23105) rotate(45)">
				<title>Blad.1285</title>
				<path d="M0 78.78 L16.04 78.78" class="st2"/>
			</g>
			<g id="shape1286-26" v:mID="1286" v:groupContext="shape" transform="translate(55.7045,6.06569) rotate(45)">
				<title>Blad.1286</title>
				<path d="M0 78.78 L16.04 78.78" class="st2"/>
			</g>
			<g id="shape1287-29" v:mID="1287" v:groupContext="shape" transform="translate(55.7045,8.90034) rotate(45)">
				<title>Blad.1287</title>
				<path d="M0 78.78 L16.04 78.78" class="st2"/>
			</g>
			<g id="shape1288-32" v:mID="1288" v:groupContext="shape" transform="translate(55.7045,11.735) rotate(45)">
				<title>Blad.1288</title>
				<path d="M0 78.78 L16.04 78.78" class="st2"/>
			</g>
			<g id="shape1289-35" v:mID="1289" v:groupContext="shape" transform="translate(55.7045,14.5696) rotate(45)">
				<title>Blad.1289</title>
				<path d="M0 78.78 L12.03 78.78" class="st2"/>
			</g>
			<g id="shape1290-38" v:mID="1290" v:groupContext="shape" transform="translate(55.7045,17.4043) rotate(45)">
				<title>Blad.1290</title>
				<path d="M0 78.78 L8.02 78.78" class="st2"/>
			</g>
			<g id="shape1291-41" v:mID="1291" v:groupContext="shape" transform="translate(55.7045,20.2389) rotate(45)">
				<title>Blad.1291</title>
				<path d="M0 78.78 L4.01 78.78" class="st2"/>
			</g>
		</g>
		<g id="shape1292-44" v:mID="1292" v:groupContext="shape" transform="translate(11.7136,-64.0049)">
			<title>Ligger, 2 pt.1292</title>
			<path d="M0 78.78 L56.69 78.78" class="st3"/>
		</g>
		<g id="shape1293-47" v:mID="1293" v:groupContext="shape" transform="translate(68.4065,-64.0049)">
			<title>Ligger, 2 pt.1293</title>
			<path d="M0 78.78 L28.35 78.78" class="st3"/>
		</g>
		<g id="shape1294-50" v:mID="1294" v:groupContext="shape" transform="translate(96.753,-64.0049)">
			<title>Ligger, 2 pt.1294</title>
			<path d="M0 78.78 L85.04 78.78" class="st3"/>
		</g>
		<g id="shape1295-53" v:mID="1295" v:groupContext="shape" transform="translate(181.792,-64.0049)">
			<title>Ligger, 2 pt.1295</title>
			<path d="M0 78.78 L28.35 78.78" class="st3"/>
		</g>
		<g id="shape1296-56" v:mID="1296" v:groupContext="shape" transform="translate(210.139,-64.0049)">
			<title>Ligger, 2 pt.1296</title>
			<path d="M0 78.78 L85.04 78.78" class="st3"/>
		</g>
		<g id="group1297-59" transform="translate(285.257,-49.8316)" v:mID="1297" v:groupContext="group">
			<title>Rol.1297</title>
			<g id="group1298-60" transform="translate(0.261477,-2.83465)" v:mID="1298" v:groupContext="group">
				<title>Scharnier</title>
				<g id="shape1299-61" v:mID="1299" v:groupContext="shape" transform="translate(2.79729,1.42109E-14)">
					<title>Blad.1299</title>
					<path d="M0 78.78 L13.99 78.78 L6.99 67.44 L0 78.78 Z" class="st4"/>
				</g>
				<g id="shape1300-63" v:mID="1300" v:groupContext="shape" transform="translate(2.79729,157.556) rotate(180)">
					<title>Blad.1300</title>
					<path d="M0 78.78 L2.8 78.78" class="st2"/>
				</g>
				<g id="shape1301-66" v:mID="1301" v:groupContext="shape" transform="translate(16.7838,1.42109E-14)">
					<title>Blad.1301</title>
					<path d="M0 78.78 L2.8 78.78" class="st2"/>
				</g>
			</g>
			<g id="shape1302-69" v:mID="1302" v:groupContext="shape">
				<title>Blad.1302</title>
				<path d="M0 78.78 L19.84 78.78" class="st2"/>
			</g>
		</g>
		<g id="group1303-72" transform="translate(171.871,-49.8316)" v:mID="1303" v:groupContext="group">
			<title>Rol.1303</title>
			<g id="group1304-73" transform="translate(0.261477,-2.83465)" v:mID="1304" v:groupContext="group">
				<title>Scharnier</title>
				<g id="shape1305-74" v:mID="1305" v:groupContext="shape" transform="translate(2.79729,1.42109E-14)">
					<title>Blad.1305</title>
					<path d="M0 78.78 L13.99 78.78 L6.99 67.44 L0 78.78 Z" class="st4"/>
				</g>
				<g id="shape1306-76" v:mID="1306" v:groupContext="shape" transform="translate(2.79729,157.556) rotate(180)">
					<title>Blad.1306</title>
					<path d="M0 78.78 L2.8 78.78" class="st2"/>
				</g>
				<g id="shape1307-79" v:mID="1307" v:groupContext="shape" transform="translate(16.7838,1.42109E-14)">
					<title>Blad.1307</title>
					<path d="M0 78.78 L2.8 78.78" class="st2"/>
				</g>
			</g>
			<g id="shape1308-82" v:mID="1308" v:groupContext="shape">
				<title>Blad.1308</title>
				<path d="M0 78.78 L19.84 78.78" class="st2"/>
			</g>
		</g>
		<g id="shape1309-85" v:mID="1309" v:groupContext="shape" transform="translate(236.359,-61.8789)">
			<title>Scharnier.1309</title>
			<ellipse cx="2.12598" cy="76.6521" rx="2.12598" ry="2.12598" class="st5"/>
		</g>
		<g id="shape1310-87" v:mID="1310" v:groupContext="shape" transform="translate(66.2805,-61.8789)">
			<title>Scharnier.1310</title>
			<ellipse cx="2.12598" cy="76.6521" rx="2.12598" ry="2.12598" class="st5"/>
		</g>
		<g id="shape1311-89" v:mID="1311" v:groupContext="shape" transform="translate(203.877,11.9386) rotate(90)">
			<title>Blad.1311</title>
			<path d="M0 78.78 L5.67 78.78" class="st2"/>
		</g>
		<g id="shape1312-92" v:mID="1312" v:groupContext="shape" transform="translate(11.7136,-64.0049)">
			<title>Punt A.1312</title>
			<desc>A</desc>
			<v:textBlock v:margins="rect(4,4,4,4)" v:tabSpace="42.5197"/>
			<v:textRect cx="7.08661" cy="71.6915" width="14.18" height="14.1732"/>
			<rect x="0" y="64.6049" width="14.1732" height="14.1732" class="st6"/>
			<text x="4" y="75.29" class="st7" v:langID="1043"><v:paragraph v:horizAlign="1"/><v:tabList/>A</text>		</g>
		<g id="shape1313-95" v:mID="1313" v:groupContext="shape" transform="translate(174.706,-64.0049)">
			<title>Punt A.1313</title>
			<desc>B</desc>
			<v:textBlock v:margins="rect(4,4,4,4)" v:tabSpace="42.5197"/>
			<v:textRect cx="7.08661" cy="71.6915" width="14.18" height="14.1732"/>
			<rect x="0" y="64.6049" width="14.1732" height="14.1732" class="st6"/>
			<text x="4" y="75.29" class="st7" v:langID="1043"><v:paragraph v:horizAlign="1"/><v:tabList/>B</text>		</g>
		<g id="shape1314-98" v:mID="1314" v:groupContext="shape" transform="translate(288.092,-64.0049)">
			<title>Punt A.1314</title>
			<desc>C</desc>
			<v:textBlock v:margins="rect(4,4,4,4)" v:tabSpace="42.5197"/>
			<v:textRect cx="7.08661" cy="71.6915" width="14.18" height="14.1732"/>
			<rect x="0" y="64.6049" width="14.1732" height="14.1732" class="st6"/>
			<text x="4" y="75.29" class="st7" v:langID="1043"><v:paragraph v:horizAlign="1"/><v:tabList/>C</text>		</g>
		<g id="shape1315-101" v:mID="1315" v:groupContext="shape" transform="translate(54.2333,-64.0049)">
			<title>Punt A.1315</title>
			<desc>S1</desc>
			<v:textBlock v:margins="rect(4,4,4,4)" v:tabSpace="42.5197"/>
			<v:textRect cx="14.1732" cy="71.6915" width="28.35" height="14.1732"/>
			<rect x="0" y="64.6049" width="28.3465" height="14.1732" class="st6"/>
			<text x="9.22" y="75.29" class="st7" v:langID="1043"><v:paragraph v:horizAlign="1"/><v:tabList/>S<tspan dy="-0.279em"
						class="st8" v:baseFontSize="12">1</tspan></text>		</g>
		<g id="shape1316-105" v:mID="1316" v:groupContext="shape" transform="translate(224.312,-64.0049)">
			<title>Punt A.1316</title>
			<desc>S2</desc>
			<v:textBlock v:margins="rect(4,4,4,4)" v:tabSpace="42.5197"/>
			<v:textRect cx="14.1732" cy="71.6915" width="28.35" height="14.1732"/>
			<rect x="0" y="64.6049" width="28.3465" height="14.1732" class="st6"/>
			<text x="9.22" y="75.29" class="st7" v:langID="1043"><v:paragraph v:horizAlign="1"/><v:tabList/>S<tspan dy="-0.279em"
						class="st8" v:baseFontSize="12">2</tspan></text>		</g>
		<g id="shape1317-109" v:mID="1317" v:groupContext="shape" transform="translate(118.013,-64.0049)">
			<title>Punt A.1317</title>
			<desc>D</desc>
			<v:textBlock v:margins="rect(4,4,4,4)" v:tabSpace="42.5197"/>
			<v:textRect cx="7.08661" cy="71.6915" width="14.18" height="14.1732"/>
			<rect x="0" y="64.6049" width="14.1732" height="14.1732" class="st6"/>
			<text x="4" y="75.29" class="st7" v:langID="1043"><v:paragraph v:horizAlign="1"/><v:tabList/>D</text>		</g>
		<g id="group1318-112" transform="translate(309.351,-49.8316)" v:mID="1318" v:groupContext="group">
			<title>x-as.1318</title>
			<g id="shape1319-113" v:mID="1319" v:groupContext="shape" transform="translate(-9.12284E-13,-14.1732)">
				<title>Blad.1319</title>
				<path d="M0 78.78 L22.62 78.78" class="st9"/>
			</g>
			<g id="shape1320-120" v:mID="1320" v:groupContext="shape" transform="translate(14.1732,2.84217E-14)">
				<title>Blad.1320</title>
				<desc>x</desc>
				<v:textBlock v:margins="rect(4,4,4,4)" v:tabSpace="42.5197"/>
				<v:textRect cx="7.08661" cy="71.6915" width="14.18" height="14.1732"/>
				<rect x="0" y="64.6049" width="14.1732" height="14.1732" class="st11"/>
				<text x="4.42" y="75.29" class="st7" v:langID="1043"><v:paragraph v:horizAlign="1"/><v:tabList/>x</text>			</g>
		</g>
		<g id="group1321-123" transform="translate(11.7136,-7.31194)" v:mID="1321" v:groupContext="group">
			<title>z-as.1321</title>
			<g id="shape1322-124" v:mID="1322" v:groupContext="shape" transform="translate(78.7781,50.4316) rotate(90)">
				<title>Blad.1322</title>
				<path d="M0 78.78 L22.62 78.78" class="st9"/>
			</g>
			<g id="shape1323-129" v:mID="1323" v:groupContext="shape">
				<title>Blad.1323</title>
				<desc>z</desc>
				<v:textBlock v:margins="rect(4,4,4,4)" v:tabSpace="42.5197"/>
				<v:textRect cx="7.08661" cy="71.6915" width="14.18" height="14.1732"/>
				<rect x="0" y="64.6049" width="14.1732" height="14.1732" class="st11"/>
				<text x="4.75" y="75.29" class="st7" v:langID="1043"><v:paragraph v:horizAlign="1"/><v:tabList/>z</text>			</g>
		</g>
	</g>
</svg>
