<?xml version="1.0" encoding="UTF-8" standalone="no"?>
<!DOCTYPE svg PUBLIC "-//W3C//DTD SVG 1.1//EN" "http://www.w3.org/Graphics/SVG/1.1/DTD/svg11.dtd">
<!-- Gegenereerd door Microsoft Visio, SVG Export structure.svg Pagina-1 -->
<svg xmlns="http://www.w3.org/2000/svg" xmlns:xlink="http://www.w3.org/1999/xlink" xmlns:ev="http://www.w3.org/2001/xml-events"
		xmlns:v="http://schemas.microsoft.com/visio/2003/SVGExtensions/" width="3.25845in" height="0.410367in"
		viewBox="0 0 234.608 29.5465" xml:space="preserve" color-interpolation-filters="sRGB" class="st9">
	<v:documentProperties v:langID="1043" v:metric="true" v:viewMarkup="false"/>

	<style type="text/css">
	<![CDATA[
		.st1 {stroke:#000000;stroke-linecap:round;stroke-linejoin:round;stroke-width:1.2}
		.st2 {stroke:#000000;stroke-linecap:round;stroke-linejoin:round;stroke-width:0.75}
		.st3 {stroke:#000000;stroke-linecap:round;stroke-linejoin:round;stroke-width:2}
		.st4 {fill:#ffffff;stroke:#000000;stroke-linecap:round;stroke-linejoin:round;stroke-width:0.75}
		.st5 {fill:#00cc99;stroke:#000000;stroke-linecap:round;stroke-linejoin:round;stroke-width:0.75}
		.st6 {fill:none;stroke:none;stroke-linecap:round;stroke-linejoin:round;stroke-width:0.75}
		.st7 {fill:#000000;font-family:Times New Roman;font-size:1.00001em}
		.st8 {baseline-shift:-32.4941%;font-size:0.649882em}
		.st9 {fill:none;fill-rule:evenodd;font-size:12px;overflow:visible;stroke-linecap:square;stroke-miterlimit:3}
	]]>
	</style>

	<g v:mID="0" v:index="1" v:groupContext="foregroundPage">
		<title>Pagina-1</title>
		<v:pageProperties v:drawingScale="0.0393701" v:pageScale="0.0393701" v:drawingUnits="24" v:shadowOffsetX="8.50394"
				v:shadowOffsetY="-8.50394"/>
		<g id="group96-1" transform="translate(0.375,-0.599999)" v:mID="96" v:groupContext="group">
			<title>Inklemming.96</title>
			<g id="shape97-2" v:mID="97" v:groupContext="shape" transform="translate(40.885,1.2) rotate(90)">
				<title>Blad.97</title>
				<path d="M0 29.55 L28.35 29.55" class="st1"/>
			</g>
			<g id="shape98-5" v:mID="98" v:groupContext="shape" transform="translate(29.3964,-19.6925) rotate(45)">
				<title>Blad.98</title>
				<path d="M0 29.55 L4.01 29.55" class="st2"/>
			</g>
			<g id="shape99-8" v:mID="99" v:groupContext="shape" transform="translate(26.5618,-19.6925) rotate(45)">
				<title>Blad.99</title>
				<path d="M0 29.55 L8.02 29.55" class="st2"/>
			</g>
			<g id="shape100-11" v:mID="100" v:groupContext="shape" transform="translate(23.7271,-19.6925) rotate(45)">
				<title>Blad.100</title>
				<path d="M0 29.55 L12.03 29.55" class="st2"/>
			</g>
			<g id="shape101-14" v:mID="101" v:groupContext="shape" transform="translate(20.8925,-19.6925) rotate(45)">
				<title>Blad.101</title>
				<path d="M0 29.55 L16.04 29.55" class="st2"/>
			</g>
			<g id="shape102-17" v:mID="102" v:groupContext="shape" transform="translate(20.8925,-16.8579) rotate(45)">
				<title>Blad.102</title>
				<path d="M0 29.55 L16.04 29.55" class="st2"/>
			</g>
			<g id="shape103-20" v:mID="103" v:groupContext="shape" transform="translate(20.8925,-14.0232) rotate(45)">
				<title>Blad.103</title>
				<path d="M0 29.55 L16.04 29.55" class="st2"/>
			</g>
			<g id="shape104-23" v:mID="104" v:groupContext="shape" transform="translate(20.8925,-11.1886) rotate(45)">
				<title>Blad.104</title>
				<path d="M0 29.55 L16.04 29.55" class="st2"/>
			</g>
			<g id="shape105-26" v:mID="105" v:groupContext="shape" transform="translate(20.8925,-8.35392) rotate(45)">
				<title>Blad.105</title>
				<path d="M0 29.55 L16.04 29.55" class="st2"/>
			</g>
			<g id="shape106-29" v:mID="106" v:groupContext="shape" transform="translate(20.8925,-5.51927) rotate(45)">
				<title>Blad.106</title>
				<path d="M0 29.55 L16.04 29.55" class="st2"/>
			</g>
			<g id="shape107-32" v:mID="107" v:groupContext="shape" transform="translate(20.8925,-2.68463) rotate(45)">
				<title>Blad.107</title>
				<path d="M0 29.55 L16.04 29.55" class="st2"/>
			</g>
			<g id="shape108-35" v:mID="108" v:groupContext="shape" transform="translate(20.8925,0.15002) rotate(45)">
				<title>Blad.108</title>
				<path d="M0 29.55 L12.03 29.55" class="st2"/>
			</g>
			<g id="shape109-38" v:mID="109" v:groupContext="shape" transform="translate(20.8925,2.98467) rotate(45)">
				<title>Blad.109</title>
				<path d="M0 29.55 L8.02 29.55" class="st2"/>
			</g>
			<g id="shape110-41" v:mID="110" v:groupContext="shape" transform="translate(20.8925,5.81931) rotate(45)">
				<title>Blad.110</title>
				<path d="M0 29.55 L4.01 29.55" class="st2"/>
			</g>
		</g>
		<g id="shape111-44" v:mID="111" v:groupContext="shape" transform="translate(11.7136,-14.7732)">
			<title>Ligger, 2 pt.111</title>
			<path d="M0 29.55 L212.73 29.55" class="st3"/>
		</g>
		<g id="shape112-47" v:mID="112" v:groupContext="shape" transform="translate(52.1073,-12.6472)">
			<title>Scharnier.112</title>
			<ellipse cx="2.12598" cy="27.4205" rx="2.12598" ry="2.12598" class="st4"/>
		</g>
		<g id="group113-49" transform="translate(129.351,-0.599999)" v:mID="113" v:groupContext="group">
			<title>Rol.113</title>
			<g id="group114-50" transform="translate(0.261477,-2.83465)" v:mID="114" v:groupContext="group">
				<title>Scharnier</title>
				<g id="shape115-51" v:mID="115" v:groupContext="shape" transform="translate(2.79729,0)">
					<title>Blad.115</title>
					<path d="M0 29.55 L13.99 29.55 L6.99 18.21 L0 29.55 Z" class="st5"/>
				</g>
				<g id="shape116-53" v:mID="116" v:groupContext="shape" transform="translate(2.79729,59.0929) rotate(180)">
					<title>Blad.116</title>
					<path d="M0 29.55 L2.8 29.55" class="st2"/>
				</g>
				<g id="shape117-56" v:mID="117" v:groupContext="shape" transform="translate(16.7838,-3.55271E-15)">
					<title>Blad.117</title>
					<path d="M0 29.55 L2.8 29.55" class="st2"/>
				</g>
			</g>
			<g id="shape118-59" v:mID="118" v:groupContext="shape">
				<title>Blad.118</title>
				<path d="M0 29.55 L19.84 29.55" class="st2"/>
			</g>
		</g>
		<g id="group119-62" transform="translate(214.391,-0.599999)" v:mID="119" v:groupContext="group">
			<title>Rol.119</title>
			<g id="group120-63" transform="translate(0.261477,-2.83465)" v:mID="120" v:groupContext="group">
				<title>Scharnier</title>
				<g id="shape121-64" v:mID="121" v:groupContext="shape" transform="translate(2.79729,0)">
					<title>Blad.121</title>
					<path d="M0 29.55 L13.99 29.55 L6.99 18.21 L0 29.55 Z" class="st5"/>
				</g>
				<g id="shape122-66" v:mID="122" v:groupContext="shape" transform="translate(2.79729,59.0929) rotate(180)">
					<title>Blad.122</title>
					<path d="M0 29.55 L2.8 29.55" class="st2"/>
				</g>
				<g id="shape123-69" v:mID="123" v:groupContext="shape" transform="translate(16.7838,-3.55271E-15)">
					<title>Blad.123</title>
					<path d="M0 29.55 L2.8 29.55" class="st2"/>
				</g>
			</g>
			<g id="shape124-72" v:mID="124" v:groupContext="shape">
				<title>Blad.124</title>
				<path d="M0 29.55 L19.84 29.55" class="st2"/>
			</g>
		</g>
		<g id="shape125-75" v:mID="125" v:groupContext="shape" transform="translate(179.666,-12.6472)">
			<title>Scharnier.125</title>
			<ellipse cx="2.12598" cy="27.4205" rx="2.12598" ry="2.12598" class="st4"/>
		</g>
		<g id="shape126-77" v:mID="126" v:groupContext="shape" transform="translate(126.299,11.9386) rotate(90)">
			<title>Blad.126</title>
			<path d="M0 29.55 L5.67 29.55" class="st2"/>
		</g>
		<g id="shape127-80" v:mID="127" v:groupContext="shape" transform="translate(11.7136,-14.7732)">
			<title>Blad.127</title>
			<desc>A</desc>
			<v:textBlock v:margins="rect(4,4,4,4)" v:tabSpace="42.5197"/>
			<v:textRect cx="7.08661" cy="22.4598" width="14.18" height="14.1732"/>
			<rect x="0" y="15.3732" width="14.1732" height="14.1732" class="st6"/>
			<text x="4" y="26.06" class="st7" v:langID="1043"><v:paragraph v:horizAlign="1"/><v:tabList/>A</text>		</g>
		<g id="shape128-83" v:mID="128" v:groupContext="shape" transform="translate(40.06,-14.7732)">
			<title>Blad.128</title>
			<desc>S1</desc>
			<v:textBlock v:margins="rect(4,4,4,4)" v:tabSpace="42.5197"/>
			<v:textRect cx="14.1732" cy="22.4598" width="28.35" height="14.1732"/>
			<rect x="0" y="15.3732" width="28.3465" height="14.1732" class="st6"/>
			<text x="8.89" y="26.06" class="st7" v:langID="1043"><v:paragraph v:horizAlign="1"/><v:tabList/>S<tspan dy="-0.279em"
						class="st8" v:baseFontSize="12">1</tspan></text>		</g>
		<g id="shape129-87" v:mID="129" v:groupContext="shape" transform="translate(89.6663,-14.7732)">
			<title>Blad.129</title>
			<desc>D</desc>
			<v:textBlock v:margins="rect(4,4,4,4)" v:tabSpace="42.5197"/>
			<v:textRect cx="7.08661" cy="22.4598" width="14.18" height="14.1732"/>
			<rect x="0" y="15.3732" width="14.1732" height="14.1732" class="st6"/>
			<text x="4" y="26.06" class="st7" v:langID="1043"><v:paragraph v:horizAlign="1"/><v:tabList/>D</text>		</g>
		<g id="shape130-90" v:mID="130" v:groupContext="shape" transform="translate(132.186,-14.7732)">
			<title>Blad.130</title>
			<desc>B</desc>
			<v:textBlock v:margins="rect(4,4,4,4)" v:tabSpace="42.5197"/>
			<v:textRect cx="7.08661" cy="22.4598" width="14.18" height="14.1732"/>
			<rect x="0" y="15.3732" width="14.1732" height="14.1732" class="st6"/>
			<text x="4" y="26.06" class="st7" v:langID="1043"><v:paragraph v:horizAlign="1"/><v:tabList/>B</text>		</g>
		<g id="shape131-93" v:mID="131" v:groupContext="shape" transform="translate(217.225,-14.7732)">
			<title>Blad.131</title>
			<desc>C</desc>
			<v:textBlock v:margins="rect(4,4,4,4)" v:tabSpace="42.5197"/>
			<v:textRect cx="7.08661" cy="22.4598" width="14.18" height="14.1732"/>
			<rect x="0" y="15.3732" width="14.1732" height="14.1732" class="st6"/>
			<text x="4" y="26.06" class="st7" v:langID="1043"><v:paragraph v:horizAlign="1"/><v:tabList/>C</text>		</g>
		<g id="shape132-96" v:mID="132" v:groupContext="shape" transform="translate(167.619,-14.7732)">
			<title>Blad.132</title>
			<desc>S2</desc>
			<v:textBlock v:margins="rect(4,4,4,4)" v:tabSpace="42.5197"/>
			<v:textRect cx="14.1732" cy="22.4598" width="28.35" height="14.1732"/>
			<rect x="0" y="15.3732" width="28.3465" height="14.1732" class="st6"/>
			<text x="8.89" y="26.06" class="st7" v:langID="1043"><v:paragraph v:horizAlign="1"/><v:tabList/>S<tspan dy="-0.279em"
						class="st8" v:baseFontSize="12">2</tspan></text>		</g>
	</g>
</svg>
