<?xml version="1.0" encoding="UTF-8" standalone="no"?>
<!DOCTYPE svg PUBLIC "-//W3C//DTD SVG 1.1//EN" "http://www.w3.org/Graphics/SVG/1.1/DTD/svg11.dtd">
<!-- Gegenereerd door Microsoft Visio, SVG Export structure2.svg Pagina-1 -->
<svg xmlns="http://www.w3.org/2000/svg" xmlns:xlink="http://www.w3.org/1999/xlink" xmlns:ev="http://www.w3.org/2001/xml-events"
		xmlns:v="http://schemas.microsoft.com/visio/2003/SVGExtensions/" width="4.3981in" height="1.39149in"
		viewBox="0 0 316.663 100.188" xml:space="preserve" color-interpolation-filters="sRGB" class="st16">
	<v:documentProperties v:langID="1043" v:metric="true" v:viewMarkup="false"/>

	<style type="text/css">
	<![CDATA[
		.st1 {stroke:#000000;stroke-linecap:round;stroke-linejoin:round;stroke-width:1.2}
		.st2 {stroke:#000000;stroke-linecap:round;stroke-linejoin:round;stroke-width:0.75}
		.st3 {stroke:#000000;stroke-linecap:round;stroke-linejoin:round;stroke-width:2}
		.st4 {fill:#00cc99;stroke:#000000;stroke-linecap:round;stroke-linejoin:round;stroke-width:0.75}
		.st5 {fill:#ffffff;stroke:#000000;stroke-linecap:round;stroke-linejoin:round;stroke-width:0.75}
		.st6 {fill:none;stroke:none;stroke-linecap:round;stroke-linejoin:round;stroke-width:0.24}
		.st7 {fill:#000000;font-family:Times New Roman;font-size:1.00001em;font-style:italic}
		.st8 {baseline-shift:-32.4941%;font-size:0.649882em}
		.st9 {marker-end:url(#mrkr5-119);stroke:#000000;stroke-linecap:round;stroke-linejoin:round;stroke-width:0.75}
		.st10 {fill:#000000;fill-opacity:1;stroke:#000000;stroke-opacity:1;stroke-width:0.22935779816514}
		.st11 {fill:none;stroke:none;stroke-linecap:round;stroke-linejoin:round;stroke-width:0.75}
		.st12 {stroke:#000000;stroke-linecap:round;stroke-linejoin:round;stroke-width:0.25}
		.st13 {marker-end:url(#mrkr4-148);marker-start:url(#mrkr4-146);stroke:#000000;stroke-linecap:round;stroke-linejoin:round;stroke-width:0.25}
		.st14 {fill:#000000;fill-opacity:1;stroke:#000000;stroke-opacity:1;stroke-width:0.1219512195122}
		.st15 {fill:#000000;font-family:Times New Roman;font-size:1.00001em}
		.st16 {fill:none;fill-rule:evenodd;font-size:12px;overflow:visible;stroke-linecap:square;stroke-miterlimit:3}
	]]>
	</style>

	<defs id="Markers">
		<g id="lend5">
			<path d="M 2 1 L 0 0 L 1.98117 -0.993387 C 1.67173 -0.364515 1.67301 0.372641 1.98465 1.00043 " style="stroke:none"/>
		</g>
		<marker id="mrkr5-119" class="st10" v:arrowType="5" v:arrowSize="2" v:setback="7.63" refX="-7.63" orient="auto"
				markerUnits="strokeWidth" overflow="visible">
			<use xlink:href="#lend5" transform="scale(-4.36,-4.36) "/>
		</marker>
		<g id="lend4">
			<path d="M 2 1 L 0 0 L 2 -1 L 2 1 " style="stroke:none"/>
		</g>
		<marker id="mrkr4-146" class="st14" v:arrowType="4" v:arrowSize="1" v:setback="14.96" refX="14.96" orient="auto"
				markerUnits="strokeWidth" overflow="visible">
			<use xlink:href="#lend4" transform="scale(8.2) "/>
		</marker>
		<marker id="mrkr4-148" class="st14" v:arrowType="4" v:arrowSize="1" v:setback="16.4" refX="-16.4" orient="auto"
				markerUnits="strokeWidth" overflow="visible">
			<use xlink:href="#lend4" transform="scale(-8.2,-8.2) "/>
		</marker>
	</defs>
	<g v:mID="0" v:index="1" v:groupContext="foregroundPage">
		<title>Pagina-1</title>
		<v:pageProperties v:drawingScale="0.0393701" v:pageScale="0.0393701" v:drawingUnits="24" v:shadowOffsetX="8.50394"
				v:shadowOffsetY="-8.50394"/>
		<g id="group1277-1" transform="translate(0.375,-71.2411)" v:mID="1277" v:groupContext="group">
			<title>Inklemming.1277</title>
			<g id="shape1278-2" v:mID="1278" v:groupContext="shape" transform="translate(111.526,71.8411) rotate(90)">
				<title>Blad.1278</title>
				<path d="M0 100.19 L28.35 100.19" class="st1"/>
			</g>
			<g id="shape1279-5" v:mID="1279" v:groupContext="shape" transform="translate(79.3473,0.997813) rotate(45)">
				<title>Blad.1279</title>
				<path d="M0 100.19 L4.01 100.19" class="st2"/>
			</g>
			<g id="shape1280-8" v:mID="1280" v:groupContext="shape" transform="translate(76.5126,0.997813) rotate(45)">
				<title>Blad.1280</title>
				<path d="M0 100.19 L8.02 100.19" class="st2"/>
			</g>
			<g id="shape1281-11" v:mID="1281" v:groupContext="shape" transform="translate(73.678,0.997813) rotate(45)">
				<title>Blad.1281</title>
				<path d="M0 100.19 L12.03 100.19" class="st2"/>
			</g>
			<g id="shape1282-14" v:mID="1282" v:groupContext="shape" transform="translate(70.8433,0.997813) rotate(45)">
				<title>Blad.1282</title>
				<path d="M0 100.19 L16.04 100.19" class="st2"/>
			</g>
			<g id="shape1283-17" v:mID="1283" v:groupContext="shape" transform="translate(70.8433,3.83246) rotate(45)">
				<title>Blad.1283</title>
				<path d="M0 100.19 L16.04 100.19" class="st2"/>
			</g>
			<g id="shape1284-20" v:mID="1284" v:groupContext="shape" transform="translate(70.8433,6.6671) rotate(45)">
				<title>Blad.1284</title>
				<path d="M0 100.19 L16.04 100.19" class="st2"/>
			</g>
			<g id="shape1285-23" v:mID="1285" v:groupContext="shape" transform="translate(70.8433,9.50175) rotate(45)">
				<title>Blad.1285</title>
				<path d="M0 100.19 L16.04 100.19" class="st2"/>
			</g>
			<g id="shape1286-26" v:mID="1286" v:groupContext="shape" transform="translate(70.8433,12.3364) rotate(45)">
				<title>Blad.1286</title>
				<path d="M0 100.19 L16.04 100.19" class="st2"/>
			</g>
			<g id="shape1287-29" v:mID="1287" v:groupContext="shape" transform="translate(70.8433,15.171) rotate(45)">
				<title>Blad.1287</title>
				<path d="M0 100.19 L16.04 100.19" class="st2"/>
			</g>
			<g id="shape1288-32" v:mID="1288" v:groupContext="shape" transform="translate(70.8433,18.0057) rotate(45)">
				<title>Blad.1288</title>
				<path d="M0 100.19 L16.04 100.19" class="st2"/>
			</g>
			<g id="shape1289-35" v:mID="1289" v:groupContext="shape" transform="translate(70.8433,20.8403) rotate(45)">
				<title>Blad.1289</title>
				<path d="M0 100.19 L12.03 100.19" class="st2"/>
			</g>
			<g id="shape1290-38" v:mID="1290" v:groupContext="shape" transform="translate(70.8433,23.675) rotate(45)">
				<title>Blad.1290</title>
				<path d="M0 100.19 L8.02 100.19" class="st2"/>
			</g>
			<g id="shape1291-41" v:mID="1291" v:groupContext="shape" transform="translate(70.8433,26.5096) rotate(45)">
				<title>Blad.1291</title>
				<path d="M0 100.19 L4.01 100.19" class="st2"/>
			</g>
		</g>
		<g id="shape1292-44" v:mID="1292" v:groupContext="shape" transform="translate(11.7136,-85.4144)">
			<title>Ligger, 2 pt.1292</title>
			<path d="M0 100.19 L56.69 100.19" class="st3"/>
		</g>
		<g id="shape1293-47" v:mID="1293" v:groupContext="shape" transform="translate(68.4065,-85.4144)">
			<title>Ligger, 2 pt.1293</title>
			<path d="M0 100.19 L28.35 100.19" class="st3"/>
		</g>
		<g id="shape1294-50" v:mID="1294" v:groupContext="shape" transform="translate(96.753,-85.4144)">
			<title>Ligger, 2 pt.1294</title>
			<path d="M0 100.19 L56.69 100.19" class="st3"/>
		</g>
		<g id="shape1295-53" v:mID="1295" v:groupContext="shape" transform="translate(153.446,-85.4144)">
			<title>Ligger, 2 pt.1295</title>
			<path d="M0 100.19 L28.35 100.19" class="st3"/>
		</g>
		<g id="shape1296-56" v:mID="1296" v:groupContext="shape" transform="translate(181.792,-85.4144)">
			<title>Ligger, 2 pt.1296</title>
			<path d="M0 100.19 L85.04 100.19" class="st3"/>
		</g>
		<g id="group1297-59" transform="translate(256.91,-71.2411)" v:mID="1297" v:groupContext="group">
			<title>Rol.1297</title>
			<g id="group1298-60" transform="translate(0.261477,-2.83465)" v:mID="1298" v:groupContext="group">
				<title>Scharnier</title>
				<g id="shape1299-61" v:mID="1299" v:groupContext="shape" transform="translate(2.79729,1.42109E-14)">
					<title>Blad.1299</title>
					<path d="M0 100.19 L13.99 100.19 L6.99 88.85 L0 100.19 Z" class="st4"/>
				</g>
				<g id="shape1300-63" v:mID="1300" v:groupContext="shape" transform="translate(2.79729,200.375) rotate(180)">
					<title>Blad.1300</title>
					<path d="M0 100.19 L2.8 100.19" class="st2"/>
				</g>
				<g id="shape1301-66" v:mID="1301" v:groupContext="shape" transform="translate(16.7838,1.42109E-14)">
					<title>Blad.1301</title>
					<path d="M0 100.19 L2.8 100.19" class="st2"/>
				</g>
			</g>
			<g id="shape1302-69" v:mID="1302" v:groupContext="shape">
				<title>Blad.1302</title>
				<path d="M0 100.19 L19.84 100.19" class="st2"/>
			</g>
		</g>
		<g id="group1303-72" transform="translate(143.525,-71.2411)" v:mID="1303" v:groupContext="group">
			<title>Rol.1303</title>
			<g id="group1304-73" transform="translate(0.261477,-2.83465)" v:mID="1304" v:groupContext="group">
				<title>Scharnier</title>
				<g id="shape1305-74" v:mID="1305" v:groupContext="shape" transform="translate(2.79729,1.42109E-14)">
					<title>Blad.1305</title>
					<path d="M0 100.19 L13.99 100.19 L6.99 88.85 L0 100.19 Z" class="st4"/>
				</g>
				<g id="shape1306-76" v:mID="1306" v:groupContext="shape" transform="translate(2.79729,200.375) rotate(180)">
					<title>Blad.1306</title>
					<path d="M0 100.19 L2.8 100.19" class="st2"/>
				</g>
				<g id="shape1307-79" v:mID="1307" v:groupContext="shape" transform="translate(16.7838,1.42109E-14)">
					<title>Blad.1307</title>
					<path d="M0 100.19 L2.8 100.19" class="st2"/>
				</g>
			</g>
			<g id="shape1308-82" v:mID="1308" v:groupContext="shape">
				<title>Blad.1308</title>
				<path d="M0 100.19 L19.84 100.19" class="st2"/>
			</g>
		</g>
		<g id="shape1309-85" v:mID="1309" v:groupContext="shape" transform="translate(179.666,-83.2884)">
			<title>Scharnier.1309</title>
			<ellipse cx="2.12598" cy="98.0616" rx="2.12598" ry="2.12598" class="st5"/>
		</g>
		<g id="shape1310-87" v:mID="1310" v:groupContext="shape" transform="translate(66.2805,-83.2884)">
			<title>Scharnier.1310</title>
			<ellipse cx="2.12598" cy="98.0616" rx="2.12598" ry="2.12598" class="st5"/>
		</g>
		<g id="shape1311-89" v:mID="1311" v:groupContext="shape" transform="translate(196.941,11.9386) rotate(90)">
			<title>Blad.1311</title>
			<path d="M0 100.19 L5.67 100.19" class="st2"/>
		</g>
		<g id="shape1312-92" v:mID="1312" v:groupContext="shape" transform="translate(11.7136,-85.4144)">
			<title>Punt A.1312</title>
			<desc>A</desc>
			<v:textBlock v:margins="rect(4,4,4,4)" v:tabSpace="42.5197"/>
			<v:textRect cx="7.08661" cy="93.101" width="14.18" height="14.1732"/>
			<rect x="0" y="86.0144" width="14.1732" height="14.1732" class="st6"/>
			<text x="4" y="96.7" class="st7" v:langID="1043"><v:paragraph v:horizAlign="1"/><v:tabList/>A</text>		</g>
		<g id="shape1313-95" v:mID="1313" v:groupContext="shape" transform="translate(146.359,-85.4144)">
			<title>Punt A.1313</title>
			<desc>B</desc>
			<v:textBlock v:margins="rect(4,4,4,4)" v:tabSpace="42.5197"/>
			<v:textRect cx="7.08661" cy="93.101" width="14.18" height="14.1732"/>
			<rect x="0" y="86.0144" width="14.1732" height="14.1732" class="st6"/>
			<text x="4" y="96.7" class="st7" v:langID="1043"><v:paragraph v:horizAlign="1"/><v:tabList/>B</text>		</g>
		<g id="shape1314-98" v:mID="1314" v:groupContext="shape" transform="translate(259.745,-85.4144)">
			<title>Punt A.1314</title>
			<desc>C</desc>
			<v:textBlock v:margins="rect(4,4,4,4)" v:tabSpace="42.5197"/>
			<v:textRect cx="7.08661" cy="93.101" width="14.18" height="14.1732"/>
			<rect x="0" y="86.0144" width="14.1732" height="14.1732" class="st6"/>
			<text x="4" y="96.7" class="st7" v:langID="1043"><v:paragraph v:horizAlign="1"/><v:tabList/>C</text>		</g>
		<g id="shape1315-101" v:mID="1315" v:groupContext="shape" transform="translate(54.2333,-85.4144)">
			<title>Punt A.1315</title>
			<desc>S1</desc>
			<v:textBlock v:margins="rect(4,4,4,4)" v:tabSpace="42.5197"/>
			<v:textRect cx="14.1732" cy="93.101" width="28.35" height="14.1732"/>
			<rect x="0" y="86.0144" width="28.3465" height="14.1732" class="st6"/>
			<text x="9.22" y="96.7" class="st7" v:langID="1043"><v:paragraph v:horizAlign="1"/><v:tabList/>S<tspan dy="-0.279em"
						class="st8" v:baseFontSize="12">1</tspan></text>		</g>
		<g id="shape1316-105" v:mID="1316" v:groupContext="shape" transform="translate(167.619,-85.4144)">
			<title>Punt A.1316</title>
			<desc>S2</desc>
			<v:textBlock v:margins="rect(4,4,4,4)" v:tabSpace="42.5197"/>
			<v:textRect cx="14.1732" cy="93.101" width="28.35" height="14.1732"/>
			<rect x="0" y="86.0144" width="28.3465" height="14.1732" class="st6"/>
			<text x="9.22" y="96.7" class="st7" v:langID="1043"><v:paragraph v:horizAlign="1"/><v:tabList/>S<tspan dy="-0.279em"
						class="st8" v:baseFontSize="12">2</tspan></text>		</g>
		<g id="shape1317-109" v:mID="1317" v:groupContext="shape" transform="translate(89.6663,-85.4144)">
			<title>Punt A.1317</title>
			<desc>D</desc>
			<v:textBlock v:margins="rect(4,4,4,4)" v:tabSpace="42.5197"/>
			<v:textRect cx="7.08661" cy="93.101" width="14.18" height="14.1732"/>
			<rect x="0" y="86.0144" width="14.1732" height="14.1732" class="st6"/>
			<text x="4" y="96.7" class="st7" v:langID="1043"><v:paragraph v:horizAlign="1"/><v:tabList/>D</text>		</g>
		<g id="group1318-112" transform="translate(281.005,-71.2411)" v:mID="1318" v:groupContext="group">
			<title>x-as.1318</title>
			<g id="shape1319-113" v:mID="1319" v:groupContext="shape" transform="translate(-1.15424E-12,-14.1732)">
				<title>Blad.1319</title>
				<path d="M0 100.19 L22.62 100.19" class="st9"/>
			</g>
			<g id="shape1320-120" v:mID="1320" v:groupContext="shape" transform="translate(14.1732,2.84217E-14)">
				<title>Blad.1320</title>
				<desc>x</desc>
				<v:textBlock v:margins="rect(4,4,4,4)" v:tabSpace="42.5197"/>
				<v:textRect cx="7.08661" cy="93.101" width="14.18" height="14.1732"/>
				<rect x="0" y="86.0144" width="14.1732" height="14.1732" class="st11"/>
				<text x="4.42" y="96.7" class="st7" v:langID="1043"><v:paragraph v:horizAlign="1"/><v:tabList/>x</text>			</g>
		</g>
		<g id="group1321-123" transform="translate(11.7136,-28.7215)" v:mID="1321" v:groupContext="group">
			<title>z-as.1321</title>
			<g id="shape1322-124" v:mID="1322" v:groupContext="shape" transform="translate(100.188,71.8411) rotate(90)">
				<title>Blad.1322</title>
				<path d="M0 100.19 L22.62 100.19" class="st9"/>
			</g>
			<g id="shape1323-129" v:mID="1323" v:groupContext="shape">
				<title>Blad.1323</title>
				<desc>z</desc>
				<v:textBlock v:margins="rect(4,4,4,4)" v:tabSpace="42.5197"/>
				<v:textRect cx="7.08661" cy="93.101" width="14.18" height="14.1732"/>
				<rect x="0" y="86.0144" width="14.1732" height="14.1732" class="st11"/>
				<text x="4.75" y="96.7" class="st7" v:langID="1043"><v:paragraph v:horizAlign="1"/><v:tabList/>z</text>			</g>
		</g>
		<g id="group1324-132" transform="translate(11.7136,-0.375)" v:mID="1324" v:groupContext="group">
			<title>Maatlijn.1324</title>
			<g id="group1325-133" transform="translate(0,-9.92126)" v:mID="1325" v:groupContext="group">
				<title>Maatlijn.31</title>
				<g id="shape1326-134" v:mID="1326" v:groupContext="shape" transform="translate(100.188,91.6837) rotate(90)">
					<title>Blad.1326</title>
					<path d="M0 100.19 L8.5 100.19" class="st12"/>
				</g>
				<g id="shape1327-137" v:mID="1327" v:groupContext="shape" transform="translate(156.881,91.6837) rotate(90)">
					<title>Blad.1327</title>
					<path d="M0 100.19 L8.5 100.19" class="st12"/>
				</g>
				<g id="shape1328-140" v:mID="1328" v:groupContext="shape" transform="translate(0,-4.25197)">
					<title>Blad.1328</title>
					<path d="M3.74 100.19 L4.1 100.19 L52.59 100.19" class="st13"/>
				</g>
			</g>
			<g id="shape1329-149" v:mID="1329" v:groupContext="shape">
				<title>Blad.1329</title>
				<desc>2 m</desc>
				<v:textBlock v:margins="rect(4,4,4,4)" v:tabSpace="42.5197"/>
				<v:textRect cx="28.3465" cy="93.101" width="56.7" height="14.1732"/>
				<rect x="0" y="86.0144" width="56.6929" height="14.1732" class="st11"/>
				<text x="19.18" y="96.7" class="st15" v:langID="1043"><v:paragraph v:horizAlign="1"/><v:tabList/>2 m</text>			</g>
		</g>
		<g id="group1330-152" transform="translate(68.4065,-0.375)" v:mID="1330" v:groupContext="group">
			<title>Maatlijn.1330</title>
			<g id="group1331-153" transform="translate(0,-9.92126)" v:mID="1331" v:groupContext="group">
				<title>Maatlijn.31</title>
				<g id="shape1332-154" v:mID="1332" v:groupContext="shape" transform="translate(100.188,91.6837) rotate(90)">
					<title>Blad.1332</title>
					<path d="M0 100.19 L8.5 100.19" class="st12"/>
				</g>
				<g id="shape1333-157" v:mID="1333" v:groupContext="shape" transform="translate(128.534,91.6837) rotate(90)">
					<title>Blad.1333</title>
					<path d="M0 100.19 L8.5 100.19" class="st12"/>
				</g>
				<g id="shape1334-160" v:mID="1334" v:groupContext="shape" transform="translate(0,-4.25197)">
					<title>Blad.1334</title>
					<path d="M3.74 100.19 L4.1 100.19 L24.25 100.19" class="st13"/>
				</g>
			</g>
			<g id="shape1335-167" v:mID="1335" v:groupContext="shape">
				<title>Blad.1335</title>
				<desc>1 m</desc>
				<v:textBlock v:margins="rect(4,4,4,4)" v:tabSpace="42.5197"/>
				<v:textRect cx="14.1732" cy="93.101" width="28.35" height="14.1732"/>
				<rect x="0" y="86.0144" width="28.3465" height="14.1732" class="st11"/>
				<text x="5.01" y="96.7" class="st15" v:langID="1043"><v:paragraph v:horizAlign="1"/><v:tabList/>1 m</text>			</g>
		</g>
		<g id="group1336-170" transform="translate(96.753,-0.375)" v:mID="1336" v:groupContext="group">
			<title>Maatlijn.1336</title>
			<g id="group1337-171" transform="translate(0,-9.92126)" v:mID="1337" v:groupContext="group">
				<title>Maatlijn.31</title>
				<g id="shape1338-172" v:mID="1338" v:groupContext="shape" transform="translate(100.188,91.6837) rotate(90)">
					<title>Blad.1338</title>
					<path d="M0 100.19 L8.5 100.19" class="st12"/>
				</g>
				<g id="shape1339-175" v:mID="1339" v:groupContext="shape" transform="translate(156.881,91.6837) rotate(90)">
					<title>Blad.1339</title>
					<path d="M0 100.19 L8.5 100.19" class="st12"/>
				</g>
				<g id="shape1340-178" v:mID="1340" v:groupContext="shape" transform="translate(0,-4.25197)">
					<title>Blad.1340</title>
					<path d="M3.74 100.19 L4.1 100.19 L52.59 100.19" class="st13"/>
				</g>
			</g>
			<g id="shape1341-185" v:mID="1341" v:groupContext="shape">
				<title>Blad.1341</title>
				<desc>2 m</desc>
				<v:textBlock v:margins="rect(4,4,4,4)" v:tabSpace="42.5197"/>
				<v:textRect cx="28.3465" cy="93.101" width="56.7" height="14.1732"/>
				<rect x="0" y="86.0144" width="56.6929" height="14.1732" class="st11"/>
				<text x="19.18" y="96.7" class="st15" v:langID="1043"><v:paragraph v:horizAlign="1"/><v:tabList/>2 m</text>			</g>
		</g>
		<g id="group1342-188" transform="translate(153.446,-0.375)" v:mID="1342" v:groupContext="group">
			<title>Maatlijn.1342</title>
			<g id="group1343-189" transform="translate(0,-9.92126)" v:mID="1343" v:groupContext="group">
				<title>Maatlijn.31</title>
				<g id="shape1344-190" v:mID="1344" v:groupContext="shape" transform="translate(100.188,91.6837) rotate(90)">
					<title>Blad.1344</title>
					<path d="M0 100.19 L8.5 100.19" class="st12"/>
				</g>
				<g id="shape1345-193" v:mID="1345" v:groupContext="shape" transform="translate(128.534,91.6837) rotate(90)">
					<title>Blad.1345</title>
					<path d="M0 100.19 L8.5 100.19" class="st12"/>
				</g>
				<g id="shape1346-196" v:mID="1346" v:groupContext="shape" transform="translate(0,-4.25197)">
					<title>Blad.1346</title>
					<path d="M3.74 100.19 L4.1 100.19 L24.25 100.19" class="st13"/>
				</g>
			</g>
			<g id="shape1347-203" v:mID="1347" v:groupContext="shape">
				<title>Blad.1347</title>
				<desc>1 m</desc>
				<v:textBlock v:margins="rect(4,4,4,4)" v:tabSpace="42.5197"/>
				<v:textRect cx="14.1732" cy="93.101" width="28.35" height="14.1732"/>
				<rect x="0" y="86.0144" width="28.3465" height="14.1732" class="st11"/>
				<text x="5.01" y="96.7" class="st15" v:langID="1043"><v:paragraph v:horizAlign="1"/><v:tabList/>1 m</text>			</g>
		</g>
		<g id="group1348-206" transform="translate(181.792,-0.375)" v:mID="1348" v:groupContext="group">
			<title>Maatlijn.1348</title>
			<g id="group1349-207" transform="translate(0,-9.92126)" v:mID="1349" v:groupContext="group">
				<title>Maatlijn.31</title>
				<g id="shape1350-208" v:mID="1350" v:groupContext="shape" transform="translate(100.188,91.6837) rotate(90)">
					<title>Blad.1350</title>
					<path d="M0 100.19 L8.5 100.19" class="st12"/>
				</g>
				<g id="shape1351-211" v:mID="1351" v:groupContext="shape" transform="translate(185.227,91.6837) rotate(90)">
					<title>Blad.1351</title>
					<path d="M0 100.19 L8.5 100.19" class="st12"/>
				</g>
				<g id="shape1352-214" v:mID="1352" v:groupContext="shape" transform="translate(0,-4.25197)">
					<title>Blad.1352</title>
					<path d="M3.74 100.19 L4.1 100.19 L80.94 100.19" class="st13"/>
				</g>
			</g>
			<g id="shape1353-221" v:mID="1353" v:groupContext="shape">
				<title>Blad.1353</title>
				<desc>3 m</desc>
				<v:textBlock v:margins="rect(4,4,4,4)" v:tabSpace="42.5197"/>
				<v:textRect cx="42.5197" cy="93.101" width="85.04" height="14.1732"/>
				<rect x="0" y="86.0144" width="85.0394" height="14.1732" class="st11"/>
				<text x="33.35" y="96.7" class="st15" v:langID="1043"><v:paragraph v:horizAlign="1"/><v:tabList/>3 m</text>			</g>
		</g>
	</g>
</svg>
